0
SECTION
2
HEADER
9
$INSUNITS
70
4
9
$ACADVER
1
AC1014
9
$HANDSEED
5
FFFF
0
ENDSEC
0
SECTION
2
TABLES
0
TABLE
2
VPORT
5
8
100
AcDbSymbolTable
0
ENDTAB
0
TABLE
2
LTYPE
5
5
100
AcDbSymbolTable
0
LTYPE
5
14
100
AcDbSymbolTableRecord
100
AcDbLinetypeTableRecord
2
BYBLOCK
70
0
0
LTYPE
5
15
100
AcDbSymbolTableRecord
100
AcDbLinetypeTableRecord
2
BYLAYER
70
0
0
LTYPE
5
16
100
AcDbSymbolTableRecord
100
AcDbLinetypeTableRecord
2
DASHED
70
0
3
Dashed __ __ __ __ __ __ __ __ __ __ __ __ __ _
72
65
73
2
40
0.75
49
0.5
74
0
49
-0.25
74
0
0
ENDTAB
0
TABLE
2
LAYER
5
2
100
AcDbSymbolTable
70
2
0
LAYER
5
50
100
AcDbSymbolTableRecord
100
AcDbLayerTableRecord
2
0
70
0
62
7
6
CONTINUOUS
0
ENDTAB
0
TABLE
2
STYLE
5
3
100
AcDbSymbolTable
70
1
0
STYLE
5
11
100
AcDbSymbolTableRecord
100
AcDbTextStyleTableRecord
2
STANDARD
70
0
0
ENDTAB
0
TABLE
2
VIEW
5
6
100
AcDbSymbolTable
70
0
0
ENDTAB
0
TABLE
2
UCS
5
7
100
AcDbSymbolTable
70
0
0
ENDTAB
0
TABLE
2
APPID
5
9
100
AcDbSymbolTable
70
2
0
APPID
5
12
100
AcDbSymbolTableRecord
100
AcDbRegAppTableRecord
2
ACAD
70
0
0
ENDTAB
0
TABLE
2
DIMSTYLE
5
A
100
AcDbSymbolTable
70
1
0
ENDTAB
0
TABLE
2
BLOCK_RECORD
5
1
100
AcDbSymbolTable
70
1
0
BLOCK_RECORD
5
1F
100
AcDbSymbolTableRecord
100
AcDbBlockTableRecord
2
*MODEL_SPACE
0
BLOCK_RECORD
5
1B
100
AcDbSymbolTableRecord
100
AcDbBlockTableRecord
2
*PAPER_SPACE
0
ENDTAB
0
ENDSEC
0
SECTION
2
BLOCKS
0
BLOCK
5
20
100
AcDbEntity
100
AcDbBlockBegin
2
*MODEL_SPACE
0
ENDBLK
5
21
100
AcDbEntity
100
AcDbBlockEnd
0
BLOCK
5
1C
100
AcDbEntity
100
AcDbBlockBegin
2
*PAPER_SPACE
0
ENDBLK
5
1D
100
AcDbEntity
100
AcDbBlockEnd
0
ENDSEC
0
SECTION
2
ENTITIES
0
POINT
5
100
100
AcDbEntity
8
0
100
AcDbPoint
10
38.761864995756952
20
123.55789994137686
30
0
0
LWPOLYLINE
5
101
100
AcDbEntity
8
0
100
AcDbPolyline
90
4
70
1
43
0.0
10
23.268512995756986
20
100.08121894137687
10
23.268512995756986
20
101.98121894137688
10
21.238512995756981
20
101.98121894137688
10
21.238512995756981
20
100.08121894137687
0
LWPOLYLINE
5
102
100
AcDbEntity
8
0
100
AcDbPolyline
90
4
70
1
43
0.0
10
23.768512995756982
20
101.98121894137688
10
23.768512995756982
20
100.08121894137687
10
24.738512995756974
20
100.08121894137687
10
24.738512995756974
20
101.98121894137688
0
LWPOLYLINE
5
103
100
AcDbEntity
8
0
100
AcDbPolyline
90
4
70
1
43
0.0
10
14.118399995756977
20
110.98589794137688
10
14.118399995756977
20
112.8858979413769
10
12.088399995756976
20
112.8858979413769
10
12.088399995756976
20
110.98589794137688
0
LWPOLYLINE
5
104
100
AcDbEntity
8
0
100
AcDbPolyline
90
4
70
1
43
0.0
10
15.588399995756973
20
110.98589794137688
10
15.588399995756973
20
112.8858979413769
10
14.618399995756977
20
112.8858979413769
10
14.618399995756977
20
110.98589794137688
0
LWPOLYLINE
5
105
100
AcDbEntity
8
0
100
AcDbPolyline
90
4
70
1
43
0.0
10
46.976397995756933
20
87.319755941376911
10
46.976397995756933
20
85.419755941376906
10
49.006397995756927
20
85.419755941376906
10
49.006397995756927
20
87.319755941376911
0
LWPOLYLINE
5
106
100
AcDbEntity
8
0
100
AcDbPolyline
90
4
70
1
43
0.0
10
49.506397995756934
20
85.419755941376906
10
50.476397995756919
20
85.419755941376906
10
50.476397995756919
20
87.319755941376911
10
49.506397995756934
20
87.319755941376911
0
LWPOLYLINE
5
107
100
AcDbEntity
8
0
100
AcDbPolyline
90
4
70
1
43
0.0
10
35.386864995756959
20
113.68289994137689
10
35.386864995756959
20
112.73289994137687
10
36.836864995756954
20
112.73289994137687
10
36.836864995756954
20
113.68289994137689
0
LWPOLYLINE
5
108
100
AcDbEntity
8
0
100
AcDbPolyline
90
4
70
1
43
0.0
10
35.386864995756959
20
111.68289994137687
10
35.386864995756959
20
110.73289994137687
10
36.836864995756954
20
110.73289994137689
10
36.836864995756954
20
111.68289994137687
0
LWPOLYLINE
5
109
100
AcDbEntity
8
0
100
AcDbPolyline
90
4
70
1
43
0.0
10
69.510519995756923
20
116.87751094137688
10
71.540519995756938
20
116.87751094137688
10
71.540519995756938
20
118.77751094137687
10
69.510519995756923
20
118.77751094137687
0
LWPOLYLINE
5
110
100
AcDbEntity
8
0
100
AcDbPolyline
90
4
70
1
43
0.0
10
73.010519995756923
20
116.87751094137688
10
73.010519995756923
20
118.77751094137687
10
72.040519995756938
20
118.77751094137687
10
72.040519995756938
20
116.87751094137688
0
LWPOLYLINE
5
111
100
AcDbEntity
8
0
100
AcDbPolyline
90
4
70
1
43
0.0
10
42.296864995756955
20
113.15789994137688
10
42.296864995756955
20
114.10789994137687
10
41.496864995756944
20
114.10789994137687
10
41.496864995756944
20
113.15789994137688
0
LWPOLYLINE
5
112
100
AcDbEntity
8
0
100
AcDbPolyline
90
4
70
1
43
0.0
10
40.696864995756954
20
113.15789994137688
10
40.696864995756954
20
114.10789994137687
10
39.896864995756957
20
114.10789994137687
10
39.896864995756957
20
113.15789994137688
0
LWPOLYLINE
5
113
100
AcDbEntity
8
0
100
AcDbPolyline
90
4
70
1
43
0.0
10
37.761864995756966
20
116.43289994137689
10
37.761864995756966
20
114.93289994137689
10
38.261864995756966
20
114.93289994137686
10
38.261864995756966
20
116.43289994137689
0
LWPOLYLINE
5
114
100
AcDbEntity
8
0
100
AcDbPolyline
90
4
70
1
43
0.0
10
-12.299773004243018
20
118.29369094137687
10
-10.269773004243019
20
118.29369094137687
10
-10.269773004243019
20
120.19369094137686
10
-12.299773004243018
20
120.19369094137686
0
LWPOLYLINE
5
115
100
AcDbEntity
8
0
100
AcDbPolyline
90
4
70
1
43
0.0
10
-9.7697730042430191
20
120.19369094137686
10
-9.7697730042430191
20
118.29369094137687
10
-8.799773004243022
20
118.29369094137687
10
-8.7997730042430238
20
120.19369094137686
0
LWPOLYLINE
5
116
100
AcDbEntity
8
0
100
AcDbPolyline
90
4
70
1
43
0.0
10
61.041864995756931
20
122.60789994137687
10
61.041864995756924
20
124.50789994137688
10
59.01186499575693
20
124.50789994137686
10
59.011864995756937
20
122.60789994137687
0
LWPOLYLINE
5
117
100
AcDbEntity
8
0
100
AcDbPolyline
90
4
70
1
43
0.0
10
62.511864995756923
20
122.60789994137687
10
62.511864995756916
20
124.50789994137688
10
61.541864995756924
20
124.50789994137686
10
61.541864995756931
20
122.60789994137687
0
LWPOLYLINE
5
118
100
AcDbEntity
8
0
100
AcDbPolyline
90
4
70
1
43
0.0
10
26.011864995756959
20
105.45534194137687
10
26.011864995756966
20
103.55534194137687
10
28.041864995756967
20
103.55534194137687
10
28.04186499575696
20
105.45534194137687
0
LWPOLYLINE
5
119
100
AcDbEntity
8
0
100
AcDbPolyline
90
4
70
1
43
0.0
10
29.511864995756952
20
105.45534194137687
10
28.54186499575696
20
105.45534194137687
10
28.541864995756967
20
103.55534194137687
10
29.511864995756962
20
103.55534194137687
0
LWPOLYLINE
5
120
100
AcDbEntity
8
0
100
AcDbPolyline
90
4
70
1
43
0.0
10
17.959305995756949
20
135.50789994137685
10
17.959305995756957
20
133.60789994137684
10
19.989305995756958
20
133.60789994137684
10
19.989305995756954
20
135.50789994137685
0
LWPOLYLINE
5
121
100
AcDbEntity
8
0
100
AcDbPolyline
90
4
70
1
43
0.0
10
20.489305995756951
20
135.50789994137685
10
20.489305995756958
20
133.60789994137684
10
21.459305995756953
20
133.60789994137684
10
21.459305995756953
20
135.50789994137685
0
LWPOLYLINE
5
122
100
AcDbEntity
8
0
100
AcDbPolyline
90
4
70
1
43
0.0
10
25.389861995756942
20
147.53136494137681
10
27.419861995756946
20
147.53136494137681
10
27.419861995756946
20
149.43136494137684
10
25.389861995756942
20
149.43136494137684
0
LWPOLYLINE
5
123
100
AcDbEntity
8
0
100
AcDbPolyline
90
4
70
1
43
0.0
10
27.919861995756953
20
149.43136494137684
10
27.919861995756953
20
147.53136494137681
10
28.889861995756938
20
147.53136494137681
10
28.889861995756938
20
149.43136494137684
0
LWPOLYLINE
5
124
100
AcDbEntity
8
0
100
AcDbPolyline
90
4
70
1
43
0.0
10
50.041864995756939
20
105.45534194137687
10
48.011864995756952
20
105.45534194137687
10
48.011864995756952
20
103.55534194137687
10
50.041864995756939
20
103.55534194137687
0
LWPOLYLINE
5
125
100
AcDbEntity
8
0
100
AcDbPolyline
90
4
70
1
43
0.0
10
50.541864995756939
20
103.55534194137687
10
51.511864995756937
20
103.55534194137687
10
51.511864995756937
20
105.45534194137687
10
50.541864995756939
20
105.45534194137687
0
LWPOLYLINE
5
126
100
AcDbEntity
8
0
100
AcDbPolyline
90
4
70
1
43
0.0
10
6.0020079957569683
20
111.32123594137688
10
8.0320079957569739
20
111.32123594137688
10
8.0320079957569739
20
113.22123594137688
10
6.0020079957569683
20
113.22123594137688
0
LWPOLYLINE
5
127
100
AcDbEntity
8
0
100
AcDbPolyline
90
4
70
1
43
0.0
10
8.5320079957569721
20
111.32123594137688
10
9.5020079957569656
20
111.32123594137688
10
9.5020079957569639
20
113.22123594137688
10
8.5320079957569721
20
113.22123594137688
0
LWPOLYLINE
5
128
100
AcDbEntity
8
0
100
AcDbPolyline
90
4
70
1
43
0.0
10
41.326073995756943
20
75.196262941376915
10
41.326073995756943
20
73.296262941376909
10
43.356073995756944
20
73.296262941376909
10
43.356073995756944
20
75.196262941376915
0
LWPOLYLINE
5
129
100
AcDbEntity
8
0
100
AcDbPolyline
90
4
70
1
43
0.0
10
44.82607399575695
20
75.196262941376915
10
43.856073995756944
20
75.196262941376915
10
43.856073995756944
20
73.296262941376909
10
44.82607399575695
20
73.296262941376909
0
LWPOLYLINE
5
130
100
AcDbEntity
8
0
100
AcDbPolyline
90
4
70
1
43
0.0
10
64.321330995756924
20
101.39590894137686
10
64.321330995756924
20
103.29590894137688
10
62.291330995756937
20
103.29590894137688
10
62.291330995756937
20
101.39590894137686
0
LWPOLYLINE
5
131
100
AcDbEntity
8
0
100
AcDbPolyline
90
4
70
1
43
0.0
10
64.821330995756938
20
101.39590894137686
10
65.791330995756937
20
101.39590894137686
10
65.791330995756937
20
103.29590894137688
10
64.821330995756938
20
103.29590894137688
0
LWPOLYLINE
5
132
100
AcDbEntity
8
0
100
AcDbPolyline
90
4
70
1
43
0.0
10
-4.3346110042430244
20
139.55678694137686
10
-4.3346110042430226
20
137.65678694137682
10
-2.3046110042430223
20
137.65678694137682
10
-2.3046110042430223
20
139.55678694137686
0
LWPOLYLINE
5
133
100
AcDbEntity
8
0
100
AcDbPolyline
90
4
70
1
43
0.0
10
-1.8046110042430201
20
139.55678694137686
10
-1.8046110042430199
20
137.65678694137682
10
-0.83461100424302548
20
137.65678694137682
10
-0.8346110042430257
20
139.55678694137686
0
LWPOLYLINE
5
134
100
AcDbEntity
8
0
100
AcDbPolyline
90
4
70
1
43
0.0
10
16.515182995756966
20
138.38125194137686
10
16.515182995756966
20
140.28125194137689
10
14.485182995756961
20
140.28125194137687
10
14.485182995756961
20
138.38125194137686
0
LWPOLYLINE
5
135
100
AcDbEntity
8
0
100
AcDbPolyline
90
4
70
1
43
0.0
10
17.985182995756965
20
138.38125194137686
10
17.985182995756965
20
140.28125194137689
10
17.015182995756962
20
140.28125194137687
10
17.015182995756962
20
138.38125194137686
0
LWPOLYLINE
5
136
100
AcDbEntity
8
0
100
AcDbPolyline
90
4
70
1
43
0.0
10
17.041864995756963
20
124.50789994137686
10
15.011864995756961
20
124.50789994137686
10
15.011864995756961
20
122.60789994137687
10
17.041864995756963
20
122.60789994137687
0
LWPOLYLINE
5
137
100
AcDbEntity
8
0
100
AcDbPolyline
90
4
70
1
43
0.0
10
18.511864995756962
20
122.60789994137687
10
18.511864995756962
20
124.50789994137688
10
17.541864995756956
20
124.50789994137686
10
17.541864995756956
20
122.60789994137687
0
LWPOLYLINE
5
138
100
AcDbEntity
8
0
100
AcDbPolyline
90
4
70
1
43
0.0
10
-17.988135004243013
20
124.50789994137686
10
-17.988135004243013
20
122.60789994137687
10
-15.958135004243017
20
122.60789994137687
10
-15.958135004243017
20
124.50789994137688
0
LWPOLYLINE
5
139
100
AcDbEntity
8
0
100
AcDbPolyline
90
4
70
1
43
0.0
10
-15.458135004243015
20
122.60789994137687
10
-14.488135004243015
20
122.60789994137687
10
-14.488135004243015
20
124.50789994137686
10
-15.458135004243015
20
124.50789994137686
0
LWPOLYLINE
5
140
100
AcDbEntity
8
0
100
AcDbPolyline
90
4
70
1
43
0.0
10
94.041864995756896
20
124.50790094137687
10
92.011864995756909
20
124.50790094137687
10
92.011864995756909
20
122.60790094137687
10
94.041864995756896
20
122.60790094137687
0
LWPOLYLINE
5
141
100
AcDbEntity
8
0
100
AcDbPolyline
90
4
70
1
43
0.0
10
94.54186499575691
20
124.50790094137687
10
94.54186499575691
20
122.60790094137687
10
95.511864995756909
20
122.60790094137687
10
95.511864995756909
20
124.50790094137687
0
LWPOLYLINE
5
142
100
AcDbEntity
8
0
100
AcDbPolyline
90
4
70
1
43
0.0
10
16.092260995756973
20
77.745664941376887
10
18.122260995756978
20
77.745664941376887
10
18.122260995756978
20
79.645664941376879
10
16.092260995756973
20
79.645664941376879
0
LWPOLYLINE
5
143
100
AcDbEntity
8
0
100
AcDbPolyline
90
4
70
1
43
0.0
10
19.592260995756977
20
77.745664941376887
10
19.592260995756977
20
79.645664941376879
10
18.622260995756971
20
79.645664941376879
10
18.622260995756971
20
77.745664941376887
0
LWPOLYLINE
5
144
100
AcDbEntity
8
0
100
AcDbPolyline
90
4
70
1
43
0.0
10
48.011864995756937
20
141.66045894137685
10
50.041864995756924
20
141.66045894137685
10
50.041864995756924
20
143.56045894137682
10
48.011864995756937
20
143.56045894137682
0
LWPOLYLINE
5
145
100
AcDbEntity
8
0
100
AcDbPolyline
90
4
70
1
43
0.0
10
51.51186499575693
20
141.66045894137685
10
51.51186499575693
20
143.56045894137682
10
50.541864995756931
20
143.56045894137682
10
50.541864995756931
20
141.66045894137685
0
LWPOLYLINE
5
146
100
AcDbEntity
8
0
100
AcDbPolyline
90
4
70
1
43
0.0
10
64.511864995756923
20
170.23929794137686
10
66.54186499575691
20
170.23929794137686
10
66.54186499575691
20
172.13929794137684
10
64.511864995756923
20
172.13929794137684
0
LWPOLYLINE
5
147
100
AcDbEntity
8
0
100
AcDbPolyline
90
4
70
1
43
0.0
10
67.041864995756924
20
172.13929794137684
10
67.041864995756924
20
170.23929794137686
10
68.011864995756909
20
170.23929794137686
10
68.011864995756909
20
172.13929794137684
0
LWPOLYLINE
5
148
100
AcDbEntity
8
0
100
AcDbPolyline
90
4
70
1
43
0.0
10
72.747819995756927
20
152.79055494137683
10
70.717819995756926
20
152.79055494137683
10
70.717819995756926
20
150.89055494137685
10
72.747819995756927
20
150.89055494137685
0
LWPOLYLINE
5
149
100
AcDbEntity
8
0
100
AcDbPolyline
90
4
70
1
43
0.0
10
74.217819995756912
20
152.79055494137683
10
73.247819995756927
20
152.79055494137683
10
73.247819995756927
20
150.89055494137685
10
74.217819995756912
20
150.89055494137685
0
LWPOLYLINE
5
150
100
AcDbEntity
8
0
100
AcDbPolyline
90
4
70
1
43
0.0
10
66.265475995756901
20
149.83151194137685
10
66.265475995756901
20
151.73151194137685
10
64.235475995756929
20
151.73151194137685
10
64.235475995756929
20
149.83151194137685
0
LWPOLYLINE
5
151
100
AcDbEntity
8
0
100
AcDbPolyline
90
4
70
1
43
0.0
10
67.735475995756929
20
151.73151194137685
10
66.765475995756915
20
151.73151194137685
10
66.765475995756915
20
149.83151194137685
10
67.735475995756929
20
149.83151194137685
0
LWPOLYLINE
5
152
100
AcDbEntity
8
0
100
AcDbPolyline
90
4
70
1
43
0.0
10
-8.589533004243032
20
152.00789994137685
10
-10.619533004243031
20
152.00789994137685
10
-10.619533004243031
20
150.10789994137684
10
-8.589533004243032
20
150.10789994137684
0
LWPOLYLINE
5
153
100
AcDbEntity
8
0
100
AcDbPolyline
90
4
70
1
43
0.0
10
-8.0895330042430285
20
152.00789994137685
10
-8.0895330042430285
20
150.10789994137684
10
-7.1195330042430305
20
150.10789994137684
10
-7.1195330042430305
20
152.00789994137685
0
LWPOLYLINE
5
154
100
AcDbEntity
8
0
100
AcDbPolyline
90
4
70
1
43
0.0
10
29.077330995756967
20
161.69604494137678
10
27.047330995756973
20
161.69604494137678
10
27.047330995756973
20
159.79604494137681
10
29.077330995756967
20
159.79604494137681
0
LWPOLYLINE
5
155
100
AcDbEntity
8
0
100
AcDbPolyline
90
4
70
1
43
0.0
10
29.577330995756974
20
161.69604494137678
10
29.577330995756974
20
159.79604494137681
10
30.547330995756962
20
159.79604494137681
10
30.547330995756962
20
161.69604494137678
0
LWPOLYLINE
5
156
100
AcDbEntity
8
0
100
AcDbPolyline
90
4
70
1
43
0.0
10
9.5118649957569765
20
74.976502941376907
10
11.541864995756978
20
74.976502941376907
10
11.541864995756978
20
76.876502941376899
10
9.5118649957569765
20
76.876502941376899
0
LWPOLYLINE
5
157
100
AcDbEntity
8
0
100
AcDbPolyline
90
4
70
1
43
0.0
10
12.041864995756978
20
76.876502941376899
10
12.041864995756978
20
74.976502941376907
10
13.011864995756977
20
74.976502941376907
10
13.011864995756977
20
76.876502941376899
0
LWPOLYLINE
5
158
100
AcDbEntity
8
0
100
AcDbPolyline
90
4
70
1
43
0.0
10
38.749364995756949
20
112.05789994137689
10
38.749364995756949
20
112.55789994137689
10
38.574364995756923
20
112.55789994137687
10
38.574364995756923
20
112.05789994137689
0
LWPOLYLINE
5
159
100
AcDbEntity
8
0
100
AcDbPolyline
90
4
70
1
43
0.0
10
38.07436499575693
20
112.05789994137689
10
38.249364995756949
20
112.05789994137689
10
38.249364995756949
20
112.55789994137687
10
38.07436499575693
20
112.55789994137687
0
LWPOLYLINE
5
160
100
AcDbEntity
8
0
100
AcDbPolyline
90
4
70
1
43
0.0
10
37.749364995756942
20
112.55789994137687
10
37.574364995756937
20
112.55789994137687
10
37.574364995756937
20
112.05789994137689
10
37.749364995756942
20
112.05789994137689
0
LWPOLYLINE
5
161
100
AcDbEntity
8
0
100
AcDbPolyline
90
4
70
1
43
0.0
10
37.574364995756937
20
111.13289994137688
10
37.574364995756937
20
110.63289994137688
10
37.749364995756942
20
110.63289994137688
10
37.749364995756942
20
111.13289994137688
0
LWPOLYLINE
5
162
100
AcDbEntity
8
0
100
AcDbPolyline
90
4
70
1
43
0.0
10
38.249364995756949
20
111.13289994137688
10
38.07436499575693
20
111.13289994137688
10
38.07436499575693
20
110.63289994137688
10
38.249364995756949
20
110.63289994137688
0
LWPOLYLINE
5
163
100
AcDbEntity
8
0
100
AcDbPolyline
90
4
70
1
43
0.0
10
38.574364995756923
20
111.13289994137688
10
38.574364995756923
20
110.63289994137688
10
38.749364995756949
20
110.63289994137688
10
38.749364995756949
20
111.13289994137688
0
LWPOLYLINE
5
164
100
AcDbEntity
8
0
100
AcDbPolyline
90
4
70
1
43
0.0
10
42.981864995756958
20
114.93289994137686
10
42.981864995756958
20
116.43289994137687
10
42.481864995756958
20
116.43289994137689
10
42.481864995756958
20
114.93289994137689
0
LWPOLYLINE
5
165
100
AcDbEntity
8
0
100
AcDbPolyline
90
4
70
1
43
0.0
10
86.323501995756914
20
126.92210994137689
10
88.353501995756915
20
126.92210994137689
10
88.353501995756915
20
128.82210994137688
10
86.323501995756914
20
128.82210994137688
0
LWPOLYLINE
5
166
100
AcDbEntity
8
0
100
AcDbPolyline
90
4
70
1
43
0.0
10
89.823501995756914
20
126.92210994137689
10
89.823501995756914
20
128.82210994137688
10
88.853501995756915
20
128.82210994137688
10
88.853501995756915
20
126.92210994137689
0
LWPOLYLINE
5
167
100
AcDbEntity
8
0
100
AcDbPolyline
90
4
70
1
43
0.0
10
39.041864995756953
20
69.507899941376905
10
37.011864995756959
20
69.507899941376905
10
37.011864995756959
20
67.6078999413769
10
39.041864995756953
20
67.6078999413769
0
LWPOLYLINE
5
168
100
AcDbEntity
8
0
100
AcDbPolyline
90
4
70
1
43
0.0
10
39.541864995756953
20
67.6078999413769
10
40.511864995756959
20
67.6078999413769
10
40.511864995756959
20
69.507899941376905
10
39.541864995756953
20
69.507899941376905
0
LWPOLYLINE
5
169
100
AcDbEntity
8
0
100
AcDbPolyline
90
4
70
1
43
0.0
10
46.682383995756965
20
81.176358941376918
10
44.652383995756978
20
81.176358941376918
10
44.652383995756978
20
79.276358941376913
10
46.682383995756965
20
79.276358941376913
0
LWPOLYLINE
5
170
100
AcDbEntity
8
0
100
AcDbPolyline
90
4
70
1
43
0.0
10
47.182383995756965
20
81.176358941376918
10
47.182383995756965
20
79.276358941376913
10
48.152383995756978
20
79.276358941376913
10
48.152383995756978
20
81.176358941376918
0
LWPOLYLINE
5
171
100
AcDbEntity
8
0
100
AcDbPolyline
90
4
70
1
43
0.0
10
23.992977995756966
20
83.161424941376907
10
21.962977995756962
20
83.161424941376907
10
21.962977995756962
20
81.261424941376902
10
23.992977995756966
20
81.261424941376902
0
LWPOLYLINE
5
172
100
AcDbEntity
8
0
100
AcDbPolyline
90
4
70
1
43
0.0
10
25.462977995756955
20
81.261424941376902
10
25.462977995756955
20
83.161424941376907
10
24.492977995756959
20
83.161424941376907
10
24.492977995756959
20
81.261424941376902
0
LWPOLYLINE
5
173
100
AcDbEntity
8
0
100
AcDbPolyline
90
4
70
1
43
0.0
10
41.438646995756926
20
150.00325494137687
10
41.438646995756926
20
151.90325494137684
10
39.408646995756939
20
151.90325494137684
10
39.408646995756939
20
150.00325494137687
0
LWPOLYLINE
5
174
100
AcDbEntity
8
0
100
AcDbPolyline
90
4
70
1
43
0.0
10
41.938646995756926
20
150.00325494137687
10
42.908646995756939
20
150.00325494137687
10
42.908646995756939
20
151.90325494137684
10
41.938646995756926
20
151.90325494137684
0
LWPOLYLINE
5
175
100
AcDbEntity
8
0
100
AcDbPolyline
90
4
70
1
43
0.0
10
39.041864995756939
20
146.50789994137685
10
37.011864995756937
20
146.50789994137685
10
37.011864995756937
20
144.60789994137684
10
39.041864995756939
20
144.60789994137684
0
LWPOLYLINE
5
176
100
AcDbEntity
8
0
100
AcDbPolyline
90
4
70
1
43
0.0
10
39.541864995756939
20
146.50789994137685
10
39.541864995756939
20
144.60789994137684
10
40.511864995756937
20
144.60789994137684
10
40.511864995756937
20
146.50789994137685
0
LWPOLYLINE
5
177
100
AcDbEntity
8
0
100
AcDbPolyline
90
4
70
1
43
0.0
10
54.090750995756949
20
163.95437594137684
10
54.090750995756949
20
165.85437594137682
10
52.060750995756948
20
165.85437594137682
10
52.060750995756948
20
163.95437594137684
0
LWPOLYLINE
5
178
100
AcDbEntity
8
0
100
AcDbPolyline
90
4
70
1
43
0.0
10
54.590750995756935
20
163.95437594137684
10
55.560750995756948
20
163.95437594137684
10
55.560750995756948
20
165.85437594137682
10
54.590750995756935
20
165.85437594137682
0
LWPOLYLINE
5
179
100
AcDbEntity
8
0
100
AcDbPolyline
90
4
70
1
43
0.0
10
17.829872995756972
20
97.328433941376886
10
17.829872995756972
20
99.228433941376878
10
15.799872995756981
20
99.228433941376878
10
15.799872995756981
20
97.328433941376886
0
LWPOLYLINE
5
180
100
AcDbEntity
8
0
100
AcDbPolyline
90
4
70
1
43
0.0
10
19.29987299575696
20
99.228433941376878
10
18.329872995756951
20
99.228433941376878
10
18.329872995756951
20
97.328433941376886
10
19.29987299575696
20
97.328433941376886
0
LWPOLYLINE
5
181
100
AcDbEntity
8
0
100
AcDbPolyline
90
4
70
1
43
0.0
10
11.818252995756957
20
149.83151194137685
10
11.818252995756957
20
151.73151194137685
10
9.7882529957569524
20
151.73151194137685
10
9.7882529957569524
20
149.83151194137685
0
LWPOLYLINE
5
182
100
AcDbEntity
8
0
100
AcDbPolyline
90
4
70
1
43
0.0
10
12.318252995756955
20
151.73151194137685
10
12.318252995756955
20
149.83151194137685
10
13.288252995756956
20
149.83151194137685
10
13.288252995756956
20
151.73151194137685
0
LWPOLYLINE
5
183
100
AcDbEntity
8
0
100
AcDbPolyline
90
4
70
1
43
0.0
10
65.294518995756931
20
90.801944941376888
10
65.294518995756931
20
88.901944941376897
10
67.324518995756932
20
88.901944941376897
10
67.324518995756918
20
90.801944941376888
0
LWPOLYLINE
5
184
100
AcDbEntity
8
0
100
AcDbPolyline
90
4
70
1
43
0.0
10
68.794518995756931
20
90.801944941376888
10
67.824518995756932
20
90.801944941376888
10
67.824518995756932
20
88.901944941376897
10
68.794518995756931
20
88.901944941376897
0
LWPOLYLINE
5
185
100
AcDbEntity
8
0
100
AcDbPolyline
90
4
70
1
43
0.0
10
54.815215995756901
20
147.03458194137684
10
52.785215995756907
20
147.03458194137684
10
52.785215995756907
20
145.13458194137681
10
54.815215995756901
20
145.13458194137681
0
LWPOLYLINE
5
186
100
AcDbEntity
8
0
100
AcDbPolyline
90
4
70
1
43
0.0
10
55.315215995756908
20
147.03458194137684
10
55.315215995756908
20
145.13458194137681
10
56.285215995756907
20
145.13458194137681
10
56.285215995756907
20
147.03458194137684
0
LWPOLYLINE
5
187
100
AcDbEntity
8
0
100
AcDbPolyline
90
4
70
1
43
0.0
10
84.643261995756916
20
150.10790094137687
10
86.673261995756903
20
150.10790094137687
10
86.673261995756903
20
152.00790094137685
10
84.643261995756916
20
152.00790094137685
0
LWPOLYLINE
5
188
100
AcDbEntity
8
0
100
AcDbPolyline
90
4
70
1
43
0.0
10
87.173261995756889
20
150.10790094137687
10
88.143261995756902
20
150.10790094137687
10
88.143261995756902
20
152.00790094137685
10
87.173261995756889
20
152.00790094137685
0
LWPOLYLINE
5
189
100
AcDbEntity
8
0
100
AcDbPolyline
90
4
70
1
43
0.0
10
9.616509995756978
20
125.00468294137684
10
11.646509995756968
20
125.00468294137684
10
11.646509995756968
20
126.90468294137686
10
9.616509995756978
20
126.90468294137686
0
LWPOLYLINE
5
190
100
AcDbEntity
8
0
100
AcDbPolyline
90
4
70
1
43
0.0
10
13.116509995756974
20
125.00468294137684
10
13.116509995756974
20
126.90468294137686
10
12.146509995756967
20
126.90468294137686
10
12.146509995756967
20
125.00468294137684
0
LWPOLYLINE
5
191
100
AcDbEntity
8
0
100
AcDbPolyline
90
4
70
1
43
0.0
10
-7.8503710042430246
20
143.52750394137684
10
-5.8203710042430226
20
143.52750394137684
10
-5.8203710042430226
20
145.42750394137687
10
-7.8503710042430246
20
145.42750394137687
0
LWPOLYLINE
5
192
100
AcDbEntity
8
0
100
AcDbPolyline
90
4
70
1
43
0.0
10
-4.3503710042430255
20
145.42750394137687
10
-5.3203710042430252
20
145.42750394137687
10
-5.3203710042430252
20
143.52750394137684
10
-4.3503710042430255
20
143.52750394137684
0
LWPOLYLINE
5
193
100
AcDbEntity
8
0
100
AcDbPolyline
90
4
70
1
43
0.0
10
27.047330995756987
20
85.419755941376906
10
29.077330995756981
20
85.419755941376906
10
29.077330995756981
20
87.319755941376911
10
27.047330995756987
20
87.319755941376911
0
LWPOLYLINE
5
194
100
AcDbEntity
8
0
100
AcDbPolyline
90
4
70
1
43
0.0
10
30.54733099575698
20
85.419755941376906
10
30.54733099575698
20
87.319755941376911
10
29.577330995756988
20
87.319755941376911
10
29.577330995756988
20
85.419755941376906
0
LWPOLYLINE
5
195
100
AcDbEntity
8
0
100
AcDbPolyline
90
4
70
1
43
0.0
10
84.643261995756916
20
95.1078999413769
10
86.673261995756903
20
95.1078999413769
10
86.673261995756903
20
97.007899941376905
10
84.643261995756916
20
97.007899941376905
0
LWPOLYLINE
5
196
100
AcDbEntity
8
0
100
AcDbPolyline
90
4
70
1
43
0.0
10
87.173261995756889
20
95.1078999413769
10
88.143261995756902
20
95.1078999413769
10
88.143261995756902
20
97.007899941376905
10
87.173261995756889
20
97.007899941376905
0
LWPOLYLINE
5
197
100
AcDbEntity
8
0
100
AcDbPolyline
90
4
70
1
43
0.0
10
39.041864995756931
20
177.60789994137681
10
39.041864995756931
20
179.50789994137688
10
37.01186499575693
20
179.50789994137688
10
37.01186499575693
20
177.6078999413769
0
LWPOLYLINE
5
198
100
AcDbEntity
8
0
100
AcDbPolyline
90
4
70
1
43
0.0
10
39.541864995756924
20
179.50789994137688
10
39.541864995756924
20
177.6078999413769
10
40.51186499575693
20
177.60789994137681
10
40.51186499575693
20
179.50789994137688
0
LWPOLYLINE
5
199
100
AcDbEntity
8
0
100
AcDbPolyline
90
4
70
1
43
0.0
10
39.69186499575693
20
107.55789994137686
10
40.631864995756928
20
107.55789994137686
10
40.631864995756928
20
108.28789994137686
10
39.69186499575693
20
108.28789994137686
0
LWPOLYLINE
5
200
100
AcDbEntity
8
0
100
AcDbPolyline
90
4
70
1
43
0.0
10
40.631864995756928
20
109.70789994137688
10
39.69186499575693
20
109.70789994137688
10
39.69186499575693
20
108.97789994137689
10
40.631864995756928
20
108.97789994137689
0
LWPOLYLINE
5
201
100
AcDbEntity
8
0
100
AcDbPolyline
90
4
70
1
43
0.0
10
48.633866995756975
20
99.584435941376881
10
48.633866995756975
20
97.684435941376861
10
50.663866995756962
20
97.684435941376876
10
50.663866995756962
20
99.584435941376881
0
LWPOLYLINE
5
202
100
AcDbEntity
8
0
100
AcDbPolyline
90
4
70
1
43
0.0
10
52.133866995756961
20
97.684435941376876
10
52.133866995756961
20
99.584435941376881
10
51.163866995756962
20
99.584435941376881
10
51.163866995756962
20
97.684435941376876
0
LWPOLYLINE
5
203
100
AcDbEntity
8
0
100
AcDbPolyline
90
4
70
1
43
0.0
10
38.546864995756955
20
108.6428999413769
10
37.926864995756951
20
108.6428999413769
10
37.926864995756951
20
108.02289994137688
10
38.546864995756955
20
108.02289994137688
0
LWPOLYLINE
5
204
100
AcDbEntity
8
0
100
AcDbPolyline
90
4
70
1
43
0.0
10
37.926864995756951
20
108.92289994137687
10
38.546864995756955
20
108.92289994137687
10
38.546864995756955
20
109.54289994137689
10
37.926864995756951
20
109.54289994137689
0
LWPOLYLINE
5
205
100
AcDbEntity
8
0
100
AcDbPolyline
90
4
70
1
43
0.0
10
42.742253995756926
20
157.00655594137683
10
42.742253995756926
20
155.10655594137683
10
44.772253995756934
20
155.10655594137683
10
44.772253995756934
20
157.00655594137683
0
LWPOLYLINE
5
206
100
AcDbEntity
8
0
100
AcDbPolyline
90
4
70
1
43
0.0
10
46.242253995756933
20
155.10655594137683
10
46.242253995756933
20
157.00655594137683
10
45.272253995756927
20
157.00655594137683
10
45.272253995756927
20
155.10655594137683
0
LWPOLYLINE
5
207
100
AcDbEntity
8
0
100
AcDbPolyline
90
4
70
1
43
0.0
10
70.051720995756909
20
133.89456494137684
10
70.051720995756909
20
135.79456494137685
10
68.021720995756922
20
135.79456494137685
10
68.021720995756922
20
133.89456494137684
0
LWPOLYLINE
5
208
100
AcDbEntity
8
0
100
AcDbPolyline
90
4
70
1
43
0.0
10
70.551720995756924
20
133.89456494137684
10
71.521720995756922
20
133.89456494137684
10
71.521720995756922
20
135.79456494137685
10
70.551720995756924
20
135.79456494137685
0
LWPOLYLINE
5
209
100
AcDbEntity
8
0
100
AcDbPolyline
90
4
70
1
43
0.0
10
40.621864995756937
20
116.43289994137689
10
40.121864995756944
20
116.43289994137689
10
40.121864995756944
20
114.93289994137689
10
40.621864995756937
20
114.93289994137686
0
LWPOLYLINE
5
210
100
AcDbEntity
8
0
100
AcDbPolyline
90
4
70
1
43
0.0
10
1.8537199957569794
20
134.47243394137686
10
-0.17628000424302209
20
134.47243394137686
10
-0.17628000424302182
20
132.57243394137686
10
1.8537199957569794
20
132.57243394137686
0
LWPOLYLINE
5
211
100
AcDbEntity
8
0
100
AcDbPolyline
90
4
70
1
43
0.0
10
3.3237199957569761
20
132.57243394137686
10
3.3237199957569761
20
134.47243394137689
10
2.3537199957569777
20
134.47243394137686
10
2.3537199957569777
20
132.57243394137686
0
LWPOLYLINE
5
212
100
AcDbEntity
8
0
100
AcDbPolyline
90
4
70
1
43
0.0
10
9.511863995756956
20
170.23929794137686
10
11.541863995756948
20
170.23929794137686
10
11.541863995756948
20
172.13929794137684
10
9.511863995756956
20
172.13929794137684
0
LWPOLYLINE
5
213
100
AcDbEntity
8
0
100
AcDbPolyline
90
4
70
1
43
0.0
10
13.011863995756956
20
172.13929794137684
10
12.041863995756952
20
172.13929794137684
10
12.041863995756952
20
170.23929794137686
10
13.011863995756956
20
170.23929794137686
0
LWPOLYLINE
5
214
100
AcDbEntity
8
0
100
AcDbPolyline
90
4
70
1
43
0.0
10
-1.5061620042430173
20
94.215866941376888
10
-1.5061620042430179
20
96.115866941376879
10
-3.5361620042430228
20
96.115866941376879
10
-3.5361620042430228
20
94.215866941376888
0
LWPOLYLINE
5
215
100
AcDbEntity
8
0
100
AcDbPolyline
90
4
70
1
43
0.0
10
-1.0061620042430204
20
96.115866941376879
10
-1.0061620042430197
20
94.215866941376888
10
-0.036162004243025236
20
94.215866941376888
10
-0.036162004243025514
20
96.115866941376879
0
LWPOLYLINE
5
216
100
AcDbEntity
8
0
100
AcDbPolyline
90
4
70
1
43
0.0
10
61.935328995756919
20
136.12990294137688
10
61.935328995756919
20
134.22990294137685
10
63.965328995756906
20
134.22990294137685
10
63.965328995756906
20
136.12990294137688
0
LWPOLYLINE
5
217
100
AcDbEntity
8
0
100
AcDbPolyline
90
4
70
1
43
0.0
10
65.435328995756919
20
136.12990294137688
10
64.46532899575692
20
136.12990294137688
10
64.46532899575692
20
134.22990294137685
10
65.435328995756919
20
134.22990294137685
0
LWPOLYLINE
5
218
100
AcDbEntity
8
0
100
AcDbPolyline
90
4
70
1
43
0.0
10
-10.619533004243017
20
97.007899941376877
10
-10.619533004243017
20
95.107899941376886
10
-8.5895330042430178
20
95.107899941376886
10
-8.5895330042430178
20
97.007899941376877
0
LWPOLYLINE
5
219
100
AcDbEntity
8
0
100
AcDbPolyline
90
4
70
1
43
0.0
10
-8.0895330042430142
20
97.007899941376877
10
-8.0895330042430142
20
95.107899941376886
10
-7.1195330042430163
20
95.107899941376886
10
-7.1195330042430163
20
97.007899941376877
0
LWPOLYLINE
5
220
100
AcDbEntity
8
0
100
AcDbPolyline
90
4
70
1
43
0.0
10
17.95930599575696
20
111.60789994137687
10
19.989305995756965
20
111.60789994137687
10
19.989305995756965
20
113.50789994137688
10
17.95930599575696
20
113.50789994137688
0
LWPOLYLINE
5
221
100
AcDbEntity
8
0
100
AcDbPolyline
90
4
70
1
43
0.0
10
21.459305995756953
20
111.60789994137687
10
21.459305995756953
20
113.50789994137688
10
20.489305995756961
20
113.50789994137688
10
20.489305995756961
20
111.60789994137687
0
LWPOLYLINE
5
222
100
AcDbEntity
8
0
100
AcDbPolyline
90
4
70
1
43
0.0
10
57.931467995756933
20
167.47013594137684
10
59.961467995756919
20
167.47013594137684
10
59.961467995756919
20
169.37013594137682
10
57.931467995756933
20
169.37013594137682
0
LWPOLYLINE
5
223
100
AcDbEntity
8
0
100
AcDbPolyline
90
4
70
1
43
0.0
10
60.461467995756912
20
169.37013594137682
10
60.461467995756912
20
167.47013594137684
10
61.431467995756918
20
167.47013594137684
10
61.431467995756918
20
169.37013594137682
0
LWPOLYLINE
5
224
100
AcDbEntity
8
0
100
AcDbPolyline
90
4
70
1
43
0.0
10
8.729209995756964
20
158.21385594137681
10
8.729209995756964
20
156.31385594137683
10
10.759209995756969
20
156.31385594137683
10
10.759209995756969
20
158.21385594137681
0
LWPOLYLINE
5
225
100
AcDbEntity
8
0
100
AcDbPolyline
90
4
70
1
43
0.0
10
11.259209995756967
20
158.21385594137681
10
11.259209995756967
20
156.31385594137683
10
12.229209995756962
20
156.31385594137683
10
12.229209995756962
20
158.21385594137681
0
LWPOLYLINE
5
226
100
AcDbEntity
8
0
100
AcDbPolyline
90
4
70
1
43
0.0
10
64.511864995756952
20
76.876502941376899
10
64.511864995756952
20
74.976502941376921
10
66.541864995756939
20
74.976502941376921
10
66.541864995756939
20
76.876502941376899
0
LWPOLYLINE
5
227
100
AcDbEntity
8
0
100
AcDbPolyline
90
4
70
1
43
0.0
10
68.011864995756937
20
76.876502941376899
10
67.041864995756953
20
76.876502941376899
10
67.041864995756953
20
74.976502941376921
10
68.011864995756937
20
74.976502941376921
0
LWPOLYLINE
5
228
100
AcDbEntity
8
0
100
AcDbPolyline
90
4
70
1
43
0.0
10
27.755199995756943
20
155.51775694137683
10
25.725199995756949
20
155.51775694137683
10
25.725199995756949
20
153.61775694137685
10
27.755199995756943
20
153.61775694137685
0
LWPOLYLINE
5
229
100
AcDbEntity
8
0
100
AcDbPolyline
90
4
70
1
43
0.0
10
28.255199995756939
20
155.51775694137683
10
28.255199995756939
20
153.61775694137685
10
29.225199995756945
20
153.61775694137685
10
29.225199995756945
20
155.51775694137683
0
LWPOLYLINE
5
230
100
AcDbEntity
8
0
100
AcDbPolyline
90
4
70
1
43
0.0
10
8.6198309957569581
20
163.15592694137683
10
10.649830995756968
20
163.15592694137683
10
10.649830995756968
20
165.05592694137681
10
8.6198309957569581
20
165.05592694137681
0
LWPOLYLINE
5
231
100
AcDbEntity
8
0
100
AcDbPolyline
90
4
70
1
43
0.0
10
11.149830995756966
20
163.15592694137683
10
12.119830995756967
20
163.15592694137683
10
12.119830995756967
20
165.05592694137681
10
11.149830995756966
20
165.05592694137681
0
LWPOLYLINE
5
232
100
AcDbEntity
8
0
100
AcDbPolyline
90
4
70
1
43
0.0
10
58.094422995756929
20
113.50789994137688
10
56.064422995756935
20
113.50789994137688
10
56.064422995756935
20
111.60789994137687
10
58.094422995756929
20
111.60789994137687
0
LWPOLYLINE
5
233
100
AcDbEntity
8
0
100
AcDbPolyline
90
4
70
1
43
0.0
10
59.564422995756928
20
111.60789994137687
10
59.564422995756928
20
113.50789994137688
10
58.594422995756936
20
113.50789994137688
10
58.594422995756936
20
111.60789994137687
0
LWPOLYLINE
5
234
100
AcDbEntity
8
0
100
AcDbPolyline
90
4
70
1
43
0.0
10
26.011864995756952
20
143.56045894137682
10
26.011864995756952
20
141.66045894137685
10
28.041864995756956
20
141.66045894137685
10
28.041864995756956
20
143.56045894137682
0
LWPOLYLINE
5
235
100
AcDbEntity
8
0
100
AcDbPolyline
90
4
70
1
43
0.0
10
29.511864995756948
20
141.66045894137685
10
29.511864995756948
20
143.56045894137682
10
28.541864995756953
20
143.56045894137682
10
28.541864995756953
20
141.66045894137685
0
LWPOLYLINE
5
236
100
AcDbEntity
8
0
100
AcDbPolyline
90
4
70
1
43
0.0
10
34.727654995756943
20
173.81953794137678
10
32.697654995756942
20
173.81953794137678
10
32.697654995756942
20
171.9195379413768
10
34.727654995756943
20
171.9195379413768
0
LWPOLYLINE
5
237
100
AcDbEntity
8
0
100
AcDbPolyline
90
4
70
1
43
0.0
10
35.227654995756943
20
171.9195379413768
10
36.197654995756935
20
171.9195379413768
10
36.197654995756935
20
173.81953794137678
10
35.227654995756943
20
173.81953794137678
0
LWPOLYLINE
5
238
100
AcDbEntity
8
0
100
AcDbPolyline
90
4
70
1
43
0.0
10
61.568545995756942
20
108.73454894137687
10
59.538545995756955
20
108.73454894137687
10
59.538545995756955
20
106.83454894137685
10
61.568545995756942
20
106.83454894137685
0
LWPOLYLINE
5
239
100
AcDbEntity
8
0
100
AcDbPolyline
90
4
70
1
43
0.0
10
62.068545995756949
20
108.73454894137687
10
62.068545995756949
20
106.83454894137685
10
63.038545995756941
20
106.83454894137685
10
63.038545995756941
20
108.73454894137687
0
LWPOLYLINE
5
240
100
AcDbEntity
8
0
100
AcDbPolyline
90
4
70
1
43
0.0
10
83.904099995756923
20
103.58829694137691
10
81.874099995756922
20
103.58829694137691
10
81.874099995756922
20
101.6882969413769
10
83.904099995756923
20
101.6882969413769
0
LWPOLYLINE
5
241
100
AcDbEntity
8
0
100
AcDbPolyline
90
4
70
1
43
0.0
10
85.374099995756922
20
101.6882969413769
10
85.374099995756922
20
103.58829694137691
10
84.404099995756923
20
103.58829694137691
10
84.404099995756923
20
101.6882969413769
0
LWPOLYLINE
5
242
100
AcDbEntity
8
0
100
AcDbPolyline
90
4
70
1
43
0.0
10
34.61508199575696
20
97.112545941376879
10
34.61508199575696
20
95.212545941376888
10
36.645081995756961
20
95.212545941376888
10
36.645081995756961
20
97.112545941376879
0
LWPOLYLINE
5
243
100
AcDbEntity
8
0
100
AcDbPolyline
90
4
70
1
43
0.0
10
38.115081995756952
20
95.212545941376888
10
38.115081995756952
20
97.112545941376879
10
37.145081995756961
20
97.112545941376879
10
37.145081995756961
20
95.212545941376888
0
LWPOLYLINE
5
244
100
AcDbEntity
8
0
100
AcDbPolyline
90
4
70
1
43
0.0
10
78.358339995756921
20
107.55901394137688
10
80.388339995756922
20
107.55901394137688
10
80.388339995756922
20
109.4590139413769
10
78.358339995756921
20
109.4590139413769
0
LWPOLYLINE
5
245
100
AcDbEntity
8
0
100
AcDbPolyline
90
4
70
1
43
0.0
10
80.888339995756922
20
109.4590139413769
10
80.888339995756922
20
107.55901394137688
10
81.858339995756907
20
107.55901394137689
10
81.858339995756907
20
109.45901394137691
0
LWPOLYLINE
5
246
100
AcDbEntity
8
0
100
AcDbPolyline
90
4
70
1
43
0.0
10
66.437218995756922
20
122.11111794137688
10
64.407218995756935
20
122.11111794137688
10
64.407218995756935
20
120.21111794137687
10
66.437218995756922
20
120.21111794137687
0
LWPOLYLINE
5
247
100
AcDbEntity
8
0
100
AcDbPolyline
90
4
70
1
43
0.0
10
67.907218995756921
20
122.11111794137688
10
66.937218995756936
20
122.11111794137688
10
66.937218995756936
20
120.21111794137687
10
67.907218995756921
20
120.21111794137687
0
LWPOLYLINE
5
248
100
AcDbEntity
8
0
100
AcDbPolyline
90
4
70
1
43
0.0
10
11.818252995756966
20
97.284288941376872
10
9.7882529957569684
20
97.284288941376872
10
9.7882529957569702
20
95.38428894137688
10
11.818252995756971
20
95.38428894137688
0
LWPOLYLINE
5
249
100
AcDbEntity
8
0
100
AcDbPolyline
90
4
70
1
43
0.0
10
12.318252995756968
20
95.38428894137688
10
13.288252995756968
20
95.38428894137688
10
13.288252995756963
20
97.284288941376872
10
12.318252995756964
20
97.284288941376872
0
LWPOLYLINE
5
250
100
AcDbEntity
8
0
100
AcDbPolyline
90
4
70
1
43
0.0
10
50.32852899575694
20
93.498043941376892
10
48.298528995756946
20
93.498043941376892
10
48.298528995756946
20
91.598043941376872
10
50.32852899575694
20
91.598043941376872
0
LWPOLYLINE
5
251
100
AcDbEntity
8
0
100
AcDbPolyline
90
4
70
1
43
0.0
10
51.798528995756939
20
91.598043941376872
10
51.798528995756939
20
93.498043941376892
10
50.82852899575694
20
93.498043941376892
10
50.82852899575694
20
91.598043941376872
0
LWPOLYLINE
5
252
100
AcDbEntity
8
0
100
AcDbPolyline
90
4
70
1
43
0.0
10
79.589890995756903
20
150.99993394137687
10
79.589890995756903
20
152.89993394137684
10
77.559890995756916
20
152.89993394137684
10
77.559890995756916
20
150.99993394137687
0
LWPOLYLINE
5
253
100
AcDbEntity
8
0
100
AcDbPolyline
90
4
70
1
43
0.0
10
81.059890995756916
20
150.99993394137687
10
81.059890995756916
20
152.89993394137684
10
80.089890995756889
20
152.89993394137684
10
80.089890995756889
20
150.99993394137687
0
LWPOLYLINE
5
254
100
AcDbEntity
8
0
100
AcDbPolyline
90
4
70
1
43
0.0
10
58.223855995756956
20
147.88736694137685
10
60.25385599575695
20
147.88736694137685
10
60.25385599575695
20
149.78736694137683
10
58.223855995756956
20
149.78736694137683
0
LWPOLYLINE
5
255
100
AcDbEntity
8
0
100
AcDbPolyline
90
4
70
1
43
0.0
10
61.723855995756942
20
149.78736694137683
10
60.753855995756936
20
149.78736694137683
10
60.753855995756936
20
147.88736694137685
10
61.723855995756942
20
147.88736694137685
0
LWPOLYLINE
5
256
100
AcDbEntity
8
0
100
AcDbPolyline
90
4
70
1
43
0.0
10
74.200008995756917
20
114.54336694137687
10
74.200008995756917
20
112.64336694137685
10
76.230008995756918
20
112.64336694137688
10
76.230008995756918
20
114.54336694137687
0
LWPOLYLINE
5
257
100
AcDbEntity
8
0
100
AcDbPolyline
90
4
70
1
43
0.0
10
76.730008995756918
20
112.64336694137688
10
77.700008995756917
20
112.64336694137688
10
77.700008995756917
20
114.54336694137687
10
76.730008995756918
20
114.54336694137687
0
LWPOLYLINE
5
258
100
AcDbEntity
8
0
100
AcDbPolyline
90
4
70
1
43
0.0
10
35.901864995756945
20
114.93289994137686
10
35.901864995756945
20
116.43289994137687
10
35.401864995756952
20
116.43289994137689
10
35.401864995756952
20
114.93289994137689
0
LWPOLYLINE
5
259
100
AcDbEntity
8
0
100
AcDbPolyline
90
4
70
1
43
0.0
10
82.373405995756912
20
132.14841994137689
10
80.343405995756925
20
132.14841994137686
10
80.343405995756925
20
130.24841994137682
10
82.373405995756912
20
130.24841994137685
0
LWPOLYLINE
5
260
100
AcDbEntity
8
0
100
AcDbPolyline
90
4
70
1
43
0.0
10
83.843405995756925
20
132.14841994137689
10
82.873405995756926
20
132.14841994137689
10
82.873405995756926
20
130.24841994137685
10
83.843405995756925
20
130.24841994137685
0
LWPOLYLINE
5
261
100
AcDbEntity
8
0
100
AcDbPolyline
90
4
70
1
43
0.0
10
6.5432089957569719
20
130.23828994137685
10
4.5132089957569725
20
130.23828994137685
10
4.5132089957569725
20
128.33828994137684
10
6.5432089957569728
20
128.33828994137684
0
LWPOLYLINE
5
262
100
AcDbEntity
8
0
100
AcDbPolyline
90
4
70
1
43
0.0
10
8.013208995756969
20
130.23828994137685
10
7.0432089957569701
20
130.23828994137685
10
7.043208995756971
20
128.33828994137684
10
8.013208995756969
20
128.33828994137684
0
LWPOLYLINE
5
263
100
AcDbEntity
8
0
100
AcDbPolyline
90
4
70
1
43
0.0
10
67.433897995756936
20
82.059873941376907
10
67.433897995756936
20
83.959873941376898
10
65.403897995756935
20
83.959873941376898
10
65.403897995756935
20
82.059873941376907
0
LWPOLYLINE
5
264
100
AcDbEntity
8
0
100
AcDbPolyline
90
4
70
1
43
0.0
10
67.933897995756936
20
82.059873941376907
10
68.903897995756935
20
82.059873941376907
10
68.903897995756935
20
83.959873941376898
10
67.933897995756936
20
83.959873941376898
0
LWPOLYLINE
5
265
100
AcDbEntity
8
0
100
AcDbPolyline
90
4
70
1
43
0.0
10
-4.2896770042430239
20
116.86738094137688
10
-6.3196770042430224
20
116.86738094137688
10
-6.3196770042430224
20
114.96738094137686
10
-4.289677004243023
20
114.96738094137689
0
LWPOLYLINE
5
266
100
AcDbEntity
8
0
100
AcDbPolyline
90
4
70
1
43
0.0
10
-2.8196770042430264
20
114.96738094137689
10
-2.8196770042430277
20
116.86738094137688
10
-3.7896770042430261
20
116.86738094137688
10
-3.7896770042430257
20
114.96738094137686
0
LWPOLYLINE
5
267
100
AcDbEntity
8
0
100
AcDbPolyline
90
4
70
1
43
0.0
10
56.064422995756928
20
135.50790094137687
10
56.064422995756928
20
133.60790094137687
10
58.094422995756922
20
133.60790094137687
10
58.094422995756922
20
135.50790094137687
0
LWPOLYLINE
5
268
100
AcDbEntity
8
0
100
AcDbPolyline
90
4
70
1
43
0.0
10
58.594422995756929
20
133.60790094137687
10
59.564422995756921
20
133.60790094137687
10
59.564422995756921
20
135.50790094137687
10
58.594422995756929
20
135.50790094137687
0
LWPOLYLINE
5
269
100
AcDbEntity
8
0
100
AcDbPolyline
90
4
70
1
43
0.0
10
31.281474995756962
20
90.109244941376886
10
33.311474995756953
20
90.109244941376886
10
33.311474995756953
20
92.009244941376878
10
31.281474995756962
20
92.009244941376878
0
LWPOLYLINE
5
270
100
AcDbEntity
8
0
100
AcDbPolyline
90
4
70
1
43
0.0
10
33.811474995756953
20
92.009244941376878
10
33.811474995756953
20
90.109244941376886
10
34.781474995756959
20
90.109244941376886
10
34.781474995756959
20
92.009244941376878
0
LWPOLYLINE
5
271
100
AcDbEntity
8
0
100
AcDbPolyline
90
4
70
1
43
0.0
10
1.8537199957569843
20
114.54336694137687
10
-0.1762800042430171
20
114.54336694137687
10
-0.17628000424301682
20
112.64336694137688
10
1.8537199957569843
20
112.64336694137688
0
LWPOLYLINE
5
272
100
AcDbEntity
8
0
100
AcDbPolyline
90
4
70
1
43
0.0
10
2.3537199957569825
20
114.54336694137687
10
2.3537199957569825
20
112.64336694137685
10
3.3237199957569814
20
112.64336694137688
10
3.3237199957569814
20
114.54336694137687
0
LWPOLYLINE
5
273
100
AcDbEntity
8
0
100
AcDbPolyline
90
4
70
1
43
0.0
10
46.976397995756905
20
159.79604494137681
10
49.006397995756899
20
159.79604494137681
10
49.006397995756899
20
161.69604494137678
10
46.976397995756905
20
161.69604494137678
0
LWPOLYLINE
5
274
100
AcDbEntity
8
0
100
AcDbPolyline
90
4
70
1
43
0.0
10
49.506397995756906
20
159.79604494137681
10
50.476397995756898
20
159.79604494137681
10
50.476397995756898
20
161.69604494137678
10
49.506397995756906
20
161.69604494137678
0
LWPOLYLINE
5
275
100
AcDbEntity
8
0
100
AcDbPolyline
90
4
70
1
43
0.0
10
66.265475995756915
20
95.38428894137688
10
66.265475995756915
20
97.284288941376872
10
64.235475995756943
20
97.284288941376872
10
64.235475995756943
20
95.38428894137688
0
LWPOLYLINE
5
276
100
AcDbEntity
8
0
100
AcDbPolyline
90
4
70
1
43
0.0
10
67.735475995756943
20
95.38428894137688
10
67.735475995756943
20
97.284288941376872
10
66.76547599575693
20
97.284288941376872
10
66.76547599575693
20
95.38428894137688
0
LWPOLYLINE
5
277
100
AcDbEntity
8
0
100
AcDbPolyline
90
4
70
1
43
0.0
10
11.73239799575696
20
145.71989194137683
10
11.73239799575696
20
143.81989194137682
10
13.76239799575696
20
143.81989194137682
10
13.76239799575696
20
145.71989194137683
0
LWPOLYLINE
5
278
100
AcDbEntity
8
0
100
AcDbPolyline
90
4
70
1
43
0.0
10
14.262397995756956
20
143.81989194137682
10
15.232397995756962
20
143.81989194137682
10
15.232397995756957
20
145.71989194137683
10
14.262397995756952
20
145.71989194137683
0
LWPOLYLINE
5
279
100
AcDbEntity
8
0
100
AcDbPolyline
90
4
70
1
43
0.0
10
29.371344995756942
20
167.83944194137683
10
29.371344995756942
20
165.93944194137686
10
31.401344995756929
20
165.93944194137686
10
31.401344995756929
20
167.83944194137683
0
LWPOLYLINE
5
280
100
AcDbEntity
8
0
100
AcDbPolyline
90
4
70
1
43
0.0
10
31.901344995756936
20
167.83944194137683
10
31.901344995756936
20
165.93944194137686
10
32.871344995756935
20
165.93944194137686
10
32.871344995756935
20
167.83944194137683
0
LWPOLYLINE
5
281
100
AcDbEntity
8
0
100
AcDbPolyline
90
4
70
1
43
0.0
10
37.011864995756952
20
100.60789994137687
10
39.041864995756946
20
100.60789994137687
10
39.041864995756946
20
102.50789994137688
10
37.011864995756952
20
102.50789994137688
0
LWPOLYLINE
5
282
100
AcDbEntity
8
0
100
AcDbPolyline
90
4
70
1
43
0.0
10
40.511864995756952
20
102.50789994137688
10
39.541864995756946
20
102.50789994137688
10
39.541864995756946
20
100.60789994137687
10
40.511864995756952
20
100.60789994137687
0
LWPOLYLINE
5
283
100
AcDbEntity
8
0
100
AcDbPolyline
90
4
70
1
43
0.0
10
5.3359089957569772
20
96.225245941376869
10
3.3059089957569761
20
96.225245941376869
10
3.3059089957569765
20
94.325245941376878
10
5.3359089957569772
20
94.325245941376878
0
LWPOLYLINE
5
284
100
AcDbEntity
8
0
100
AcDbPolyline
90
4
70
1
43
0.0
10
6.8059089957569743
20
94.325245941376878
10
6.8059089957569743
20
96.225245941376869
10
5.8359089957569754
20
96.225245941376869
10
5.8359089957569754
20
94.325245941376878
0
LWPOLYLINE
5
285
100
AcDbEntity
8
0
100
AcDbPolyline
90
4
70
1
43
0.0
10
74.200008995756917
20
132.57243394137686
10
76.230008995756904
20
132.57243394137686
10
76.230008995756904
20
134.47243394137689
10
74.200008995756917
20
134.47243394137686
0
LWPOLYLINE
5
286
100
AcDbEntity
8
0
100
AcDbPolyline
90
4
70
1
43
0.0
10
77.700008995756903
20
132.57243394137686
10
77.700008995756903
20
134.47243394137689
10
76.730008995756918
20
134.47243394137686
10
76.730008995756918
20
132.57243394137686
0
LWPOLYLINE
5
287
100
AcDbEntity
8
0
100
AcDbPolyline
90
8
70
1
43
0.0
10
110.76186499575695
20
198.55789994137689
10
-33.238135004243041
20
198.55789994137689
42
0.4142135623730942
10
-36.238135004243041
20
195.55789994137686
10
-36.238135004243048
20
51.55789994137686
42
0.41421356237309936
10
-33.238135004243048
20
48.557899941376839
10
110.76186499575695
20
48.557899941376839
42
0.41421356237309076
10
113.76186499575695
20
51.557899941376839
10
113.76186499575695
20
195.55789994137683
42
0.41421356237309159
0
SPLINE
5
288
100
AcDbEntity
8
0
100
AcDbSpline
70
0
71
2
72
6
73
3
74
0
42
0.000000001
43
0.0000000001
44
0.0000000001
40
0
40
0
40
0
40
1
40
1
40
1
10
92.885399674647374
20
51.448785852164875
30
0
10
92.885399674647374
20
51.298075507850299
30
0
10
92.878296514623685
20
51.235382448405872
30
0
0
SPLINE
5
289
100
AcDbEntity
8
0
100
AcDbSpline
70
0
71
2
72
6
73
3
74
0
42
0.000000001
43
0.0000000001
44
0.0000000001
40
0
40
0
40
0
40
1
40
1
40
1
10
92.878296514623685
20
51.235382448405872
30
0
10
92.871193354599995
20
51.172689388961444
30
0
10
92.833824595087094
20
51.120805557341228
30
0
0
SPLINE
5
290
100
AcDbEntity
8
0
100
AcDbSpline
70
0
71
2
72
6
73
3
74
0
42
0.000000001
43
0.0000000001
44
0.0000000001
40
0
40
0
40
0
40
1
40
1
40
1
10
92.833824595087094
20
51.120805557341228
30
0
10
92.796455835574193
20
51.068921651215206
30
0
10
92.732836296432538
20
51.04112673875774
30
0
0
SPLINE
5
291
100
AcDbEntity
8
0
100
AcDbSpline
70
0
71
2
72
6
73
3
74
0
42
0.000000001
43
0.0000000001
44
0.0000000001
40
0
40
0
40
0
40
1
40
1
40
1
10
92.732836296432538
20
51.04112673875774
30
0
10
92.669216831796689
20
51.013331751794468
30
0
10
92.584596639149709
20
51.013331751794468
30
0
0
SPLINE
5
292
100
AcDbEntity
8
0
100
AcDbSpline
70
0
71
2
72
6
73
3
74
0
42
0.000000001
43
0.0000000001
44
0.0000000001
40
0
40
0
40
0
40
1
40
1
40
1
10
92.584596639149709
20
51.013331751794468
30
0
10
92.504300167434735
20
51.013331751794468
30
0
10
92.440371801727338
20
51.039582531423221
30
0
0
SPLINE
5
293
100
AcDbEntity
8
0
100
AcDbSpline
70
0
71
2
72
6
73
3
74
0
42
0.000000001
43
0.0000000001
44
0.0000000001
40
0
40
0
40
0
40
1
40
1
40
1
10
92.440371801727338
20
51.039582531423221
30
0
10
92.376443454646392
20
51.065833311051975
30
0
10
92.337530543678326
20
51.118334870309482
30
0
0
SPLINE
5
294
100
AcDbEntity
8
0
100
AcDbSpline
70
0
71
2
72
6
73
3
74
0
42
0.000000001
43
0.0000000001
44
0.0000000001
40
0
40
0
40
0
40
1
40
1
40
1
10
92.337530543678326
20
51.118334870309482
30
0
10
92.298617623397035
20
51.17083642956699
30
0
10
92.291205641464217
20
51.232602934808384
30
0
0
SPLINE
5
295
100
AcDbEntity
8
0
100
AcDbSpline
70
0
71
2
72
6
73
3
74
0
42
0.000000001
43
0.0000000001
44
0.0000000001
40
0
40
0
40
0
40
1
40
1
40
1
10
92.291205641464217
20
51.232602934808384
30
0
10
92.283793659531398
20
51.294369514555584
30
0
10
92.283793659531398
20
51.448785852164875
30
0
0
LINE
5
296
100
AcDbEntity
8
0
100
AcDbLine
10
92.283793659531398
20
51.448785852164875
30
0
11
92.283793659531398
21
51.619879047841678
31
0
0
SPLINE
5
297
100
AcDbEntity
8
0
100
AcDbSpline
70
0
71
2
72
6
73
3
74
0
42
0.000000001
43
0.0000000001
44
0.0000000001
40
0
40
0
40
0
40
1
40
1
40
1
10
92.283793659531398
20
51.619879047841678
30
0
10
92.283793659531398
20
51.770589392156253
30
0
10
92.290896810241861
20
51.833282377094875
30
0
0
SPLINE
5
298
100
AcDbEntity
8
0
100
AcDbSpline
70
0
71
2
72
6
73
3
74
0
42
0.000000001
43
0.0000000001
44
0.0000000001
40
0
40
0
40
0
40
1
40
1
40
1
10
92.290896810241861
20
51.833282377094875
30
0
10
92.297999960952325
20
51.895975436539302
30
0
10
92.335368711152
20
51.947859342665325
30
0
0
SPLINE
5
299
100
AcDbEntity
8
0
100
AcDbSpline
70
0
71
2
72
6
73
3
74
0
42
0.000000001
43
0.0000000001
44
0.0000000001
40
0
40
0
40
0
40
1
40
1
40
1
10
92.335368711152
20
51.947859342665325
30
0
10
92.372737461351676
20
51.999743174285541
30
0
10
92.436356981866879
20
52.027538161248813
30
0
0
SPLINE
5
300
100
AcDbEntity
8
0
100
AcDbSpline
70
0
71
2
72
6
73
3
74
0
42
0.000000001
43
0.0000000001
44
0.0000000001
40
0
40
0
40
0
40
1
40
1
40
1
10
92.436356981866879
20
52.027538161248813
30
0
10
92.499976502382083
20
52.055333073706279
30
0
10
92.584596639149709
20
52.055333073706279
30
0
0
SPLINE
5
301
100
AcDbEntity
8
0
100
AcDbSpline
70
0
71
2
72
6
73
3
74
0
42
0.000000001
43
0.0000000001
44
0.0000000001
40
0
40
0
40
0
40
1
40
1
40
1
10
92.584596639149709
20
52.055333073706279
30
0
10
92.664893110864682
20
52.055333073706279
30
0
10
92.72882147657208
20
52.029082294077526
30
0
0
SPLINE
5
302
100
AcDbEntity
8
0
100
AcDbSpline
70
0
71
2
72
6
73
3
74
0
42
0.000000001
43
0.0000000001
44
0.0000000001
40
0
40
0
40
0
40
1
40
1
40
1
10
92.72882147657208
20
52.029082294077526
30
0
10
92.792749842279477
20
52.002831514448772
30
0
10
92.831662734621091
20
51.950329955191265
30
0
0
SPLINE
5
303
100
AcDbEntity
8
0
100
AcDbSpline
70
0
71
2
72
6
73
3
74
0
42
0.000000001
43
0.0000000001
44
0.0000000001
40
0
40
0
40
0
40
1
40
1
40
1
10
92.831662734621091
20
51.950329955191265
30
0
10
92.87057570146851
20
51.897828470439563
30
0
10
92.877987688057942
20
51.836061890692363
30
0
0
SPLINE
5
304
100
AcDbEntity
8
0
100
AcDbSpline
70
0
71
2
72
6
73
3
74
0
42
0.000000001
43
0.0000000001
44
0.0000000001
40
0
40
0
40
0
40
1
40
1
40
1
10
92.877987688057942
20
51.836061890692363
30
0
10
92.885399674647374
20
51.774295385450969
30
0
10
92.885399674647374
20
51.619879047841678
30
0
0
LINE
5
305
100
AcDbEntity
8
0
100
AcDbLine
10
92.885399674647374
20
51.619879047841678
30
0
11
92.885399674647374
21
51.448785852164875
31
0
0
SPLINE
5
306
100
AcDbEntity
8
0
100
AcDbSpline
70
0
71
2
72
6
73
3
74
0
42
0.000000001
43
0.0000000001
44
0.0000000001
40
0
40
0
40
0
40
1
40
1
40
1
10
92.625362565391583
20
51.7773837256142
30
0
10
92.625362565391583
20
51.847179870576511
30
0
10
92.617641752236409
20
51.866636316747318
30
0
0
SPLINE
5
307
100
AcDbEntity
8
0
100
AcDbSpline
70
0
71
2
72
6
73
3
74
0
42
0.000000001
43
0.0000000001
44
0.0000000001
40
0
40
0
40
0
40
1
40
1
40
1
10
92.617641752236409
20
51.866636316747318
30
0
10
92.609920939081235
20
51.886092762918125
30
0
10
92.585831982665582
20
51.886092762918125
30
0
0
SPLINE
5
308
100
AcDbEntity
8
0
100
AcDbSpline
70
0
71
2
72
6
73
3
74
0
42
0.000000001
43
0.0000000001
44
0.0000000001
40
0
40
0
40
0
40
1
40
1
40
1
10
92.585831982665582
20
51.886092762918125
30
0
10
92.565449019544644
20
51.886092762918125
30
0
10
92.554639866226239
20
51.870342310042034
30
0
0
SPLINE
5
309
100
AcDbEntity
8
0
100
AcDbSpline
70
0
71
2
72
6
73
3
74
0
42
0.000000001
43
0.0000000001
44
0.0000000001
40
0
40
0
40
0
40
1
40
1
40
1
10
92.554639866226239
20
51.870342310042034
30
0
10
92.543830750160737
20
51.854591857165943
30
0
10
92.543830750160737
20
51.7773837256142
30
0
0
LINE
5
310
100
AcDbEntity
8
0
100
AcDbLine
10
92.543830750160737
20
51.7773837256142
30
0
11
92.543830750160737
21
51.310428793997417
31
0
0
SPLINE
5
311
100
AcDbEntity
8
0
100
AcDbSpline
70
0
71
2
72
6
73
3
74
0
42
0.000000001
43
0.0000000001
44
0.0000000001
40
0
40
0
40
0
40
1
40
1
40
1
10
92.543830750160737
20
51.310428793997417
30
0
10
92.543830750160737
20
51.223337988824497
30
0
10
92.550933891557975
20
51.202954988450657
30
0
0
SPLINE
5
312
100
AcDbEntity
8
0
100
AcDbSpline
70
0
71
2
72
6
73
3
74
0
42
0.000000001
43
0.0000000001
44
0.0000000001
40
0
40
0
40
0
40
1
40
1
40
1
10
92.550933891557975
20
51.202954988450657
30
0
10
92.558037032955212
20
51.182572062582622
30
0
10
92.583978986018224
20
51.182572062582622
30
0
0
SPLINE
5
313
100
AcDbEntity
8
0
100
AcDbSpline
70
0
71
2
72
6
73
3
74
0
42
0.000000001
43
0.0000000001
44
0.0000000001
40
0
40
0
40
0
40
1
40
1
40
1
10
92.583978986018224
20
51.182572062582622
30
0
10
92.61053859221272
20
51.182572062582622
30
0
10
92.617950578802152
20
51.206043403119693
30
0
0
SPLINE
5
314
100
AcDbEntity
8
0
100
AcDbSpline
70
0
71
2
72
6
73
3
74
0
42
0.000000001
43
0.0000000001
44
0.0000000001
40
0
40
0
40
0
40
1
40
1
40
1
10
92.617950578802152
20
51.206043403119693
30
0
10
92.625362565391583
20
51.229514669150959
30
0
10
92.625362565391583
20
51.317840780586849
30
0
0
LINE
5
315
100
AcDbEntity
8
0
100
AcDbLine
10
92.625362565391583
20
51.317840780586849
30
0
11
92.625362565391583
21
51.7773837256142
31
0
0
LINE
5
316
100
AcDbEntity
8
0
100
AcDbLine
10
93.228821521275563
20
51.853974204034458
30
0
11
93.224497874849362
21
51.781552996010433
31
0
0
SPLINE
5
317
100
AcDbEntity
8
0
100
AcDbSpline
70
0
71
2
72
6
73
3
74
0
42
0.000000001
43
0.0000000001
44
0.0000000001
40
0
40
0
40
0
40
1
40
1
40
1
10
93.224497874849362
20
51.781552996010433
30
0
10
93.257851814501805
20
51.825484375924717
30
0
10
93.298000087612195
20
51.847141276569019
30
0
0
SPLINE
5
318
100
AcDbEntity
8
0
100
AcDbSpline
70
0
71
2
72
6
73
3
74
0
42
0.000000001
43
0.0000000001
44
0.0000000001
40
0
40
0
40
0
40
1
40
1
40
1
10
93.298000087612195
20
51.847141276569019
30
0
10
93.338148286216779
20
51.868798177213321
30
0
10
93.385708471410794
20
51.868798177213321
30
0
0
SPLINE
5
319
100
AcDbEntity
8
0
100
AcDbSpline
70
0
71
2
72
6
73
3
74
0
42
0.000000001
43
0.0000000001
44
0.0000000001
40
0
40
0
40
0
40
1
40
1
40
1
10
93.385708471410794
20
51.868798177213321
30
0
10
93.443769057863278
20
51.868798177213321
30
0
10
93.486079116933865
20
51.837606098026882
30
0
0
SPLINE
5
320
100
AcDbEntity
8
0
100
AcDbSpline
70
0
71
2
72
6
73
3
74
0
42
0.000000001
43
0.0000000001
44
0.0000000001
40
0
40
0
40
0
40
1
40
1
40
1
10
93.486079116933865
20
51.837606098026882
30
0
10
93.528389176004453
20
51.806414018840442
30
0
10
93.538889577262921
20
51.765648092598568
30
0
0
SPLINE
5
321
100
AcDbEntity
8
0
100
AcDbSpline
70
0
71
2
72
6
73
3
74
0
42
0.000000001
43
0.0000000001
44
0.0000000001
40
0
40
0
40
0
40
1
40
1
40
1
10
93.538889577262921
20
51.765648092598568
30
0
10
93.549389829509778
20
51.724882166356693
30
0
10
93.549389829509778
20
51.62729103443111
30
0
0
LINE
5
322
100
AcDbEntity
8
0
100
AcDbLine
10
93.549389829509778
20
51.62729103443111
30
0
11
93.549389829509778
21
51.28201615390266
31
0
0
SPLINE
5
323
100
AcDbEntity
8
0
100
AcDbSpline
70
0
71
2
72
6
73
3
74
0
42
0.000000001
43
0.0000000001
44
0.0000000001
40
0
40
0
40
0
40
1
40
1
40
1
10
93.549389829509778
20
51.28201615390266
30
0
10
93.549389829509778
20
51.170218776435505
30
0
10
93.536109914653821
20
51.122967343301426
30
0
0
SPLINE
5
324
100
AcDbEntity
8
0
100
AcDbSpline
70
0
71
2
72
6
73
3
74
0
42
0.000000001
43
0.0000000001
44
0.0000000001
40
0
40
0
40
0
40
1
40
1
40
1
10
93.536109914653821
20
51.122967343301426
30
0
10
93.522830148809476
20
51.075715984673153
30
0
10
93.481755470507665
20
51.047612171144138
30
0
0
SPLINE
5
325
100
AcDbEntity
8
0
100
AcDbSpline
70
0
71
2
72
6
73
3
74
0
42
0.000000001
43
0.0000000001
44
0.0000000001
40
0
40
0
40
0
40
1
40
1
40
1
10
93.481755470507665
20
51.047612171144138
30
0
10
93.440680717700047
20
51.019508432120929
30
0
10
93.382620205753369
20
51.019508432120929
30
0
0
SPLINE
5
326
100
AcDbEntity
8
0
100
AcDbSpline
70
0
71
2
72
6
73
3
74
0
42
0.000000001
43
0.0000000001
44
0.0000000001
40
0
40
0
40
0
40
1
40
1
40
1
10
93.382620205753369
20
51.019508432120929
30
0
10
93.336295326822324
20
51.019508432120929
30
0
10
93.296764706843419
20
51.041165332765232
30
0
0
SPLINE
5
327
100
AcDbEntity
8
0
100
AcDbSpline
70
0
71
2
72
6
73
3
74
0
42
0.000000001
43
0.0000000001
44
0.0000000001
40
0
40
0
40
0
40
1
40
1
40
1
10
93.296764706843419
20
51.041165332765232
30
0
10
93.257234086864514
20
51.062822233409534
30
0
10
93.224497874849362
20
51.105518307060848
30
0
0
LINE
5
328
100
AcDbEntity
8
0
100
AcDbLine
10
93.224497874849362
20
51.105518307060848
30
0
11
93.224497874849362
21
50.917593728274952
31
0
0
LINE
5
329
100
AcDbEntity
8
0
100
AcDbLine
10
93.224497874849362
20
50.917593728274952
30
0
11
92.974961092346234
21
50.917593728274952
31
0
0
LINE
5
330
100
AcDbEntity
8
0
100
AcDbLine
10
92.974961092346234
20
50.917593728274952
30
0
11
92.974961092346234
21
51.853974204034458
31
0
0
LINE
5
331
100
AcDbEntity
8
0
100
AcDbLine
10
92.974961092346234
20
51.853974204034458
30
0
11
93.228821521275563
21
51.853974204034458
31
0
0
SPLINE
5
332
100
AcDbEntity
8
0
100
AcDbSpline
70
0
71
2
72
6
73
3
74
0
42
0.000000001
43
0.0000000001
44
0.0000000001
40
0
40
0
40
0
40
1
40
1
40
1
10
93.29985304700665
20
51.615555401415477
30
0
10
93.29985304700665
20
51.69152822670425
30
0
10
93.294294019811673
20
51.707587580651889
30
0
0
SPLINE
5
333
100
AcDbEntity
8
0
100
AcDbSpline
70
0
71
2
72
6
73
3
74
0
42
0.000000001
43
0.0000000001
44
0.0000000001
40
0
40
0
40
0
40
1
40
1
40
1
10
93.294294019811673
20
51.707587580651889
30
0
10
93.288735067122502
20
51.723646860093723
30
0
10
93.263410767190976
20
51.723646860093723
30
0
0
SPLINE
5
334
100
AcDbEntity
8
0
100
AcDbSpline
70
0
71
2
72
6
73
3
74
0
42
0.000000001
43
0.0000000001
44
0.0000000001
40
0
40
0
40
0
40
1
40
1
40
1
10
93.263410767190976
20
51.723646860093723
30
0
10
93.238704194896741
20
51.723646860093723
30
0
10
93.231601034873052
20
51.705116893620144
30
0
0
SPLINE
5
335
100
AcDbEntity
8
0
100
AcDbSpline
70
0
71
2
72
6
73
3
74
0
42
0.000000001
43
0.0000000001
44
0.0000000001
40
0
40
0
40
0
40
1
40
1
40
1
10
93.231601034873052
20
51.705116893620144
30
0
10
93.224497874849362
20
51.686586927146564
30
0
10
93.224497874849362
20
51.615555401415477
30
0
0
LINE
5
336
100
AcDbEntity
8
0
100
AcDbLine
10
93.224497874849362
20
51.615555401415477
30
0
11
93.224497874849362
21
51.275839548082004
31
0
0
SPLINE
5
337
100
AcDbEntity
8
0
100
AcDbSpline
70
0
71
2
72
6
73
3
74
0
42
0.000000001
43
0.0000000001
44
0.0000000001
40
0
40
0
40
0
40
1
40
1
40
1
10
93.224497874849362
20
51.275839548082004
30
0
10
93.224497874849362
20
51.201719682187687
30
0
10
93.231909861438794
20
51.183189715714107
30
0
0
SPLINE
5
338
100
AcDbEntity
8
0
100
AcDbSpline
70
0
71
2
72
6
73
3
74
0
42
0.000000001
43
0.0000000001
44
0.0000000001
40
0
40
0
40
0
40
1
40
1
40
1
10
93.231909861438794
20
51.183189715714107
30
0
10
93.239321848028226
20
51.164659749240528
30
0
10
93.264028420322461
20
51.164659749240528
30
0
0
SPLINE
5
339
100
AcDbEntity
8
0
100
AcDbSpline
70
0
71
2
72
6
73
3
74
0
42
0.000000001
43
0.0000000001
44
0.0000000001
40
0
40
0
40
0
40
1
40
1
40
1
10
93.264028420322461
20
51.164659749240528
30
0
10
93.288117339485211
20
51.164659749240528
30
0
10
93.293985193245931
20
51.181645582885395
30
0
0
SPLINE
5
340
100
AcDbEntity
8
0
100
AcDbSpline
70
0
71
2
72
6
73
3
74
0
42
0.000000001
43
0.0000000001
44
0.0000000001
40
0
40
0
40
0
40
1
40
1
40
1
10
93.293985193245931
20
51.181645582885395
30
0
10
93.29985304700665
20
51.198631416530262
30
0
10
93.29985304700665
20
51.264103840560566
30
0
0
LINE
5
341
100
AcDbEntity
8
0
100
AcDbLine
10
93.29985304700665
20
51.264103840560566
30
0
11
93.29985304700665
21
51.615555401415477
31
0
0
LINE
5
342
100
AcDbEntity
8
0
100
AcDbLine
10
94.196703126304669
20
51.429638158054004
30
0
11
93.873664131038709
21
51.429638158054004
31
0
0
LINE
5
343
100
AcDbEntity
8
0
100
AcDbLine
10
93.873664131038709
20
51.429638158054004
30
0
11
93.873664131038709
21
51.252368282050739
31
0
0
SPLINE
5
344
100
AcDbEntity
8
0
100
AcDbSpline
70
0
71
2
72
6
73
3
74
0
42
0.000000001
43
0.0000000001
44
0.0000000001
40
0
40
0
40
0
40
1
40
1
40
1
10
93.873664131038709
20
51.252368282050739
30
0
10
93.873664131038709
20
51.196778382630001
30
0
10
93.881693770759625
20
51.180719103188167
30
0
0
SPLINE
5
345
100
AcDbEntity
8
0
100
AcDbSpline
70
0
71
2
72
6
73
3
74
0
42
0.000000001
43
0.0000000001
44
0.0000000001
40
0
40
0
40
0
40
1
40
1
40
1
10
93.881693770759625
20
51.180719103188167
30
0
10
93.889723410480542
20
51.164659749240528
30
0
10
93.912577023380322
20
51.164659749240528
30
0
0
SPLINE
5
346
100
AcDbEntity
8
0
100
AcDbSpline
70
0
71
2
72
6
73
3
74
0
42
0.000000001
43
0.0000000001
44
0.0000000001
40
0
40
0
40
0
40
1
40
1
40
1
10
93.912577023380322
20
51.164659749240528
30
0
10
93.940989663475079
20
51.164659749240528
30
0
10
93.950563361518903
20
51.185969229311596
30
0
0
SPLINE
5
347
100
AcDbEntity
8
0
100
AcDbSpline
70
0
71
2
72
6
73
3
74
0
42
0.000000001
43
0.0000000001
44
0.0000000001
40
0
40
0
40
0
40
1
40
1
40
1
10
93.950563361518903
20
51.185969229311596
30
0
10
93.960137208574338
20
51.207278709382663
30
0
10
93.960137208574338
20
51.268427561492572
30
0
0
LINE
5
348
100
AcDbEntity
8
0
100
AcDbLine
10
93.960137208574338
20
51.268427561492572
30
0
11
93.960137208574338
21
51.376518945665012
31
0
0
LINE
5
349
100
AcDbEntity
8
0
100
AcDbLine
10
93.960137208574338
20
51.376518945665012
30
0
11
94.196703126304669
21
51.376518945665012
31
0
0
LINE
5
350
100
AcDbEntity
8
0
100
AcDbLine
10
94.196703126304669
20
51.376518945665012
30
0
11
94.196703126304669
21
51.315987746686588
31
0
0
SPLINE
5
351
100
AcDbEntity
8
0
100
AcDbSpline
70
0
71
2
72
6
73
3
74
0
42
0.000000001
43
0.0000000001
44
0.0000000001
40
0
40
0
40
0
40
1
40
1
40
1
10
94.196703126304669
20
51.315987746686588
30
0
10
94.196703126304669
20
51.240014921397815
30
0
10
94.187129279249234
20
51.199249069661747
30
0
0
SPLINE
5
352
100
AcDbEntity
8
0
100
AcDbSpline
70
0
71
2
72
6
73
3
74
0
42
0.000000001
43
0.0000000001
44
0.0000000001
40
0
40
0
40
0
40
1
40
1
40
1
10
94.187129279249234
20
51.199249069661747
30
0
10
94.177555432193799
20
51.158483143419872
30
0
10
94.142348458641095
20
51.112158264488826
30
0
0
SPLINE
5
353
100
AcDbEntity
8
0
100
AcDbSpline
70
0
71
2
72
6
73
3
74
0
42
0.000000001
43
0.0000000001
44
0.0000000001
40
0
40
0
40
0
40
1
40
1
40
1
10
94.142348458641095
20
51.112158264488826
30
0
10
94.107141634100003
20
51.065833311051975
30
0
10
94.053095867507977
20
51.042670946092258
30
0
0
SPLINE
5
354
100
AcDbEntity
8
0
100
AcDbSpline
70
0
71
2
72
6
73
3
74
0
42
0.000000001
43
0.0000000001
44
0.0000000001
40
0
40
0
40
0
40
1
40
1
40
1
10
94.053095867507977
20
51.042670946092258
30
0
10
93.999050249927564
20
51.019508432120929
30
0
10
93.917518397443814
20
51.019508432120929
30
0
0
SPLINE
5
355
100
AcDbEntity
8
0
100
AcDbSpline
70
0
71
2
72
6
73
3
74
0
42
0.000000001
43
0.0000000001
44
0.0000000001
40
0
40
0
40
0
40
1
40
1
40
1
10
93.917518397443814
20
51.019508432120929
30
0
10
93.838457157486005
20
51.019508432120929
30
0
10
93.777925958507581
20
51.04236204502071
30
0
0
SPLINE
5
356
100
AcDbEntity
8
0
100
AcDbSpline
70
0
71
2
72
6
73
3
74
0
42
0.000000001
43
0.0000000001
44
0.0000000001
40
0
40
0
40
0
40
1
40
1
40
1
10
93.777925958507581
20
51.04236204502071
30
0
10
93.717394759529157
20
51.06521565792049
30
0
10
93.683731993310971
20
51.105055104465137
30
0
0
SPLINE
5
357
100
AcDbEntity
8
0
100
AcDbSpline
70
0
71
2
72
6
73
3
74
0
42
0.000000001
43
0.0000000001
44
0.0000000001
40
0
40
0
40
0
40
1
40
1
40
1
10
93.683731993310971
20
51.105055104465137
30
0
10
93.650069227092786
20
51.144894476503978
30
0
10
93.637098362319989
20
51.192763562769542
30
0
0
SPLINE
5
358
100
AcDbEntity
8
0
100
AcDbSpline
70
0
71
2
72
6
73
3
74
0
42
0.000000001
43
0.0000000001
44
0.0000000001
40
0
40
0
40
0
40
1
40
1
40
1
10
93.637098362319989
20
51.192763562769542
30
0
10
93.62412734853558
20
51.2406325745293
30
0
10
93.62412734853558
20
51.332047026128421
30
0
0
LINE
5
359
100
AcDbEntity
8
0
100
AcDbLine
10
93.62412734853558
20
51.332047026128421
30
0
11
93.62412734853558
21
51.571083556384693
31
0
0
SPLINE
5
360
100
AcDbEntity
8
0
100
AcDbSpline
70
0
71
2
72
6
73
3
74
0
42
0.000000001
43
0.0000000001
44
0.0000000001
40
0
40
0
40
0
40
1
40
1
40
1
10
93.62412734853558
20
51.571083556384693
30
0
10
93.62412734853558
20
51.678557287425647
30
0
10
93.653157641761823
20
51.740632619232784
30
0
0
SPLINE
5
361
100
AcDbEntity
8
0
100
AcDbSpline
70
0
71
2
72
6
73
3
74
0
42
0.000000001
43
0.0000000001
44
0.0000000001
40
0
40
0
40
0
40
1
40
1
40
1
10
93.653157641761823
20
51.740632619232784
30
0
10
93.682187934988065
20
51.802708025545726
30
0
10
93.748278012149854
20
51.835753138632427
30
0
0
SPLINE
5
362
100
AcDbEntity
8
0
100
AcDbSpline
70
0
71
2
72
6
73
3
74
0
42
0.000000001
43
0.0000000001
44
0.0000000001
40
0
40
0
40
0
40
1
40
1
40
1
10
93.748278012149854
20
51.835753138632427
30
0
10
93.814368238323254
20
51.868798177213321
30
0
10
93.900223662727399
20
51.868798177213321
30
0
0
SPLINE
5
363
100
AcDbEntity
8
0
100
AcDbSpline
70
0
71
2
72
6
73
3
74
0
42
0.000000001
43
0.0000000001
44
0.0000000001
40
0
40
0
40
0
40
1
40
1
40
1
10
93.900223662727399
20
51.868798177213321
30
0
10
94.005226781242413
20
51.868798177213321
30
0
10
94.073478867881818
20
51.82895880517448
30
0
0
SPLINE
5
364
100
AcDbEntity
8
0
100
AcDbSpline
70
0
71
2
72
6
73
3
74
0
42
0.000000001
43
0.0000000001
44
0.0000000001
40
0
40
0
40
0
40
1
40
1
40
1
10
94.073478867881818
20
51.82895880517448
30
0
10
94.14173080550961
20
51.789119358629833
30
0
10
94.169217040412946
20
51.72333803352798
30
0
0
SPLINE
5
365
100
AcDbEntity
8
0
100
AcDbSpline
70
0
71
2
72
6
73
3
74
0
42
0.000000001
43
0.0000000001
44
0.0000000001
40
0
40
0
40
0
40
1
40
1
40
1
10
94.169217040412946
20
51.72333803352798
30
0
10
94.196703126304669
20
51.657556633920322
30
0
10
94.196703126304669
20
51.538347269863735
30
0
0
LINE
5
366
100
AcDbEntity
8
0
100
AcDbLine
10
94.196703126304669
20
51.538347269863735
30
0
11
94.196703126304669
21
51.429638158054004
31
0
0
LINE
5
367
100
AcDbEntity
8
0
100
AcDbLine
10
93.946548690670056
20
51.563053916663776
30
0
11
93.946548690670056
21
51.622967462510715
31
0
0
SPLINE
5
368
100
AcDbEntity
8
0
100
AcDbSpline
70
0
71
2
72
6
73
3
74
0
42
0.000000001
43
0.0000000001
44
0.0000000001
40
0
40
0
40
0
40
1
40
1
40
1
10
93.946548690670056
20
51.622967462510715
30
0
10
93.946548690670056
20
51.686586927146564
30
0
10
93.939754357212109
20
51.705116893620144
30
0
0
SPLINE
5
369
100
AcDbEntity
8
0
100
AcDbSpline
70
0
71
2
72
6
73
3
74
0
42
0.000000001
43
0.0000000001
44
0.0000000001
40
0
40
0
40
0
40
1
40
1
40
1
10
93.939754357212109
20
51.705116893620144
30
0
10
93.932960023754163
20
51.723646860093723
30
0
10
93.911959370248837
20
51.723646860093723
30
0
0
SPLINE
5
370
100
AcDbEntity
8
0
100
AcDbSpline
70
0
71
2
72
6
73
3
74
0
42
0.000000001
43
0.0000000001
44
0.0000000001
40
0
40
0
40
0
40
1
40
1
40
1
10
93.911959370248837
20
51.723646860093723
30
0
10
93.886017491691632
20
51.723646860093723
30
0
10
93.87984081136517
20
51.707896407217632
30
0
0
SPLINE
5
371
100
AcDbEntity
8
0
100
AcDbSpline
70
0
71
2
72
6
73
3
74
0
42
0.000000001
43
0.0000000001
44
0.0000000001
40
0
40
0
40
0
40
1
40
1
40
1
10
93.87984081136517
20
51.707896407217632
30
0
10
93.873664131038709
20
51.692145954341541
30
0
10
93.873664131038709
20
51.622967462510715
30
0
0
LINE
5
372
100
AcDbEntity
8
0
100
AcDbLine
10
93.873664131038709
20
51.622967462510715
30
0
11
93.873664131038709
21
51.563053916663776
31
0
0
LINE
5
373
100
AcDbEntity
8
0
100
AcDbLine
10
93.873664131038709
20
51.563053916663776
30
0
11
93.946548690670056
21
51.563053916663776
31
0
0
LINE
5
374
100
AcDbEntity
8
0
100
AcDbLine
10
94.53209518420033
20
51.853974204034458
30
0
11
94.527771612279935
21
51.778464655847202
31
0
0
SPLINE
5
375
100
AcDbEntity
8
0
100
AcDbSpline
70
0
71
2
72
6
73
3
74
0
42
0.000000001
43
0.0000000001
44
0.0000000001
40
0
40
0
40
0
40
1
40
1
40
1
10
94.527771612279935
20
51.778464655847202
30
0
10
94.55494879710011
20
51.823631416530262
30
0
10
94.594170590513272
20
51.846214796871791
30
0
0
SPLINE
5
376
100
AcDbEntity
8
0
100
AcDbSpline
70
0
71
2
72
6
73
3
74
0
42
0.000000001
43
0.0000000001
44
0.0000000001
40
0
40
0
40
0
40
1
40
1
40
1
10
94.594170590513272
20
51.846214796871791
30
0
10
94.633392383926434
20
51.868798177213321
30
0
10
94.684658636920972
20
51.868798177213321
30
0
0
SPLINE
5
377
100
AcDbEntity
8
0
100
AcDbSpline
70
0
71
2
72
6
73
3
74
0
42
0.000000001
43
0.0000000001
44
0.0000000001
40
0
40
0
40
0
40
1
40
1
40
1
10
94.684658636920972
20
51.868798177213321
30
0
10
94.748895754688306
20
51.868798177213321
30
0
10
94.789661755435986
20
51.838532577724109
30
0
0
SPLINE
5
378
100
AcDbEntity
8
0
100
AcDbSpline
70
0
71
2
72
6
73
3
74
0
42
0.000000001
43
0.0000000001
44
0.0000000001
40
0
40
0
40
0
40
1
40
1
40
1
10
94.789661755435986
20
51.838532577724109
30
0
10
94.830427458160443
20
51.808266978234897
30
0
10
94.842163314693494
20
51.762250925869594
30
0
0
SPLINE
5
379
100
AcDbEntity
8
0
100
AcDbSpline
70
0
71
2
72
6
73
3
74
0
42
0.000000001
43
0.0000000001
44
0.0000000001
40
0
40
0
40
0
40
1
40
1
40
1
10
94.842163314693494
20
51.762250925869594
30
0
10
94.85389887320332
20
51.716234873504291
30
0
10
94.85389887320332
20
51.608761142463337
30
0
0
LINE
5
380
100
AcDbEntity
8
0
100
AcDbLine
10
94.85389887320332
20
51.608761142463337
30
0
11
94.85389887320332
21
51.034332405299793
31
0
0
LINE
5
381
100
AcDbEntity
8
0
100
AcDbLine
10
94.85389887320332
20
51.034332405299793
30
0
11
94.604362090700192
21
51.034332405299793
31
0
0
LINE
5
382
100
AcDbEntity
8
0
100
AcDbLine
10
94.604362090700192
20
51.034332405299793
30
0
11
94.604362090700192
21
51.60196680900539
31
0
0
SPLINE
5
383
100
AcDbEntity
8
0
100
AcDbSpline
70
0
71
2
72
6
73
3
74
0
42
0.000000001
43
0.0000000001
44
0.0000000001
40
0
40
0
40
0
40
1
40
1
40
1
10
94.604362090700192
20
51.60196680900539
30
0
10
94.604362090700192
20
51.686586927146564
30
0
10
94.598803063505216
20
51.705116893620144
30
0
0
SPLINE
5
384
100
AcDbEntity
8
0
100
AcDbSpline
70
0
71
2
72
6
73
3
74
0
42
0.000000001
43
0.0000000001
44
0.0000000001
40
0
40
0
40
0
40
1
40
1
40
1
10
94.598803063505216
20
51.705116893620144
30
0
10
94.593244185321851
20
51.723646860093723
30
0
10
94.567919810884518
20
51.723646860093723
30
0
0
SPLINE
5
385
100
AcDbEntity
8
0
100
AcDbSpline
70
0
71
2
72
6
73
3
74
0
42
0.000000001
43
0.0000000001
44
0.0000000001
40
0
40
0
40
0
40
1
40
1
40
1
10
94.567919810884518
20
51.723646860093723
30
0
10
94.541360279195828
20
51.723646860093723
30
0
10
94.534565945737882
20
51.702337380022655
30
0
0
SPLINE
5
386
100
AcDbEntity
8
0
100
AcDbSpline
70
0
71
2
72
6
73
3
74
0
42
0.000000001
43
0.0000000001
44
0.0000000001
40
0
40
0
40
0
40
1
40
1
40
1
10
94.534565945737882
20
51.702337380022655
30
0
10
94.527771612279935
20
51.681027974457393
30
0
10
94.527771612279935
20
51.588378142089496
30
0
0
LINE
5
387
100
AcDbEntity
8
0
100
AcDbLine
10
94.527771612279935
20
51.588378142089496
30
0
11
94.527771612279935
21
51.034332405299793
31
0
0
LINE
5
388
100
AcDbEntity
8
0
100
AcDbLine
10
94.527771612279935
20
51.034332405299793
30
0
11
94.278234829776807
21
51.034332405299793
31
0
0
LINE
5
389
100
AcDbEntity
8
0
100
AcDbLine
10
94.278234829776807
20
51.034332405299793
30
0
11
94.278234829776807
21
51.853974204034458
31
0
0
LINE
5
390
100
AcDbEntity
8
0
100
AcDbLine
10
94.278234829776807
20
51.853974204034458
30
0
11
94.53209518420033
21
51.853974204034458
31
0
0
LINE
5
391
100
AcDbEntity
8
0
100
AcDbLine
10
95.788426687591596
20
52.03433249470676
30
0
11
95.656091859214825
21
51.034332405299793
31
0
0
LINE
5
392
100
AcDbEntity
8
0
100
AcDbLine
10
95.656091859214825
20
51.034332405299793
30
0
11
95.261095156543774
21
51.034332405299793
31
0
0
LINE
5
393
100
AcDbEntity
8
0
100
AcDbLine
10
95.261095156543774
20
51.034332405299793
30
0
11
95.110847940319104
21
52.03433249470676
31
0
0
LINE
5
394
100
AcDbEntity
8
0
100
AcDbLine
10
95.110847940319104
20
52.03433249470676
30
0
11
95.385091295116467
21
52.03433249470676
31
0
0
SPLINE
5
395
100
AcDbEntity
8
0
100
AcDbSpline
70
0
71
2
72
6
73
3
74
0
42
0.000000001
43
0.0000000001
44
0.0000000001
40
0
40
0
40
0
40
1
40
1
40
1
10
95.385091295116467
20
52.03433249470676
30
0
10
95.432902564876599
20
51.621143411368976
30
0
10
95.453343381755872
20
51.335135440797458
30
0
0
SPLINE
5
396
100
AcDbEntity
8
0
100
AcDbSpline
70
0
71
2
72
6
73
3
74
0
42
0.000000001
43
0.0000000001
44
0.0000000001
40
0
40
0
40
0
40
1
40
1
40
1
10
95.453343381755872
20
51.335135440797458
30
0
10
95.47349481808476
20
51.624193083018909
30
0
10
95.496126403682752
20
51.848376657337795
30
0
0
LINE
5
397
100
AcDbEntity
8
0
100
AcDbLine
10
95.496126403682752
20
51.848376657337795
30
0
11
95.514183332794232
21
52.03433249470676
31
0
0
LINE
5
398
100
AcDbEntity
8
0
100
AcDbLine
10
95.514183332794232
20
52.03433249470676
30
0
11
95.788426687591596
21
52.03433249470676
31
0
0
LINE
5
399
100
AcDbEntity
8
0
100
AcDbLine
10
96.390032162540479
20
51.429638158054004
30
0
11
96.066993167274518
21
51.429638158054004
31
0
0
LINE
5
400
100
AcDbEntity
8
0
100
AcDbLine
10
96.066993167274518
20
51.429638158054004
30
0
11
96.066993167274518
21
51.252368282050739
31
0
0
SPLINE
5
401
100
AcDbEntity
8
0
100
AcDbSpline
70
0
71
2
72
6
73
3
74
0
42
0.000000001
43
0.0000000001
44
0.0000000001
40
0
40
0
40
0
40
1
40
1
40
1
10
96.066993167274518
20
51.252368282050739
30
0
10
96.066993167274518
20
51.196778382630001
30
0
10
96.075023105018658
20
51.180719103188167
30
0
0
SPLINE
5
402
100
AcDbEntity
8
0
100
AcDbSpline
70
0
71
2
72
6
73
3
74
0
42
0.000000001
43
0.0000000001
44
0.0000000001
40
0
40
0
40
0
40
1
40
1
40
1
10
96.075023105018658
20
51.180719103188167
30
0
10
96.083052744739575
20
51.164659749240528
30
0
10
96.105906357639356
20
51.164659749240528
30
0
0
SPLINE
5
403
100
AcDbEntity
8
0
100
AcDbSpline
70
0
71
2
72
6
73
3
74
0
42
0.000000001
43
0.0000000001
44
0.0000000001
40
0
40
0
40
0
40
1
40
1
40
1
10
96.105906357639356
20
51.164659749240528
30
0
10
96.134318699710889
20
51.164659749240528
30
0
10
96.143892695777936
20
51.185969229311596
30
0
0
SPLINE
5
404
100
AcDbEntity
8
0
100
AcDbSpline
70
0
71
2
72
6
73
3
74
0
42
0.000000001
43
0.0000000001
44
0.0000000001
40
0
40
0
40
0
40
1
40
1
40
1
10
96.143892695777936
20
51.185969229311596
30
0
10
96.153466393821759
20
51.207278709382663
30
0
10
96.153466393821759
20
51.268427561492572
30
0
0
LINE
5
405
100
AcDbEntity
8
0
100
AcDbLine
10
96.153466393821759
20
51.268427561492572
30
0
11
96.153466393821759
21
51.376518945665012
31
0
0
LINE
5
406
100
AcDbEntity
8
0
100
AcDbLine
10
96.153466393821759
20
51.376518945665012
30
0
11
96.390032162540479
21
51.376518945665012
31
0
0
LINE
5
407
100
AcDbEntity
8
0
100
AcDbLine
10
96.390032162540479
20
51.376518945665012
30
0
11
96.390032162540479
21
51.315987746686588
31
0
0
SPLINE
5
408
100
AcDbEntity
8
0
100
AcDbSpline
70
0
71
2
72
6
73
3
74
0
42
0.000000001
43
0.0000000001
44
0.0000000001
40
0
40
0
40
0
40
1
40
1
40
1
10
96.390032162540479
20
51.315987746686588
30
0
10
96.390032162540479
20
51.240014921397815
30
0
10
96.380458464496655
20
51.199249069661747
30
0
0
SPLINE
5
409
100
AcDbEntity
8
0
100
AcDbSpline
70
0
71
2
72
6
73
3
74
0
42
0.000000001
43
0.0000000001
44
0.0000000001
40
0
40
0
40
0
40
1
40
1
40
1
10
96.380458464496655
20
51.199249069661747
30
0
10
96.370884468429608
20
51.158483143419872
30
0
10
96.335677792900128
20
51.112158264488826
30
0
0
SPLINE
5
410
100
AcDbEntity
8
0
100
AcDbSpline
70
0
71
2
72
6
73
3
74
0
42
0.000000001
43
0.0000000001
44
0.0000000001
40
0
40
0
40
0
40
1
40
1
40
1
10
96.335677792900128
20
51.112158264488826
30
0
10
96.300470819347424
20
51.065833311051975
30
0
10
96.246425201767011
20
51.042670946092258
30
0
0
SPLINE
5
411
100
AcDbEntity
8
0
100
AcDbSpline
70
0
71
2
72
6
73
3
74
0
42
0.000000001
43
0.0000000001
44
0.0000000001
40
0
40
0
40
0
40
1
40
1
40
1
10
96.246425201767011
20
51.042670946092258
30
0
10
96.192379286163373
20
51.019508432120929
30
0
10
96.110847582691235
20
51.019508432120929
30
0
0
SPLINE
5
412
100
AcDbEntity
8
0
100
AcDbSpline
70
0
71
2
72
6
73
3
74
0
42
0.000000001
43
0.0000000001
44
0.0000000001
40
0
40
0
40
0
40
1
40
1
40
1
10
96.110847582691235
20
51.019508432120929
30
0
10
96.031786491745038
20
51.019508432120929
30
0
10
95.971255292766614
20
51.04236204502071
30
0
0
SPLINE
5
413
100
AcDbEntity
8
0
100
AcDbSpline
70
0
71
2
72
6
73
3
74
0
42
0.000000001
43
0.0000000001
44
0.0000000001
40
0
40
0
40
0
40
1
40
1
40
1
10
95.971255292766614
20
51.04236204502071
30
0
10
95.91072409378819
20
51.06521565792049
30
0
10
95.877061178558392
20
51.105055104465137
30
0
0
SPLINE
5
414
100
AcDbEntity
8
0
100
AcDbSpline
70
0
71
2
72
6
73
3
74
0
42
0.000000001
43
0.0000000001
44
0.0000000001
40
0
40
0
40
0
40
1
40
1
40
1
10
95.877061178558392
20
51.105055104465137
30
0
10
95.843398561351819
20
51.144894476503978
30
0
10
95.830427398555798
20
51.192763562769542
30
0
0
SPLINE
5
415
100
AcDbEntity
8
0
100
AcDbSpline
70
0
71
2
72
6
73
3
74
0
42
0.000000001
43
0.0000000001
44
0.0000000001
40
0
40
0
40
0
40
1
40
1
40
1
10
95.830427398555798
20
51.192763562769542
30
0
10
95.817456533783002
20
51.2406325745293
30
0
10
95.817456533783002
20
51.332047026128421
30
0
0
LINE
5
416
100
AcDbEntity
8
0
100
AcDbLine
10
95.817456533783002
20
51.332047026128421
30
0
11
95.817456533783002
21
51.571083556384693
31
0
0
SPLINE
5
417
100
AcDbEntity
8
0
100
AcDbSpline
70
0
71
2
72
6
73
3
74
0
42
0.000000001
43
0.0000000001
44
0.0000000001
40
0
40
0
40
0
40
1
40
1
40
1
10
95.817456533783002
20
51.571083556384693
30
0
10
95.817456533783002
20
51.678557287425647
30
0
10
95.846486677997632
20
51.740632619232784
30
0
0
SPLINE
5
418
100
AcDbEntity
8
0
100
AcDbSpline
70
0
71
2
72
6
73
3
74
0
42
0.000000001
43
0.0000000001
44
0.0000000001
40
0
40
0
40
0
40
1
40
1
40
1
10
95.846486677997632
20
51.740632619232784
30
0
10
95.875517120235486
20
51.802708025545726
30
0
10
95.941607346408887
20
51.835753138632427
30
0
0
SPLINE
5
419
100
AcDbEntity
8
0
100
AcDbSpline
70
0
71
2
72
6
73
3
74
0
42
0.000000001
43
0.0000000001
44
0.0000000001
40
0
40
0
40
0
40
1
40
1
40
1
10
95.941607346408887
20
51.835753138632427
30
0
10
96.007697572582288
20
51.868798177213321
30
0
10
96.093552996986432
20
51.868798177213321
30
0
0
SPLINE
5
420
100
AcDbEntity
8
0
100
AcDbSpline
70
0
71
2
72
6
73
3
74
0
42
0.000000001
43
0.0000000001
44
0.0000000001
40
0
40
0
40
0
40
1
40
1
40
1
10
96.093552996986432
20
51.868798177213321
30
0
10
96.198556115501447
20
51.868798177213321
30
0
10
96.266807904117627
20
51.82895880517448
30
0
0
SPLINE
5
421
100
AcDbEntity
8
0
100
AcDbSpline
70
0
71
2
72
6
73
3
74
0
42
0.000000001
43
0.0000000001
44
0.0000000001
40
0
40
0
40
0
40
1
40
1
40
1
10
96.266807904117627
20
51.82895880517448
30
0
10
96.335059990757031
20
51.789119358629833
30
0
10
96.362546076648755
20
51.72333803352798
30
0
0
SPLINE
5
422
100
AcDbEntity
8
0
100
AcDbSpline
70
0
71
2
72
6
73
3
74
0
42
0.000000001
43
0.0000000001
44
0.0000000001
40
0
40
0
40
0
40
1
40
1
40
1
10
96.362546076648755
20
51.72333803352798
30
0
10
96.390032162540479
20
51.657556633920322
30
0
10
96.390032162540479
20
51.538347269863735
30
0
0
LINE
5
423
100
AcDbEntity
8
0
100
AcDbLine
10
96.390032162540479
20
51.538347269863735
30
0
11
96.390032162540479
21
51.429638158054004
31
0
0
LINE
5
424
100
AcDbEntity
8
0
100
AcDbLine
10
96.139877726905866
20
51.563053916663776
30
0
11
96.139877726905866
21
51.622967462510715
31
0
0
SPLINE
5
425
100
AcDbEntity
8
0
100
AcDbSpline
70
0
71
2
72
6
73
3
74
0
42
0.000000001
43
0.0000000001
44
0.0000000001
40
0
40
0
40
0
40
1
40
1
40
1
10
96.139877726905866
20
51.622967462510715
30
0
10
96.139877726905866
20
51.686586927146564
30
0
10
96.133083393447919
20
51.705116893620144
30
0
0
SPLINE
5
426
100
AcDbEntity
8
0
100
AcDbSpline
70
0
71
2
72
6
73
3
74
0
42
0.000000001
43
0.0000000001
44
0.0000000001
40
0
40
0
40
0
40
1
40
1
40
1
10
96.133083393447919
20
51.705116893620144
30
0
10
96.126289059989972
20
51.723646860093723
30
0
10
96.105288555496259
20
51.723646860093723
30
0
0
SPLINE
5
427
100
AcDbEntity
8
0
100
AcDbSpline
70
0
71
2
72
6
73
3
74
0
42
0.000000001
43
0.0000000001
44
0.0000000001
40
0
40
0
40
0
40
1
40
1
40
1
10
96.105288555496259
20
51.723646860093723
30
0
10
96.079346527927441
20
51.723646860093723
30
0
10
96.073169996612592
20
51.707896407217632
30
0
0
SPLINE
5
428
100
AcDbEntity
8
0
100
AcDbSpline
70
0
71
2
72
6
73
3
74
0
42
0.000000001
43
0.0000000001
44
0.0000000001
40
0
40
0
40
0
40
1
40
1
40
1
10
96.073169996612592
20
51.707896407217632
30
0
10
96.066993167274518
20
51.692145954341541
30
0
10
96.066993167274518
20
51.622967462510715
30
0
0
LINE
5
429
100
AcDbEntity
8
0
100
AcDbLine
10
96.066993167274518
20
51.622967462510715
30
0
11
96.066993167274518
21
51.563053916663776
31
0
0
LINE
5
430
100
AcDbEntity
8
0
100
AcDbLine
10
96.066993167274518
20
51.563053916663776
30
0
11
96.139877726905866
21
51.563053916663776
31
0
0
LINE
5
431
100
AcDbEntity
8
0
100
AcDbLine
10
96.73468946444325
20
51.963300968975673
30
0
11
96.73468946444325
21
51.834208931297908
31
0
0
LINE
5
432
100
AcDbEntity
8
0
100
AcDbLine
10
96.73468946444325
20
51.834208931297908
30
0
11
96.80201499687962
21
51.834208931297908
31
0
0
LINE
5
433
100
AcDbEntity
8
0
100
AcDbLine
10
96.80201499687962
20
51.834208931297908
30
0
11
96.80201499687962
21
51.704499240488659
31
0
0
LINE
5
434
100
AcDbEntity
8
0
100
AcDbLine
10
96.80201499687962
20
51.704499240488659
30
0
11
96.73468946444325
21
51.704499240488659
31
0
0
LINE
5
435
100
AcDbEntity
8
0
100
AcDbLine
10
96.73468946444325
20
51.704499240488659
30
0
11
96.73468946444325
21
51.265956874460826
31
0
0
SPLINE
5
436
100
AcDbEntity
8
0
100
AcDbSpline
70
0
71
2
72
6
73
3
74
0
42
0.000000001
43
0.0000000001
44
0.0000000001
40
0
40
0
40
0
40
1
40
1
40
1
10
96.73468946444325
20
51.265956874460826
30
0
10
96.73468946444325
20
51.185042749614368
30
0
10
96.743027856224103
20
51.175777729124675
30
0
0
SPLINE
5
437
100
AcDbEntity
8
0
100
AcDbSpline
70
0
71
2
72
6
73
3
74
0
42
0.000000001
43
0.0000000001
44
0.0000000001
40
0
40
0
40
0
40
1
40
1
40
1
10
96.743027856224103
20
51.175777729124675
30
0
10
96.75136654602818
20
51.166512783140789
30
0
10
96.812515249126477
20
51.166512783140789
30
0
0
LINE
5
438
100
AcDbEntity
8
0
100
AcDbLine
10
96.812515249126477
20
51.166512783140789
30
0
11
96.812515249126477
21
51.034332405299793
31
0
0
LINE
5
439
100
AcDbEntity
8
0
100
AcDbLine
10
96.812515249126477
20
51.034332405299793
30
0
11
96.711835851543469
21
51.034332405299793
31
0
0
SPLINE
5
440
100
AcDbEntity
8
0
100
AcDbSpline
70
0
71
2
72
6
73
3
74
0
42
0.000000001
43
0.0000000001
44
0.0000000001
40
0
40
0
40
0
40
1
40
1
40
1
10
96.711835851543469
20
51.034332405299793
30
0
10
96.626597931259198
20
51.034332405299793
30
0
10
96.590155651443524
20
51.041435490817676
30
0
0
SPLINE
5
441
100
AcDbEntity
8
0
100
AcDbSpline
70
0
71
2
72
6
73
3
74
0
42
0.000000001
43
0.0000000001
44
0.0000000001
40
0
40
0
40
0
40
1
40
1
40
1
10
96.590155651443524
20
51.041435490817676
30
0
10
96.553713669651074
20
51.048538725347171
30
0
10
96.52591853367619
20
51.07417185184444
30
0
0
SPLINE
5
442
100
AcDbEntity
8
0
100
AcDbSpline
70
0
71
2
72
6
73
3
74
0
42
0.000000001
43
0.0000000001
44
0.0000000001
40
0
40
0
40
0
40
1
40
1
40
1
10
96.52591853367619
20
51.07417185184444
30
0
10
96.49812369572453
20
51.099804903835903
30
0
10
96.491329362266583
20
51.132850016922603
30
0
0
SPLINE
5
443
100
AcDbEntity
8
0
100
AcDbSpline
70
0
71
2
72
6
73
3
74
0
42
0.000000001
43
0.0000000001
44
0.0000000001
40
0
40
0
40
0
40
1
40
1
40
1
10
96.491329362266583
20
51.132850016922603
30
0
10
96.484535028808637
20
51.165895130009304
30
0
10
96.484535028808637
20
51.288192834229122
30
0
0
LINE
5
444
100
AcDbEntity
8
0
100
AcDbLine
10
96.484535028808637
20
51.288192834229122
30
0
11
96.484535028808637
21
51.704499240488659
31
0
0
LINE
5
445
100
AcDbEntity
8
0
100
AcDbLine
10
96.484535028808637
20
51.704499240488659
30
0
11
96.430798163288159
21
51.704499240488659
31
0
0
LINE
5
446
100
AcDbEntity
8
0
100
AcDbLine
10
96.430798163288159
20
51.704499240488659
30
0
11
96.430798163288159
21
51.834208931297908
31
0
0
LINE
5
447
100
AcDbEntity
8
0
100
AcDbLine
10
96.430798163288159
20
51.834208931297908
30
0
11
96.484535028808637
21
51.834208931297908
31
0
0
LINE
5
448
100
AcDbEntity
8
0
100
AcDbLine
10
96.484535028808637
20
51.834208931297908
30
0
11
96.484535028808637
21
51.963300968975673
31
0
0
LINE
5
449
100
AcDbEntity
8
0
100
AcDbLine
10
96.484535028808637
20
51.963300968975673
30
0
11
96.73468946444325
21
51.963300968975673
31
0
0
LINE
5
450
100
AcDbEntity
8
0
100
AcDbLine
10
97.120112767093701
20
51.963300968975673
30
0
11
97.120112767093701
21
51.834208931297908
31
0
0
LINE
5
451
100
AcDbEntity
8
0
100
AcDbLine
10
97.120112767093701
20
51.834208931297908
30
0
11
97.187438299530072
21
51.834208931297908
31
0
0
LINE
5
452
100
AcDbEntity
8
0
100
AcDbLine
10
97.187438299530072
20
51.834208931297908
30
0
11
97.187438299530072
21
51.704499240488659
31
0
0
LINE
5
453
100
AcDbEntity
8
0
100
AcDbLine
10
97.187438299530072
20
51.704499240488659
30
0
11
97.120112767093701
21
51.704499240488659
31
0
0
LINE
5
454
100
AcDbEntity
8
0
100
AcDbLine
10
97.120112767093701
20
51.704499240488659
30
0
11
97.120112767093701
21
51.265956874460826
31
0
0
SPLINE
5
455
100
AcDbEntity
8
0
100
AcDbSpline
70
0
71
2
72
6
73
3
74
0
42
0.000000001
43
0.0000000001
44
0.0000000001
40
0
40
0
40
0
40
1
40
1
40
1
10
97.120112767093701
20
51.265956874460826
30
0
10
97.120112767093701
20
51.185042749614368
30
0
10
97.128451158874554
20
51.175777729124675
30
0
0
SPLINE
5
456
100
AcDbEntity
8
0
100
AcDbSpline
70
0
71
2
72
6
73
3
74
0
42
0.000000001
43
0.0000000001
44
0.0000000001
40
0
40
0
40
0
40
1
40
1
40
1
10
97.128451158874554
20
51.175777729124675
30
0
10
97.136789848678632
20
51.166512783140789
30
0
10
97.197938551776929
20
51.166512783140789
30
0
0
LINE
5
457
100
AcDbEntity
8
0
100
AcDbLine
10
97.197938551776929
20
51.166512783140789
30
0
11
97.197938551776929
21
51.034332405299793
31
0
0
LINE
5
458
100
AcDbEntity
8
0
100
AcDbLine
10
97.197938551776929
20
51.034332405299793
30
0
11
97.097259154193921
21
51.034332405299793
31
0
0
SPLINE
5
459
100
AcDbEntity
8
0
100
AcDbSpline
70
0
71
2
72
6
73
3
74
0
42
0.000000001
43
0.0000000001
44
0.0000000001
40
0
40
0
40
0
40
1
40
1
40
1
10
97.097259154193921
20
51.034332405299793
30
0
10
97.01202123390965
20
51.034332405299793
30
0
10
96.975578954093976
20
51.041435490817676
30
0
0
SPLINE
5
460
100
AcDbEntity
8
0
100
AcDbSpline
70
0
71
2
72
6
73
3
74
0
42
0.000000001
43
0.0000000001
44
0.0000000001
40
0
40
0
40
0
40
1
40
1
40
1
10
96.975578954093976
20
51.041435490817676
30
0
10
96.939136972301526
20
51.048538725347171
30
0
10
96.911341836326642
20
51.07417185184444
30
0
0
SPLINE
5
461
100
AcDbEntity
8
0
100
AcDbSpline
70
0
71
2
72
6
73
3
74
0
42
0.000000001
43
0.0000000001
44
0.0000000001
40
0
40
0
40
0
40
1
40
1
40
1
10
96.911341836326642
20
51.07417185184444
30
0
10
96.883546998374982
20
51.099804903835903
30
0
10
96.876752664917035
20
51.132850016922603
30
0
0
SPLINE
5
462
100
AcDbEntity
8
0
100
AcDbSpline
70
0
71
2
72
6
73
3
74
0
42
0.000000001
43
0.0000000001
44
0.0000000001
40
0
40
0
40
0
40
1
40
1
40
1
10
96.876752664917035
20
51.132850016922603
30
0
10
96.869958331459088
20
51.165895130009304
30
0
10
96.869958331459088
20
51.288192834229122
30
0
0
LINE
5
463
100
AcDbEntity
8
0
100
AcDbLine
10
96.869958331459088
20
51.288192834229122
30
0
11
96.869958331459088
21
51.704499240488659
31
0
0
LINE
5
464
100
AcDbEntity
8
0
100
AcDbLine
10
96.869958331459088
20
51.704499240488659
30
0
11
96.816221465938611
21
51.704499240488659
31
0
0
LINE
5
465
100
AcDbEntity
8
0
100
AcDbLine
10
96.816221465938611
20
51.704499240488659
30
0
11
96.816221465938611
21
51.834208931297908
31
0
0
LINE
5
466
100
AcDbEntity
8
0
100
AcDbLine
10
96.816221465938611
20
51.834208931297908
30
0
11
96.869958331459088
21
51.834208931297908
31
0
0
LINE
5
467
100
AcDbEntity
8
0
100
AcDbLine
10
96.869958331459088
20
51.834208931297908
30
0
11
96.869958331459088
21
51.963300968975673
31
0
0
LINE
5
468
100
AcDbEntity
8
0
100
AcDbLine
10
96.869958331459088
20
51.963300968975673
30
0
11
97.120112767093701
21
51.963300968975673
31
0
0
LINE
5
469
100
AcDbEntity
8
0
100
AcDbLine
10
97.465387275093121
20
51.536494235963474
30
0
11
97.231292416923566
21
51.536494235963474
31
0
0
LINE
5
470
100
AcDbEntity
8
0
100
AcDbLine
10
97.231292416923566
20
51.536494235963474
30
0
11
97.231292416923566
21
51.591466482252727
31
0
0
SPLINE
5
471
100
AcDbEntity
8
0
100
AcDbSpline
70
0
71
2
72
6
73
3
74
0
42
0.000000001
43
0.0000000001
44
0.0000000001
40
0
40
0
40
0
40
1
40
1
40
1
10
97.231292416923566
20
51.591466482252727
30
0
10
97.231292416923566
20
51.686586927146564
30
0
10
97.253219773643536
20
51.738162006706844
30
0
0
SPLINE
5
472
100
AcDbEntity
8
0
100
AcDbSpline
70
0
71
2
72
6
73
3
74
0
42
0.000000001
43
0.0000000001
44
0.0000000001
40
0
40
0
40
0
40
1
40
1
40
1
10
97.253219773643536
20
51.738162006706844
30
0
10
97.275146534317059
20
51.789737011761318
30
0
10
97.34123676049046
20
51.829267631740223
30
0
0
SPLINE
5
473
100
AcDbEntity
8
0
100
AcDbSpline
70
0
71
2
72
6
73
3
74
0
42
0.000000001
43
0.0000000001
44
0.0000000001
40
0
40
0
40
0
40
1
40
1
40
1
10
97.34123676049046
20
51.829267631740223
30
0
10
97.407326986663861
20
51.868798177213321
30
0
10
97.512947609298749
20
51.868798177213321
30
0
0
SPLINE
5
474
100
AcDbEntity
8
0
100
AcDbSpline
70
0
71
2
72
6
73
3
74
0
42
0.000000001
43
0.0000000001
44
0.0000000001
40
0
40
0
40
0
40
1
40
1
40
1
10
97.512947609298749
20
51.868798177213321
30
0
10
97.639569332473798
20
51.868798177213321
30
0
10
97.703806450241132
20
51.824017431110988
30
0
0
SPLINE
5
475
100
AcDbEntity
8
0
100
AcDbSpline
70
0
71
2
72
6
73
3
74
0
42
0.000000001
43
0.0000000001
44
0.0000000001
40
0
40
0
40
0
40
1
40
1
40
1
10
97.703806450241132
20
51.824017431110988
30
0
10
97.768043568008466
20
51.779236759514461
30
0
10
97.781014730804486
20
51.714073013038288
30
0
0
SPLINE
5
476
100
AcDbEntity
8
0
100
AcDbSpline
70
0
71
2
72
6
73
3
74
0
42
0.000000001
43
0.0000000001
44
0.0000000001
40
0
40
0
40
0
40
1
40
1
40
1
10
97.781014730804486
20
51.714073013038288
30
0
10
97.793985297554059
20
51.64890934106792
30
0
10
97.793985297554059
20
51.445697437495838
30
0
0
LINE
5
477
100
AcDbEntity
8
0
100
AcDbLine
10
97.793985297554059
20
51.445697437495838
30
0
11
97.793985297554059
21
51.034332405299793
31
0
0
LINE
5
478
100
AcDbEntity
8
0
100
AcDbLine
10
97.793985297554059
20
51.034332405299793
30
0
11
97.55124299752049
21
51.034332405299793
31
0
0
LINE
5
479
100
AcDbEntity
8
0
100
AcDbLine
10
97.55124299752049
20
51.034332405299793
30
0
11
97.55124299752049
21
51.107371340961109
31
0
0
SPLINE
5
480
100
AcDbEntity
8
0
100
AcDbSpline
70
0
71
2
72
6
73
3
74
0
42
0.000000001
43
0.0000000001
44
0.0000000001
40
0
40
0
40
0
40
1
40
1
40
1
10
97.55124299752049
20
51.107371340961109
30
0
10
97.528389384620709
20
51.063439886541019
30
0
10
97.492255856864972
20
51.04147423383678
30
0
0
SPLINE
5
481
100
AcDbEntity
8
0
100
AcDbSpline
70
0
71
2
72
6
73
3
74
0
42
0.000000001
43
0.0000000001
44
0.0000000001
40
0
40
0
40
0
40
1
40
1
40
1
10
97.492255856864972
20
51.04147423383678
30
0
10
97.456122329109235
20
51.019508432120929
30
0
10
97.406091978424115
20
51.019508432120929
30
0
0
SPLINE
5
482
100
AcDbEntity
8
0
100
AcDbSpline
70
0
71
2
72
6
73
3
74
0
42
0.000000001
43
0.0000000001
44
0.0000000001
40
0
40
0
40
0
40
1
40
1
40
1
10
97.406091978424115
20
51.019508432120929
30
0
10
97.340619256370587
20
51.019508432120929
30
0
10
97.285955836647076
20
51.05625946399654
30
0
0
SPLINE
5
483
100
AcDbEntity
8
0
100
AcDbSpline
70
0
71
2
72
6
73
3
74
0
42
0.000000001
43
0.0000000001
44
0.0000000001
40
0
40
0
40
0
40
1
40
1
40
1
10
97.285955836647076
20
51.05625946399654
30
0
10
97.231292416923566
20
51.093010644883762
30
0
10
97.231292416923566
20
51.217161308498035
30
0
0
LINE
5
484
100
AcDbEntity
8
0
100
AcDbLine
10
97.231292416923566
20
51.217161308498035
30
0
11
97.231292416923566
21
51.284486840934406
31
0
0
SPLINE
5
485
100
AcDbEntity
8
0
100
AcDbSpline
70
0
71
2
72
6
73
3
74
0
42
0.000000001
43
0.0000000001
44
0.0000000001
40
0
40
0
40
0
40
1
40
1
40
1
10
97.231292416923566
20
51.284486840934406
30
0
10
97.231292416923566
20
51.376518945665012
30
0
10
97.26032285916142
20
51.409872885317455
30
0
0
SPLINE
5
486
100
AcDbEntity
8
0
100
AcDbSpline
70
0
71
2
72
6
73
3
74
0
42
0.000000001
43
0.0000000001
44
0.0000000001
40
0
40
0
40
0
40
1
40
1
40
1
10
97.26032285916142
20
51.409872885317455
30
0
10
97.289352705352826
20
51.443226824969898
30
0
10
97.404238870018048
20
51.487698744506488
30
0
0
SPLINE
5
487
100
AcDbEntity
8
0
100
AcDbSpline
70
0
71
2
72
6
73
3
74
0
42
0.000000001
43
0.0000000001
44
0.0000000001
40
0
40
0
40
0
40
1
40
1
40
1
10
97.404238870018048
20
51.487698744506488
30
0
10
97.527153780334515
20
51.535876582831989
30
0
10
97.535801222198529
20
51.552553515405307
30
0
0
SPLINE
5
488
100
AcDbEntity
8
0
100
AcDbSpline
70
0
71
2
72
6
73
3
74
0
42
0.000000001
43
0.0000000001
44
0.0000000001
40
0
40
0
40
0
40
1
40
1
40
1
10
97.535801222198529
20
51.552553515405307
30
0
10
97.544448664062543
20
51.569230522484432
30
0
10
97.544448664062543
20
51.620496700973163
30
0
0
SPLINE
5
489
100
AcDbEntity
8
0
100
AcDbSpline
70
0
71
2
72
6
73
3
74
0
42
0.000000001
43
0.0000000001
44
0.0000000001
40
0
40
0
40
0
40
1
40
1
40
1
10
97.544448664062543
20
51.620496700973163
30
0
10
97.544448664062543
20
51.684733967752109
30
0
10
97.53487496601872
20
51.704190413922916
30
0
0
SPLINE
5
490
100
AcDbEntity
8
0
100
AcDbSpline
70
0
71
2
72
6
73
3
74
0
42
0.000000001
43
0.0000000001
44
0.0000000001
40
0
40
0
40
0
40
1
40
1
40
1
10
97.53487496601872
20
51.704190413922916
30
0
10
97.525301267974896
20
51.723646860093723
30
0
10
97.503065159194989
20
51.723646860093723
30
0
0
SPLINE
5
491
100
AcDbEntity
8
0
100
AcDbSpline
70
0
71
2
72
6
73
3
74
0
42
0.000000001
43
0.0000000001
44
0.0000000001
40
0
40
0
40
0
40
1
40
1
40
1
10
97.503065159194989
20
51.723646860093723
30
0
10
97.477740933769269
20
51.723646860093723
30
0
10
97.471564104431195
20
51.707278754086147
30
0
0
SPLINE
5
492
100
AcDbEntity
8
0
100
AcDbSpline
70
0
71
2
72
6
73
3
74
0
42
0.000000001
43
0.0000000001
44
0.0000000001
40
0
40
0
40
0
40
1
40
1
40
1
10
97.471564104431195
20
51.707278754086147
30
0
10
97.465387275093121
20
51.690910573572765
30
0
10
97.465387275093121
20
51.622349734873424
30
0
0
LINE
5
493
100
AcDbEntity
8
0
100
AcDbLine
10
97.465387275093121
20
51.622349734873424
30
0
11
97.465387275093121
21
51.536494235963474
31
0
0
SPLINE
5
494
100
AcDbEntity
8
0
100
AcDbSpline
70
0
71
2
72
6
73
3
74
0
42
0.000000001
43
0.0000000001
44
0.0000000001
40
0
40
0
40
0
40
1
40
1
40
1
10
97.544448664062543
20
51.424079205364833
30
0
10
97.484535267227216
20
51.380224938959728
30
0
10
97.474961569183392
20
51.350577067107807
30
0
0
SPLINE
5
495
100
AcDbEntity
8
0
100
AcDbSpline
70
0
71
2
72
6
73
3
74
0
42
0.000000001
43
0.0000000001
44
0.0000000001
40
0
40
0
40
0
40
1
40
1
40
1
10
97.474961569183392
20
51.350577067107807
30
0
10
97.465387275093121
20
51.32092912075008
30
0
10
97.465387275093121
20
51.265339221329342
30
0
0
SPLINE
5
496
100
AcDbEntity
8
0
100
AcDbSpline
70
0
71
2
72
6
73
3
74
0
42
0.000000001
43
0.0000000001
44
0.0000000001
40
0
40
0
40
0
40
1
40
1
40
1
10
97.465387275093121
20
51.265339221329342
30
0
10
97.465387275093121
20
51.201719682187687
30
0
10
97.473725964897199
20
51.183189715714107
30
0
0
SPLINE
5
497
100
AcDbEntity
8
0
100
AcDbSpline
70
0
71
2
72
6
73
3
74
0
42
0.000000001
43
0.0000000001
44
0.0000000001
40
0
40
0
40
0
40
1
40
1
40
1
10
97.473725964897199
20
51.183189715714107
30
0
10
97.482064654701276
20
51.164659749240528
30
0
10
97.506771376007123
20
51.164659749240528
30
0
0
SPLINE
5
498
100
AcDbEntity
8
0
100
AcDbSpline
70
0
71
2
72
6
73
3
74
0
42
0.000000001
43
0.0000000001
44
0.0000000001
40
0
40
0
40
0
40
1
40
1
40
1
10
97.506771376007123
20
51.164659749240528
30
0
10
97.530242493026776
20
51.164659749240528
30
0
10
97.537345578544659
20
51.179174895853649
30
0
0
SPLINE
5
499
100
AcDbEntity
8
0
100
AcDbSpline
70
0
71
2
72
6
73
3
74
0
42
0.000000001
43
0.0000000001
44
0.0000000001
40
0
40
0
40
0
40
1
40
1
40
1
10
97.537345578544659
20
51.179174895853649
30
0
10
97.544448664062543
20
51.19369004246677
30
0
10
97.544448664062543
20
51.255456547708164
30
0
0
LINE
5
500
100
AcDbEntity
8
0
100
AcDbLine
10
97.544448664062543
20
51.255456547708164
30
0
11
97.544448664062543
21
51.424079205364833
31
0
0
LINE
5
501
100
AcDbEntity
8
0
100
AcDbLine
10
98.12628953682713
20
51.853974204034458
30
0
11
98.121965815895123
21
51.775993968815456
31
0
0
SPLINE
5
502
100
AcDbEntity
8
0
100
AcDbSpline
70
0
71
2
72
6
73
3
74
0
42
0.000000001
43
0.0000000001
44
0.0000000001
40
0
40
0
40
0
40
1
40
1
40
1
10
98.121965815895123
20
51.775993968815456
30
0
10
98.150996258132977
20
51.822396110267292
30
0
10
98.191144158714337
20
51.845597143740306
30
0
0
SPLINE
5
503
100
AcDbEntity
8
0
100
AcDbSpline
70
0
71
2
72
6
73
3
74
0
42
0.000000001
43
0.0000000001
44
0.0000000001
40
0
40
0
40
0
40
1
40
1
40
1
10
98.191144158714337
20
51.845597143740306
30
0
10
98.231292655342145
20
51.868798177213321
30
0
10
98.282558610313458
20
51.868798177213321
30
0
0
SPLINE
5
504
100
AcDbEntity
8
0
100
AcDbSpline
70
0
71
2
72
6
73
3
74
0
42
0.000000001
43
0.0000000001
44
0.0000000001
40
0
40
0
40
0
40
1
40
1
40
1
10
98.282558610313458
20
51.868798177213321
30
0
10
98.382620503776593
20
51.868798177213321
30
0
10
98.44006328808598
20
51.775993968815456
30
0
0
SPLINE
5
505
100
AcDbEntity
8
0
100
AcDbSpline
70
0
71
2
72
6
73
3
74
0
42
0.000000001
43
0.0000000001
44
0.0000000001
40
0
40
0
40
0
40
1
40
1
40
1
10
98.44006328808598
20
51.775993968815456
30
0
10
98.471564342849774
20
51.822396110267292
30
0
10
98.511094739311261
20
51.845597143740306
30
0
0
SPLINE
5
506
100
AcDbEntity
8
0
100
AcDbSpline
70
0
71
2
72
6
73
3
74
0
42
0.000000001
43
0.0000000001
44
0.0000000001
40
0
40
0
40
0
40
1
40
1
40
1
10
98.511094739311261
20
51.845597143740306
30
0
10
98.550625731819196
20
51.868798177213321
30
0
10
98.598803570144696
20
51.868798177213321
30
0
0
SPLINE
5
507
100
AcDbEntity
8
0
100
AcDbSpline
70
0
71
2
72
6
73
3
74
0
42
0.000000001
43
0.0000000001
44
0.0000000001
40
0
40
0
40
0
40
1
40
1
40
1
10
98.598803570144696
20
51.868798177213321
30
0
10
98.662423183792157
20
51.868798177213321
30
0
10
98.704115440719647
20
51.837914924592624
30
0
0
SPLINE
5
508
100
AcDbEntity
8
0
100
AcDbSpline
70
0
71
2
72
6
73
3
74
0
42
0.000000001
43
0.0000000001
44
0.0000000001
40
0
40
0
40
0
40
1
40
1
40
1
10
98.704115440719647
20
51.837914924592624
30
0
10
98.745807697647138
20
51.807031671971927
30
0
10
98.757543256156964
20
51.762250925869594
30
0
0
SPLINE
5
509
100
AcDbEntity
8
0
100
AcDbSpline
70
0
71
2
72
6
73
3
74
0
42
0.000000001
43
0.0000000001
44
0.0000000001
40
0
40
0
40
0
40
1
40
1
40
1
10
98.757543256156964
20
51.762250925869594
30
0
10
98.769278814666791
20
51.717470179767261
30
0
10
98.769278814666791
20
51.616790782184253
30
0
0
LINE
5
510
100
AcDbEntity
8
0
100
AcDbLine
10
98.769278814666791
20
51.616790782184253
30
0
11
98.769278814666791
21
51.034332405299793
31
0
0
LINE
5
511
100
AcDbEntity
8
0
100
AcDbLine
10
98.769278814666791
20
51.034332405299793
30
0
11
98.527154018753095
21
51.034332405299793
31
0
0
LINE
5
512
100
AcDbEntity
8
0
100
AcDbLine
10
98.527154018753095
20
51.034332405299793
30
0
11
98.527154018753095
21
51.568612869352947
31
0
0
SPLINE
5
513
100
AcDbEntity
8
0
100
AcDbSpline
70
0
71
2
72
6
73
3
74
0
42
0.000000001
43
0.0000000001
44
0.0000000001
40
0
40
0
40
0
40
1
40
1
40
1
10
98.527154018753095
20
51.568612869352947
30
0
10
98.527154018753095
20
51.673615987867962
30
0
10
98.520050933235211
20
51.698631386727939
30
0
0
SPLINE
5
514
100
AcDbEntity
8
0
100
AcDbSpline
70
0
71
2
72
6
73
3
74
0
42
0.000000001
43
0.0000000001
44
0.0000000001
40
0
40
0
40
0
40
1
40
1
40
1
10
98.520050933235211
20
51.698631386727939
30
0
10
98.512947847717328
20
51.723646860093723
30
0
10
98.487006118171735
20
51.723646860093723
30
0
0
SPLINE
5
515
100
AcDbEntity
8
0
100
AcDbSpline
70
0
71
2
72
6
73
3
74
0
42
0.000000001
43
0.0000000001
44
0.0000000001
40
0
40
0
40
0
40
1
40
1
40
1
10
98.487006118171735
20
51.723646860093723
30
0
10
98.460446288459821
20
51.723646860093723
30
0
10
98.452725698822064
20
51.698940213293682
30
0
0
SPLINE
5
516
100
AcDbEntity
8
0
100
AcDbSpline
70
0
71
2
72
6
73
3
74
0
42
0.000000001
43
0.0000000001
44
0.0000000001
40
0
40
0
40
0
40
1
40
1
40
1
10
98.452725698822064
20
51.698940213293682
30
0
10
98.44500451313786
20
51.674233640999446
30
0
10
98.44500451313786
20
51.568612869352947
30
0
0
LINE
5
517
100
AcDbEntity
8
0
100
AcDbLine
10
98.44500451313786
20
51.568612869352947
30
0
11
98.44500451313786
21
51.034332405299793
31
0
0
LINE
5
518
100
AcDbEntity
8
0
100
AcDbLine
10
98.44500451313786
20
51.034332405299793
30
0
11
98.202879717224164
21
51.034332405299793
31
0
0
LINE
5
519
100
AcDbEntity
8
0
100
AcDbLine
10
98.202879717224164
20
51.034332405299793
30
0
11
98.202879717224164
21
51.555024276942859
31
0
0
SPLINE
5
520
100
AcDbEntity
8
0
100
AcDbSpline
70
0
71
2
72
6
73
3
74
0
42
0.000000001
43
0.0000000001
44
0.0000000001
40
0
40
0
40
0
40
1
40
1
40
1
10
98.202879717224164
20
51.555024276942859
30
0
10
98.202879717224164
20
51.675468947262416
30
0
10
98.197012235992474
20
51.699557940930973
30
0
0
SPLINE
5
521
100
AcDbEntity
8
0
100
AcDbSpline
70
0
71
2
72
6
73
3
74
0
42
0.000000001
43
0.0000000001
44
0.0000000001
40
0
40
0
40
0
40
1
40
1
40
1
10
98.197012235992474
20
51.699557940930973
30
0
10
98.191144158714337
20
51.723646860093723
30
0
10
98.164584925048871
20
51.723646860093723
30
0
0
SPLINE
5
522
100
AcDbEntity
8
0
100
AcDbSpline
70
0
71
2
72
6
73
3
74
0
42
0.000000001
43
0.0000000001
44
0.0000000001
40
0
40
0
40
0
40
1
40
1
40
1
10
98.164584925048871
20
51.723646860093723
30
0
10
98.147907545440717
20
51.723646860093723
30
0
10
98.13617198693089
20
51.710984747380863
30
0
0
SPLINE
5
523
100
AcDbEntity
8
0
100
AcDbSpline
70
0
71
2
72
6
73
3
74
0
42
0.000000001
43
0.0000000001
44
0.0000000001
40
0
40
0
40
0
40
1
40
1
40
1
10
98.13617198693089
20
51.710984747380863
30
0
10
98.124436428421063
20
51.698322560162197
30
0
10
98.123201420181317
20
51.680101494760166
30
0
0
SPLINE
5
524
100
AcDbEntity
8
0
100
AcDbSpline
70
0
71
2
72
6
73
3
74
0
42
0.000000001
43
0.0000000001
44
0.0000000001
40
0
40
0
40
0
40
1
40
1
40
1
10
98.123201420181317
20
51.680101494760166
30
0
10
98.121965815895123
20
51.661880354852329
30
0
10
98.121965815895123
20
51.602584462136875
30
0
0
LINE
5
525
100
AcDbEntity
8
0
100
AcDbLine
10
98.121965815895123
20
51.602584462136875
30
0
11
98.121965815895123
21
51.034332405299793
31
0
0
LINE
5
526
100
AcDbEntity
8
0
100
AcDbLine
10
98.121965815895123
20
51.034332405299793
30
0
11
97.879841019981427
21
51.034332405299793
31
0
0
LINE
5
527
100
AcDbEntity
8
0
100
AcDbLine
10
97.879841019981427
20
51.034332405299793
30
0
11
97.879841019981427
21
51.853974204034458
31
0
0
LINE
5
528
100
AcDbEntity
8
0
100
AcDbLine
10
97.879841019981427
20
51.853974204034458
30
0
11
98.12628953682713
21
51.853974204034458
31
0
0
LINE
5
529
100
AcDbEntity
8
0
100
AcDbLine
10
99.46291713940434
20
52.03433249470676
30
0
11
99.46291713940434
21
51.034332405299793
31
0
0
LINE
5
530
100
AcDbEntity
8
0
100
AcDbLine
10
99.46291713940434
20
51.034332405299793
30
0
11
99.213379909866376
21
51.034332405299793
31
0
0
LINE
5
531
100
AcDbEntity
8
0
100
AcDbLine
10
99.213379909866376
20
51.034332405299793
30
0
11
99.213379909866376
21
51.570465903253208
31
0
0
SPLINE
5
532
100
AcDbEntity
8
0
100
AcDbSpline
70
0
71
2
72
6
73
3
74
0
42
0.000000001
43
0.0000000001
44
0.0000000001
40
0
40
0
40
0
40
1
40
1
40
1
10
99.213379909866376
20
51.570465903253208
30
0
10
99.213379909866376
20
51.686586927146564
30
0
10
99.207821180694623
20
51.710058193177829
30
0
0
SPLINE
5
533
100
AcDbEntity
8
0
100
AcDbSpline
70
0
71
2
72
6
73
3
74
0
42
0.000000001
43
0.0000000001
44
0.0000000001
40
0
40
0
40
0
40
1
40
1
40
1
10
99.207821180694623
20
51.710058193177829
30
0
10
99.20226245152287
20
51.733529533714901
30
0
10
99.177246978157086
20
51.745573993296276
30
0
0
SPLINE
5
534
100
AcDbEntity
8
0
100
AcDbSpline
70
0
71
2
72
6
73
3
74
0
42
0.000000001
43
0.0000000001
44
0.0000000001
40
0
40
0
40
0
40
1
40
1
40
1
10
99.177246978157086
20
51.745573993296276
30
0
10
99.152231504791303
20
51.757618452877651
30
0
10
99.065758278244061
20
51.757618452877651
30
0
0
LINE
5
535
100
AcDbEntity
8
0
100
AcDbLine
10
99.065758278244061
20
51.757618452877651
30
0
11
99.041051556938214
21
51.757618452877651
31
0
0
LINE
5
536
100
AcDbEntity
8
0
100
AcDbLine
10
99.041051556938214
20
51.757618452877651
30
0
11
99.041051556938214
21
51.874202753872524
31
0
0
SPLINE
5
537
100
AcDbEntity
8
0
100
AcDbSpline
70
0
71
2
72
6
73
3
74
0
42
0.000000001
43
0.0000000001
44
0.0000000001
40
0
40
0
40
0
40
1
40
1
40
1
10
99.041051556938214
20
51.874202753872524
30
0
10
99.222027351730389
20
51.913154314727436
30
0
10
99.31591241585545
20
52.03433249470676
30
0
0
LINE
5
538
100
AcDbEntity
8
0
100
AcDbLine
10
99.31591241585545
20
52.03433249470676
30
0
11
99.46291713940434
21
52.03433249470676
31
0
0
LINE
5
539
100
AcDbEntity
8
0
100
AcDbLine
10
100.10467140900425
20
52.03433249470676
30
0
11
100.10467140900425
21
51.874357204408298
31
0
0
LINE
5
540
100
AcDbEntity
8
0
100
AcDbLine
10
100.10467140900425
20
51.874357204408298
30
0
11
99.795221378677411
21
51.874357204408298
31
0
0
LINE
5
541
100
AcDbEntity
8
0
100
AcDbLine
10
99.795221378677411
20
51.874357204408298
30
0
11
99.795221378677411
21
51.704499240488659
31
0
0
SPLINE
5
542
100
AcDbEntity
8
0
100
AcDbSpline
70
0
71
2
72
6
73
3
74
0
42
0.000000001
43
0.0000000001
44
0.0000000001
40
0
40
0
40
0
40
1
40
1
40
1
10
99.795221378677411
20
51.704499240488659
30
0
10
99.853281667106671
20
51.773060079187999
30
0
10
99.944696118705792
20
51.773060079187999
30
0
0
SPLINE
5
543
100
AcDbEntity
8
0
100
AcDbSpline
70
0
71
2
72
6
73
3
74
0
42
0.000000001
43
0.0000000001
44
0.0000000001
40
0
40
0
40
0
40
1
40
1
40
1
10
99.944696118705792
20
51.773060079187999
30
0
10
100.04784612881474
20
51.773060079187999
30
0
10
100.10065644013218
20
51.715308393807064
30
0
0
SPLINE
5
544
100
AcDbEntity
8
0
100
AcDbSpline
70
0
71
2
72
6
73
3
74
0
42
0.000000001
43
0.0000000001
44
0.0000000001
40
0
40
0
40
0
40
1
40
1
40
1
10
100.10065644013218
20
51.715308393807064
30
0
10
100.15346675144963
20
51.657556708426128
30
0
10
100.15346675144963
20
51.493257697195659
30
0
0
LINE
5
545
100
AcDbEntity
8
0
100
AcDbLine
10
100.15346675144963
20
51.493257697195659
30
0
11
100.15346675144963
21
51.350577067107807
31
0
0
SPLINE
5
546
100
AcDbEntity
8
0
100
AcDbSpline
70
0
71
2
72
6
73
3
74
0
42
0.000000001
43
0.0000000001
44
0.0000000001
40
0
40
0
40
0
40
1
40
1
40
1
10
100.15346675144963
20
51.350577067107807
30
0
10
100.15346675144963
20
51.244338642329822
30
0
10
100.14327554928593
20
51.194616596669803
30
0
0
SPLINE
5
547
100
AcDbEntity
8
0
100
AcDbSpline
70
0
71
2
72
6
73
3
74
0
42
0.000000001
43
0.0000000001
44
0.0000000001
40
0
40
0
40
0
40
1
40
1
40
1
10
100.14327554928593
20
51.194616596669803
30
0
10
100.13308434712224
20
51.144894476503978
30
0
10
100.09973018395237
20
51.102584417433391
30
0
0
SPLINE
5
548
100
AcDbEntity
8
0
100
AcDbSpline
70
0
71
2
72
6
73
3
74
0
42
0.000000001
43
0.0000000001
44
0.0000000001
40
0
40
0
40
0
40
1
40
1
40
1
10
100.09973018395237
20
51.102584417433391
30
0
10
100.06637602078251
20
51.060274283856998
30
0
10
100.00677137600712
20
51.037729572028766
30
0
0
SPLINE
5
549
100
AcDbEntity
8
0
100
AcDbSpline
70
0
71
2
72
6
73
3
74
0
42
0.000000001
43
0.0000000001
44
0.0000000001
40
0
40
0
40
0
40
1
40
1
40
1
10
100.00677137600712
20
51.037729572028766
30
0
10
99.947166731231732
20
51.015184711188923
30
0
10
99.861311604850812
20
51.015184711188923
30
0
0
SPLINE
5
550
100
AcDbEntity
8
0
100
AcDbSpline
70
0
71
2
72
6
73
3
74
0
42
0.000000001
43
0.0000000001
44
0.0000000001
40
0
40
0
40
0
40
1
40
1
40
1
10
99.861311604850812
20
51.015184711188923
30
0
10
99.764955332153363
20
51.015184711188923
30
0
10
99.691453268402142
20
51.048847477407108
30
0
0
SPLINE
5
551
100
AcDbEntity
8
0
100
AcDbSpline
70
0
71
2
72
6
73
3
74
0
42
0.000000001
43
0.0000000001
44
0.0000000001
40
0
40
0
40
0
40
1
40
1
40
1
10
99.691453268402142
20
51.048847477407108
30
0
10
99.617951204650922
20
51.082510318131099
30
0
10
99.587068250053449
20
51.149218122930179
30
0
0
SPLINE
5
552
100
AcDbEntity
8
0
100
AcDbSpline
70
0
71
2
72
6
73
3
74
0
42
0.000000001
43
0.0000000001
44
0.0000000001
40
0
40
0
40
0
40
1
40
1
40
1
10
99.587068250053449
20
51.149218122930179
30
0
10
99.556184699409528
20
51.215926002235065
30
0
10
99.556184699409528
20
51.355518366665493
30
0
0
LINE
5
553
100
AcDbEntity
8
0
100
AcDbLine
10
99.556184699409528
20
51.355518366665493
30
0
11
99.556184699409528
21
51.409872885317455
31
0
0
LINE
5
554
100
AcDbEntity
8
0
100
AcDbLine
10
99.556184699409528
20
51.409872885317455
30
0
11
99.805721332901044
21
51.409872885317455
31
0
0
LINE
5
555
100
AcDbEntity
8
0
100
AcDbLine
10
99.805721332901044
20
51.409872885317455
30
0
11
99.805721332901044
21
51.34748865243877
31
0
0
SPLINE
5
556
100
AcDbEntity
8
0
100
AcDbSpline
70
0
71
2
72
6
73
3
74
0
42
0.000000001
43
0.0000000001
44
0.0000000001
40
0
40
0
40
0
40
1
40
1
40
1
10
99.805721332901044
20
51.34748865243877
30
0
10
99.805721332901044
20
51.250515248150478
30
0
10
99.812515666358991
20
51.209749321908603
30
0
0
SPLINE
5
557
100
AcDbEntity
8
0
100
AcDbSpline
70
0
71
2
72
6
73
3
74
0
42
0.000000001
43
0.0000000001
44
0.0000000001
40
0
40
0
40
0
40
1
40
1
40
1
10
99.812515666358991
20
51.209749321908603
30
0
10
99.819309999816937
20
51.168983470172535
30
0
10
99.859458496444745
20
51.168983470172535
30
0
0
SPLINE
5
558
100
AcDbEntity
8
0
100
AcDbSpline
70
0
71
2
72
6
73
3
74
0
42
0.000000001
43
0.0000000001
44
0.0000000001
40
0
40
0
40
0
40
1
40
1
40
1
10
99.859458496444745
20
51.168983470172535
30
0
10
99.877988388412518
20
51.168983470172535
30
0
10
99.889415194862408
20
51.180719103188167
30
0
0
SPLINE
5
559
100
AcDbEntity
8
0
100
AcDbSpline
70
0
71
2
72
6
73
3
74
0
42
0.000000001
43
0.0000000001
44
0.0000000001
40
0
40
0
40
0
40
1
40
1
40
1
10
99.889415194862408
20
51.180719103188167
30
0
10
99.900842001312299
20
51.1924547362038
30
0
10
99.901768257492108
20
51.206043403119693
30
0
0
SPLINE
5
560
100
AcDbEntity
8
0
100
AcDbSpline
70
0
71
2
72
6
73
3
74
0
42
0.000000001
43
0.0000000001
44
0.0000000001
40
0
40
0
40
0
40
1
40
1
40
1
10
99.901768257492108
20
51.206043403119693
30
0
10
99.902695109718366
20
51.219631995529781
30
0
10
99.903930117958112
20
51.324017386407505
30
0
0
LINE
5
561
100
AcDbEntity
8
0
100
AcDbLine
10
99.903930117958112
20
51.324017386407505
30
0
11
99.903930117958112
21
51.522287990421901
31
0
0
SPLINE
5
562
100
AcDbEntity
8
0
100
AcDbSpline
70
0
71
2
72
6
73
3
74
0
42
0.000000001
43
0.0000000001
44
0.0000000001
40
0
40
0
40
0
40
1
40
1
40
1
10
99.903930117958112
20
51.522287990421901
30
0
10
99.903930117958112
20
51.578495542974125
30
0
10
99.892194559448285
20
51.598878468842159
30
0
0
SPLINE
5
563
100
AcDbEntity
8
0
100
AcDbSpline
70
0
71
2
72
6
73
3
74
0
42
0.000000001
43
0.0000000001
44
0.0000000001
40
0
40
0
40
0
40
1
40
1
40
1
10
99.892194559448285
20
51.598878468842159
30
0
10
99.880459000938458
20
51.619261394710193
30
0
10
99.853281667106671
20
51.619261394710193
30
0
0
SPLINE
5
564
100
AcDbEntity
8
0
100
AcDbSpline
70
0
71
2
72
6
73
3
74
0
42
0.000000001
43
0.0000000001
44
0.0000000001
40
0
40
0
40
0
40
1
40
1
40
1
10
99.853281667106671
20
51.619261394710193
30
0
10
99.835987379425092
20
51.619261394710193
30
0
10
99.824251224868817
20
51.608761142463337
30
0
0
SPLINE
5
565
100
AcDbEntity
8
0
100
AcDbSpline
70
0
71
2
72
6
73
3
74
0
42
0.000000001
43
0.0000000001
44
0.0000000001
40
0
40
0
40
0
40
1
40
1
40
1
10
99.824251224868817
20
51.608761142463337
30
0
10
99.812515666358991
20
51.598260815710674
30
0
10
99.809118797653241
20
51.586216356129299
30
0
0
SPLINE
5
566
100
AcDbEntity
8
0
100
AcDbSpline
70
0
71
2
72
6
73
3
74
0
42
0.000000001
43
0.0000000001
44
0.0000000001
40
0
40
0
40
0
40
1
40
1
40
1
10
99.809118797653241
20
51.586216356129299
30
0
10
99.805721332901044
20
51.574171822042118
30
0
10
99.805721332901044
20
51.530317630142818
30
0
0
LINE
5
567
100
AcDbEntity
8
0
100
AcDbLine
10
99.805721332901044
20
51.530317630142818
30
0
11
99.558655311935468
21
51.530317630142818
31
0
0
LINE
5
568
100
AcDbEntity
8
0
100
AcDbLine
10
99.558655311935468
20
51.530317630142818
30
0
11
99.569155862205548
21
52.03433249470676
31
0
0
LINE
5
569
100
AcDbEntity
8
0
100
AcDbLine
10
99.569155862205548
20
52.03433249470676
30
0
11
100.10467140900425
21
52.03433249470676
31
0
0
LINE
5
570
100
AcDbEntity
8
0
100
AcDbLine
10
100.8532813094788
20
51.598878468842159
30
0
11
100.59324412571721
21
51.598878468842159
31
0
0
LINE
5
571
100
AcDbEntity
8
0
100
AcDbLine
10
100.59324412571721
20
51.598878468842159
30
0
11
100.59324412571721
21
51.772683675856243
31
0
0
SPLINE
5
572
100
AcDbEntity
8
0
100
AcDbSpline
70
0
71
2
72
6
73
3
74
0
42
0.000000001
43
0.0000000001
44
0.0000000001
40
0
40
0
40
0
40
1
40
1
40
1
10
100.59324412571721
20
51.772683675856243
30
0
10
100.59324412571721
20
51.848492439360271
30
0
10
100.58490603195958
20
51.867292638392101
30
0
0
SPLINE
5
573
100
AcDbEntity
8
0
100
AcDbSpline
70
0
71
2
72
6
73
3
74
0
42
0.000000001
43
0.0000000001
44
0.0000000001
40
0
40
0
40
0
40
1
40
1
40
1
10
100.58490603195958
20
51.867292638392101
30
0
10
100.5765673421555
20
51.886092762918125
30
0
10
100.54815440403752
20
51.886092762918125
30
0
0
SPLINE
5
574
100
AcDbEntity
8
0
100
AcDbSpline
70
0
71
2
72
6
73
3
74
0
42
0.000000001
43
0.0000000001
44
0.0000000001
40
0
40
0
40
0
40
1
40
1
40
1
10
100.54815440403752
20
51.886092762918125
30
0
10
100.51603584515385
20
51.886092762918125
30
0
10
100.50738899933629
20
51.863239150018345
30
0
0
SPLINE
5
575
100
AcDbEntity
8
0
100
AcDbSpline
70
0
71
2
72
6
73
3
74
0
42
0.000000001
43
0.0000000001
44
0.0000000001
40
0
40
0
40
0
40
1
40
1
40
1
10
100.50738899933629
20
51.863239150018345
30
0
10
100.49874155747227
20
51.840385537118564
30
0
10
100.49874155747227
20
51.764412711829792
30
0
0
LINE
5
576
100
AcDbEntity
8
0
100
AcDbLine
10
100.49874155747227
20
51.764412711829792
30
0
11
100.49874155747227
21
51.299928467244754
31
0
0
SPLINE
5
577
100
AcDbEntity
8
0
100
AcDbSpline
70
0
71
2
72
6
73
3
74
0
42
0.000000001
43
0.0000000001
44
0.0000000001
40
0
40
0
40
0
40
1
40
1
40
1
10
100.49874155747227
20
51.299928467244754
30
0
10
100.49874155747227
20
51.227043982119213
30
0
10
100.50738899933629
20
51.204808022350917
30
0
0
SPLINE
5
578
100
AcDbEntity
8
0
100
AcDbSpline
70
0
71
2
72
6
73
3
74
0
42
0.000000001
43
0.0000000001
44
0.0000000001
40
0
40
0
40
0
40
1
40
1
40
1
10
100.50738899933629
20
51.204808022350917
30
0
10
100.51603584515385
20
51.182572062582622
30
0
10
100.5463018916779
20
51.182572062582622
30
0
0
SPLINE
5
579
100
AcDbEntity
8
0
100
AcDbSpline
70
0
71
2
72
6
73
3
74
0
42
0.000000001
43
0.0000000001
44
0.0000000001
40
0
40
0
40
0
40
1
40
1
40
1
10
100.5463018916779
20
51.182572062582622
30
0
10
100.57533173786931
20
51.182572062582622
30
0
10
100.58428793179326
20
51.204861144990574
30
0
0
SPLINE
5
580
100
AcDbEntity
8
0
100
AcDbSpline
70
0
71
2
72
6
73
3
74
0
42
0.000000001
43
0.0000000001
44
0.0000000001
40
0
40
0
40
0
40
1
40
1
40
1
10
100.58428793179326
20
51.204861144990574
30
0
10
100.59324412571721
20
51.227150152892719
30
0
10
100.59324412571721
20
51.30950231430019
30
0
0
LINE
5
581
100
AcDbEntity
8
0
100
AcDbLine
10
100.59324412571721
20
51.30950231430019
30
0
11
100.59324412571721
21
51.435197185248981
31
0
0
LINE
5
582
100
AcDbEntity
8
0
100
AcDbLine
10
100.59324412571721
20
51.435197185248981
30
0
11
100.8532813094788
21
51.435197185248981
31
0
0
LINE
5
583
100
AcDbEntity
8
0
100
AcDbLine
10
100.8532813094788
20
51.435197185248981
30
0
11
100.8532813094788
21
51.396226327390323
31
0
0
SPLINE
5
584
100
AcDbEntity
8
0
100
AcDbSpline
70
0
71
2
72
6
73
3
74
0
42
0.000000001
43
0.0000000001
44
0.0000000001
40
0
40
0
40
0
40
1
40
1
40
1
10
100.8532813094788
20
51.396226327390323
30
0
10
100.8532813094788
20
51.240970383853565
30
0
10
100.83135395275883
20
51.17601905343021
30
0
0
SPLINE
5
585
100
AcDbEntity
8
0
100
AcDbSpline
70
0
71
2
72
6
73
3
74
0
42
0.000000001
43
0.0000000001
44
0.0000000001
40
0
40
0
40
0
40
1
40
1
40
1
10
100.83135395275883
20
51.17601905343021
30
0
10
100.80942719208531
20
51.111067648501049
30
0
10
100.73438077198796
20
51.062199737400661
30
0
0
SPLINE
5
586
100
AcDbEntity
8
0
100
AcDbSpline
70
0
71
2
72
6
73
3
74
0
42
0.000000001
43
0.0000000001
44
0.0000000001
40
0
40
0
40
0
40
1
40
1
40
1
10
100.73438077198796
20
51.062199737400661
30
0
10
100.65933435189061
20
51.013331751794468
30
0
10
100.54939000832371
20
51.013331751794468
30
0
0
SPLINE
5
587
100
AcDbEntity
8
0
100
AcDbSpline
70
0
71
2
72
6
73
3
74
0
42
0.000000001
43
0.0000000001
44
0.0000000001
40
0
40
0
40
0
40
1
40
1
40
1
10
100.54939000832371
20
51.013331751794468
30
0
10
100.43512194382481
20
51.013331751794468
30
0
10
100.36100237595372
20
51.054715405673633
30
0
0
SPLINE
5
588
100
AcDbEntity
8
0
100
AcDbSpline
70
0
71
2
72
6
73
3
74
0
42
0.000000001
43
0.0000000001
44
0.0000000001
40
0
40
0
40
0
40
1
40
1
40
1
10
100.36100237595372
20
51.054715405673633
30
0
10
100.28688221203618
20
51.096098910541187
30
0
10
100.26279359089665
20
51.169292296738277
30
0
0
SPLINE
5
589
100
AcDbEntity
8
0
100
AcDbSpline
70
0
71
2
72
6
73
3
74
0
42
0.000000001
43
0.0000000001
44
0.0000000001
40
0
40
0
40
0
40
1
40
1
40
1
10
100.26279359089665
20
51.169292296738277
30
0
10
100.23870437371068
20
51.242485608429561
30
0
10
100.23870437371068
20
51.389489959449421
30
0
0
LINE
5
590
100
AcDbEntity
8
0
100
AcDbLine
10
100.23870437371068
20
51.389489959449421
30
0
11
100.23870437371068
21
51.681645553083072
31
0
0
SPLINE
5
591
100
AcDbEntity
8
0
100
AcDbSpline
70
0
71
2
72
6
73
3
74
0
42
0.000000001
43
0.0000000001
44
0.0000000001
40
0
40
0
40
0
40
1
40
1
40
1
10
100.23870437371068
20
51.681645553083072
30
0
10
100.23870437371068
20
51.789737011761318
30
0
10
100.24611621128849
20
51.843782703847538
30
0
0
SPLINE
5
592
100
AcDbEntity
8
0
100
AcDbSpline
70
0
71
2
72
6
73
3
74
0
42
0.000000001
43
0.0000000001
44
0.0000000001
40
0
40
0
40
0
40
1
40
1
40
1
10
100.24611621128849
20
51.843782703847538
30
0
10
100.25352804886631
20
51.897828470439563
30
0
10
100.29027967678837
20
51.947859342665325
30
0
0
SPLINE
5
593
100
AcDbEntity
8
0
100
AcDbSpline
70
0
71
2
72
6
73
3
74
0
42
0.000000001
43
0.0000000001
44
0.0000000001
40
0
40
0
40
0
40
1
40
1
40
1
10
100.29027967678837
20
51.947859342665325
30
0
10
100.32703070866398
20
51.997890214891086
30
0
10
100.39219408261113
20
52.026611681551586
30
0
0
SPLINE
5
594
100
AcDbEntity
8
0
100
AcDbSpline
70
0
71
2
72
6
73
3
74
0
42
0.000000001
43
0.0000000001
44
0.0000000001
40
0
40
0
40
0
40
1
40
1
40
1
10
100.39219408261113
20
52.026611681551586
30
0
10
100.45735805260472
20
52.055333073706279
30
0
10
100.54197817074589
20
52.055333073706279
30
0
0
SPLINE
5
595
100
AcDbEntity
8
0
100
AcDbSpline
70
0
71
2
72
6
73
3
74
0
42
0.000000001
43
0.0000000001
44
0.0000000001
40
0
40
0
40
0
40
1
40
1
40
1
10
100.54197817074589
20
52.055333073706279
30
0
10
100.65686373936467
20
52.055333073706279
30
0
10
100.73160140740208
20
52.010919119686733
30
0
0
SPLINE
5
596
100
AcDbEntity
8
0
100
AcDbSpline
70
0
71
2
72
6
73
3
74
0
42
0.000000001
43
0.0000000001
44
0.0000000001
40
0
40
0
40
0
40
1
40
1
40
1
10
100.73160140740208
20
52.010919119686733
30
0
10
100.8063390754395
20
51.96650509116138
30
0
10
100.82981019245915
20
51.900197755069385
30
0
0
SPLINE
5
597
100
AcDbEntity
8
0
100
AcDbSpline
70
0
71
2
72
6
73
3
74
0
42
0.000000001
43
0.0000000001
44
0.0000000001
40
0
40
0
40
0
40
1
40
1
40
1
10
100.82981019245915
20
51.900197755069385
30
0
10
100.8532813094788
20
51.83389041897739
30
0
10
100.8532813094788
20
51.693873445958744
30
0
0
LINE
5
598
100
AcDbEntity
8
0
100
AcDbLine
10
100.8532813094788
20
51.693873445958744
30
0
11
100.8532813094788
21
51.598878468842159
31
0
0
LINE
5
599
100
AcDbEntity
8
0
100
AcDbLine
10
101.5537139676743
20
51.598878468842159
30
0
11
101.2936767839127
21
51.598878468842159
31
0
0
LINE
5
600
100
AcDbEntity
8
0
100
AcDbLine
10
101.2936767839127
20
51.598878468842159
30
0
11
101.2936767839127
21
51.772683675856243
31
0
0
SPLINE
5
601
100
AcDbEntity
8
0
100
AcDbSpline
70
0
71
2
72
6
73
3
74
0
42
0.000000001
43
0.0000000001
44
0.0000000001
40
0
40
0
40
0
40
1
40
1
40
1
10
101.2936767839127
20
51.772683675856243
30
0
10
101.2936767839127
20
51.848492439360271
30
0
10
101.28533869015507
20
51.867292638392101
30
0
0
SPLINE
5
602
100
AcDbEntity
8
0
100
AcDbSpline
70
0
71
2
72
6
73
3
74
0
42
0.000000001
43
0.0000000001
44
0.0000000001
40
0
40
0
40
0
40
1
40
1
40
1
10
101.28533869015507
20
51.867292638392101
30
0
10
101.27700000035099
20
51.886092762918125
30
0
10
101.24858706223301
20
51.886092762918125
30
0
0
SPLINE
5
603
100
AcDbEntity
8
0
100
AcDbSpline
70
0
71
2
72
6
73
3
74
0
42
0.000000001
43
0.0000000001
44
0.0000000001
40
0
40
0
40
0
40
1
40
1
40
1
10
101.24858706223301
20
51.886092762918125
30
0
10
101.21646850334935
20
51.886092762918125
30
0
10
101.20782165753178
20
51.863239150018345
30
0
0
SPLINE
5
604
100
AcDbEntity
8
0
100
AcDbSpline
70
0
71
2
72
6
73
3
74
0
42
0.000000001
43
0.0000000001
44
0.0000000001
40
0
40
0
40
0
40
1
40
1
40
1
10
101.20782165753178
20
51.863239150018345
30
0
10
101.19917421566777
20
51.840385537118564
30
0
10
101.19917421566777
20
51.764412711829792
30
0
0
LINE
5
605
100
AcDbEntity
8
0
100
AcDbLine
10
101.19917421566777
20
51.764412711829792
30
0
11
101.19917421566777
21
51.299928467244754
31
0
0
SPLINE
5
606
100
AcDbEntity
8
0
100
AcDbSpline
70
0
71
2
72
6
73
3
74
0
42
0.000000001
43
0.0000000001
44
0.0000000001
40
0
40
0
40
0
40
1
40
1
40
1
10
101.19917421566777
20
51.299928467244754
30
0
10
101.19917421566777
20
51.227043982119213
30
0
10
101.20782165753178
20
51.204808022350917
30
0
0
SPLINE
5
607
100
AcDbEntity
8
0
100
AcDbSpline
70
0
71
2
72
6
73
3
74
0
42
0.000000001
43
0.0000000001
44
0.0000000001
40
0
40
0
40
0
40
1
40
1
40
1
10
101.20782165753178
20
51.204808022350917
30
0
10
101.21646850334935
20
51.182572062582622
30
0
10
101.24673454987339
20
51.182572062582622
30
0
0
SPLINE
5
608
100
AcDbEntity
8
0
100
AcDbSpline
70
0
71
2
72
6
73
3
74
0
42
0.000000001
43
0.0000000001
44
0.0000000001
40
0
40
0
40
0
40
1
40
1
40
1
10
101.24673454987339
20
51.182572062582622
30
0
10
101.2757643960648
20
51.182572062582622
30
0
10
101.28472058998875
20
51.204861144990574
30
0
0
SPLINE
5
609
100
AcDbEntity
8
0
100
AcDbSpline
70
0
71
2
72
6
73
3
74
0
42
0.000000001
43
0.0000000001
44
0.0000000001
40
0
40
0
40
0
40
1
40
1
40
1
10
101.28472058998875
20
51.204861144990574
30
0
10
101.2936767839127
20
51.227150152892719
30
0
10
101.2936767839127
20
51.30950231430019
30
0
0
LINE
5
610
100
AcDbEntity
8
0
100
AcDbLine
10
101.2936767839127
20
51.30950231430019
30
0
11
101.2936767839127
21
51.435197185248981
31
0
0
LINE
5
611
100
AcDbEntity
8
0
100
AcDbLine
10
101.2936767839127
20
51.435197185248981
30
0
11
101.5537139676743
21
51.435197185248981
31
0
0
LINE
5
612
100
AcDbEntity
8
0
100
AcDbLine
10
101.5537139676743
20
51.435197185248981
30
0
11
101.5537139676743
21
51.396226327390323
31
0
0
SPLINE
5
613
100
AcDbEntity
8
0
100
AcDbSpline
70
0
71
2
72
6
73
3
74
0
42
0.000000001
43
0.0000000001
44
0.0000000001
40
0
40
0
40
0
40
1
40
1
40
1
10
101.5537139676743
20
51.396226327390323
30
0
10
101.5537139676743
20
51.240970383853565
30
0
10
101.53178661095433
20
51.17601905343021
30
0
0
SPLINE
5
614
100
AcDbEntity
8
0
100
AcDbSpline
70
0
71
2
72
6
73
3
74
0
42
0.000000001
43
0.0000000001
44
0.0000000001
40
0
40
0
40
0
40
1
40
1
40
1
10
101.53178661095433
20
51.17601905343021
30
0
10
101.5098598502808
20
51.111067648501049
30
0
10
101.43481343018345
20
51.062199737400661
30
0
0
SPLINE
5
615
100
AcDbEntity
8
0
100
AcDbSpline
70
0
71
2
72
6
73
3
74
0
42
0.000000001
43
0.0000000001
44
0.0000000001
40
0
40
0
40
0
40
1
40
1
40
1
10
101.43481343018345
20
51.062199737400661
30
0
10
101.3597670100861
20
51.013331751794468
30
0
10
101.24982266651921
20
51.013331751794468
30
0
0
SPLINE
5
616
100
AcDbEntity
8
0
100
AcDbSpline
70
0
71
2
72
6
73
3
74
0
42
0.000000001
43
0.0000000001
44
0.0000000001
40
0
40
0
40
0
40
1
40
1
40
1
10
101.24982266651921
20
51.013331751794468
30
0
10
101.13555460202031
20
51.013331751794468
30
0
10
101.06143503414921
20
51.054715405673633
30
0
0
SPLINE
5
617
100
AcDbEntity
8
0
100
AcDbSpline
70
0
71
2
72
6
73
3
74
0
42
0.000000001
43
0.0000000001
44
0.0000000001
40
0
40
0
40
0
40
1
40
1
40
1
10
101.06143503414921
20
51.054715405673633
30
0
10
100.98731487023167
20
51.096098910541187
30
0
10
100.96322624909214
20
51.169292296738277
30
0
0
SPLINE
5
618
100
AcDbEntity
8
0
100
AcDbSpline
70
0
71
2
72
6
73
3
74
0
42
0.000000001
43
0.0000000001
44
0.0000000001
40
0
40
0
40
0
40
1
40
1
40
1
10
100.96322624909214
20
51.169292296738277
30
0
10
100.93913703190617
20
51.242485608429561
30
0
10
100.93913703190617
20
51.389489959449421
30
0
0
LINE
5
619
100
AcDbEntity
8
0
100
AcDbLine
10
100.93913703190617
20
51.389489959449421
30
0
11
100.93913703190617
21
51.681645553083072
31
0
0
SPLINE
5
620
100
AcDbEntity
8
0
100
AcDbSpline
70
0
71
2
72
6
73
3
74
0
42
0.000000001
43
0.0000000001
44
0.0000000001
40
0
40
0
40
0
40
1
40
1
40
1
10
100.93913703190617
20
51.681645553083072
30
0
10
100.93913703190617
20
51.789737011761318
30
0
10
100.94654886948399
20
51.843782703847538
30
0
0
SPLINE
5
621
100
AcDbEntity
8
0
100
AcDbSpline
70
0
71
2
72
6
73
3
74
0
42
0.000000001
43
0.0000000001
44
0.0000000001
40
0
40
0
40
0
40
1
40
1
40
1
10
100.94654886948399
20
51.843782703847538
30
0
10
100.95396070706181
20
51.897828470439563
30
0
10
100.99071233498387
20
51.947859342665325
30
0
0
SPLINE
5
622
100
AcDbEntity
8
0
100
AcDbSpline
70
0
71
2
72
6
73
3
74
0
42
0.000000001
43
0.0000000001
44
0.0000000001
40
0
40
0
40
0
40
1
40
1
40
1
10
100.99071233498387
20
51.947859342665325
30
0
10
101.02746336685948
20
51.997890214891086
30
0
10
101.09262674080662
20
52.026611681551586
30
0
0
SPLINE
5
623
100
AcDbEntity
8
0
100
AcDbSpline
70
0
71
2
72
6
73
3
74
0
42
0.000000001
43
0.0000000001
44
0.0000000001
40
0
40
0
40
0
40
1
40
1
40
1
10
101.09262674080662
20
52.026611681551586
30
0
10
101.15779071080021
20
52.055333073706279
30
0
10
101.24241082894139
20
52.055333073706279
30
0
0
SPLINE
5
624
100
AcDbEntity
8
0
100
AcDbSpline
70
0
71
2
72
6
73
3
74
0
42
0.000000001
43
0.0000000001
44
0.0000000001
40
0
40
0
40
0
40
1
40
1
40
1
10
101.24241082894139
20
52.055333073706279
30
0
10
101.35729639756016
20
52.055333073706279
30
0
10
101.43203406559758
20
52.010919119686733
30
0
0
SPLINE
5
625
100
AcDbEntity
8
0
100
AcDbSpline
70
0
71
2
72
6
73
3
74
0
42
0.000000001
43
0.0000000001
44
0.0000000001
40
0
40
0
40
0
40
1
40
1
40
1
10
101.43203406559758
20
52.010919119686733
30
0
10
101.50677113758854
20
51.96650509116138
30
0
10
101.53024285065464
20
51.900197755069385
30
0
0
SPLINE
5
626
100
AcDbEntity
8
0
100
AcDbSpline
70
0
71
2
72
6
73
3
74
0
42
0.000000001
43
0.0000000001
44
0.0000000001
40
0
40
0
40
0
40
1
40
1
40
1
10
101.53024285065464
20
51.900197755069385
30
0
10
101.5537139676743
20
51.83389041897739
30
0
10
101.5537139676743
20
51.693873445958744
30
0
0
LINE
5
627
100
AcDbEntity
8
0
100
AcDbLine
10
101.5537139676743
20
51.693873445958744
30
0
11
101.5537139676743
21
51.598878468842159
31
0
0
LINE
5
628
100
AcDbEntity
8
0
100
AcDbLine
10
102.17076211201481
20
52.03433249470676
30
0
11
102.17076211201481
21
51.834208931297908
31
0
0
LINE
5
629
100
AcDbEntity
8
0
100
AcDbLine
10
102.17076211201481
20
51.834208931297908
30
0
11
102.0163455508881
21
51.834208931297908
31
0
0
LINE
5
630
100
AcDbEntity
8
0
100
AcDbLine
10
102.0163455508881
20
51.834208931297908
30
0
11
102.0163455508881
21
51.034332405299793
31
0
0
LINE
5
631
100
AcDbEntity
8
0
100
AcDbLine
10
102.0163455508881
20
51.034332405299793
30
0
11
101.75630836712651
21
51.034332405299793
31
0
0
LINE
5
632
100
AcDbEntity
8
0
100
AcDbLine
10
101.75630836712651
20
51.034332405299793
30
0
11
101.75630836712651
21
51.834208931297908
31
0
0
LINE
5
633
100
AcDbEntity
8
0
100
AcDbLine
10
101.75630836712651
20
51.834208931297908
30
0
11
101.60250990616612
21
51.834208931297908
31
0
0
LINE
5
634
100
AcDbEntity
8
0
100
AcDbLine
10
101.60250990616612
20
51.834208931297908
30
0
11
101.60250990616612
21
52.03433249470676
31
0
0
LINE
5
635
100
AcDbEntity
8
0
100
AcDbLine
10
101.60250990616612
20
52.03433249470676
30
0
11
102.17076211201481
21
52.03433249470676
31
0
0
ENDSEC
0
SECTION
2
OBJECTS
0
DICTIONARY
5
C
100
AcDbDictionary
3
ACAD_GROUP
350
D
3
ACAD_MLINESTYLE
350
17
0
DICTIONARY
5
D
100
AcDbDictionary
0
DICTIONARY
5
1A
330
C
100
AcDbDictionary
0
DICTIONARY
5
17
100
AcDbDictionary
0
ENDSEC
0
EOF
