0
SECTION
2
HEADER
9
$INSUNITS
70
4
9
$ACADVER
1
AC1014
9
$HANDSEED
5
FFFF
0
ENDSEC
0
SECTION
2
TABLES
0
TABLE
2
VPORT
5
8
100
AcDbSymbolTable
0
ENDTAB
0
TABLE
2
LTYPE
5
5
100
AcDbSymbolTable
0
LTYPE
5
14
100
AcDbSymbolTableRecord
100
AcDbLinetypeTableRecord
2
BYBLOCK
70
0
0
LTYPE
5
15
100
AcDbSymbolTableRecord
100
AcDbLinetypeTableRecord
2
BYLAYER
70
0
0
LTYPE
5
16
100
AcDbSymbolTableRecord
100
AcDbLinetypeTableRecord
2
DASHED
70
0
3
Dashed __ __ __ __ __ __ __ __ __ __ __ __ __ _
72
65
73
2
40
0.75
49
0.5
74
0
49
-0.25
74
0
0
ENDTAB
0
TABLE
2
LAYER
5
2
100
AcDbSymbolTable
70
2
0
LAYER
5
50
100
AcDbSymbolTableRecord
100
AcDbLayerTableRecord
2
0
70
0
62
7
6
CONTINUOUS
0
ENDTAB
0
TABLE
2
STYLE
5
3
100
AcDbSymbolTable
70
1
0
STYLE
5
11
100
AcDbSymbolTableRecord
100
AcDbTextStyleTableRecord
2
STANDARD
70
0
0
ENDTAB
0
TABLE
2
VIEW
5
6
100
AcDbSymbolTable
70
0
0
ENDTAB
0
TABLE
2
UCS
5
7
100
AcDbSymbolTable
70
0
0
ENDTAB
0
TABLE
2
APPID
5
9
100
AcDbSymbolTable
70
2
0
APPID
5
12
100
AcDbSymbolTableRecord
100
AcDbRegAppTableRecord
2
ACAD
70
0
0
ENDTAB
0
TABLE
2
DIMSTYLE
5
A
100
AcDbSymbolTable
70
1
0
ENDTAB
0
TABLE
2
BLOCK_RECORD
5
1
100
AcDbSymbolTable
70
1
0
BLOCK_RECORD
5
1F
100
AcDbSymbolTableRecord
100
AcDbBlockTableRecord
2
*MODEL_SPACE
0
BLOCK_RECORD
5
1B
100
AcDbSymbolTableRecord
100
AcDbBlockTableRecord
2
*PAPER_SPACE
0
ENDTAB
0
ENDSEC
0
SECTION
2
BLOCKS
0
BLOCK
5
20
100
AcDbEntity
100
AcDbBlockBegin
2
*MODEL_SPACE
0
ENDBLK
5
21
100
AcDbEntity
100
AcDbBlockEnd
0
BLOCK
5
1C
100
AcDbEntity
100
AcDbBlockBegin
2
*PAPER_SPACE
0
ENDBLK
5
1D
100
AcDbEntity
100
AcDbBlockEnd
0
ENDSEC
0
SECTION
2
ENTITIES
0
POINT
5
100
100
AcDbEntity
8
0
100
AcDbPoint
10
-5.7947636800111058
20
-2.1131757866740397
30
0
0
POINT
5
101
100
AcDbEntity
8
0
100
AcDbPoint
10
-5.7947636800111058
20
-2.1131757866740397
30
0
0
LWPOLYLINE
5
102
100
AcDbEntity
8
0
100
AcDbPolyline
90
4
70
1
43
0.0
10
0.4477153199888928
20
-18.866351786674045
10
2.2677153199888966
20
-18.866351786674045
10
2.2677153199888966
20
-17.666351786674042
10
0.4477153199888928
20
-17.666351786674042
0
LWPOLYLINE
5
103
100
AcDbEntity
8
0
100
AcDbPolyline
90
4
70
1
43
0.0
10
0.4477153199888928
20
-14.746351786674039
10
0.4477153199888928
20
-15.94635178667404
10
2.2677153199888966
20
-15.94635178667404
10
2.2677153199888966
20
-14.746351786674039
0
LWPOLYLINE
5
104
100
AcDbEntity
8
0
100
AcDbPolyline
90
4
70
1
43
0.0
10
-30.229763680011107
20
13.476824213325962
10
-29.609763680011106
20
13.476824213325962
10
-29.609763680011106
20
14.096824213325965
10
-30.229763680011107
20
14.096824213325965
0
LWPOLYLINE
5
105
100
AcDbEntity
8
0
100
AcDbPolyline
90
4
70
1
43
0.0
10
-30.229763680011107
20
13.196824213325961
10
-30.229763680011107
20
12.57682421332596
10
-29.609763680011106
20
12.57682421332596
10
-29.609763680011106
20
13.196824213325961
0
LWPOLYLINE
5
106
100
AcDbEntity
8
0
100
AcDbPolyline
90
4
70
1
43
0.0
10
-22.4447636800111
20
4.2868242133259571
10
-23.39476368001111
20
4.2868242133259571
10
-23.39476368001111
20
3.4868242133259608
10
-22.4447636800111
20
3.4868242133259608
0
LWPOLYLINE
5
107
100
AcDbEntity
8
0
100
AcDbPolyline
90
4
70
1
43
0.0
10
-22.4447636800111
20
1.8868242133259727
10
-22.4447636800111
20
2.6868242133259645
10
-23.39476368001111
20
2.6868242133259645
10
-23.39476368001111
20
1.8868242133259727
0
LWPOLYLINE
5
108
100
AcDbEntity
8
0
100
AcDbPolyline
90
4
70
1
43
0.0
10
4.8622363199888952
20
-0.26317578667403918
10
4.0122363199888866
20
-0.26317578667403918
10
4.0122363199888866
20
-0.56317578667403723
10
4.8622363199888952
20
-0.56317578667403723
0
LWPOLYLINE
5
109
100
AcDbEntity
8
0
100
AcDbPolyline
90
4
70
1
43
0.0
10
4.8622363199888952
20
-0.7631757866740374
10
4.0122363199888866
20
-0.7631757866740374
10
4.0122363199888866
20
-1.0631757866740355
10
4.8622363199888952
20
-1.0631757866740355
0
LWPOLYLINE
5
110
100
AcDbEntity
8
0
100
AcDbPolyline
90
4
70
1
43
0.0
10
4.8622363199888952
20
-1.2631757866740401
10
4.0122363199888866
20
-1.2631757866740401
10
4.0122363199888866
20
-1.5631757866740337
10
4.8622363199888952
20
-1.5631757866740337
0
LWPOLYLINE
5
111
100
AcDbEntity
8
0
100
AcDbPolyline
90
4
70
1
43
0.0
10
4.8622363199888952
20
-2.0631757866740363
10
4.8622363199888952
20
-1.7631757866740383
10
4.0122363199888866
20
-1.7631757866740383
10
4.0122363199888866
20
-2.0631757866740363
0
LWPOLYLINE
5
112
100
AcDbEntity
8
0
100
AcDbPolyline
90
4
70
1
43
0.0
10
4.0122363199888866
20
-2.2631757866740365
10
4.0122363199888866
20
-2.5631757866740346
10
4.8622363199888952
20
-2.5631757866740346
10
4.8622363199888952
20
-2.2631757866740365
0
LWPOLYLINE
5
113
100
AcDbEntity
8
0
100
AcDbPolyline
90
4
70
1
43
0.0
10
4.8622363199888952
20
-2.7631757866740392
10
4.0122363199888866
20
-2.7631757866740392
10
4.0122363199888866
20
-3.0631757866740372
10
4.8622363199888952
20
-3.0631757866740372
0
LWPOLYLINE
5
114
100
AcDbEntity
8
0
100
AcDbPolyline
90
4
70
1
43
0.0
10
6.9122363199889048
20
-2.7631757866740392
10
6.9122363199889048
20
-3.0631757866740372
10
7.7622363199888866
20
-3.0631757866740372
10
7.7622363199888866
20
-2.7631757866740392
0
LWPOLYLINE
5
115
100
AcDbEntity
8
0
100
AcDbPolyline
90
4
70
1
43
0.0
10
7.7622363199888866
20
-2.2631757866740365
10
6.9122363199889048
20
-2.2631757866740365
10
6.9122363199889048
20
-2.5631757866740346
10
7.7622363199888866
20
-2.5631757866740346
0
LWPOLYLINE
5
116
100
AcDbEntity
8
0
100
AcDbPolyline
90
4
70
1
43
0.0
10
6.9122363199889048
20
-2.0631757866740363
10
7.7622363199888866
20
-2.0631757866740363
10
7.7622363199888866
20
-1.7631757866740383
10
6.9122363199889048
20
-1.7631757866740383
0
LWPOLYLINE
5
117
100
AcDbEntity
8
0
100
AcDbPolyline
90
4
70
1
43
0.0
10
7.7622363199888866
20
-1.5631757866740337
10
7.7622363199888866
20
-1.2631757866740401
10
6.9122363199889048
20
-1.2631757866740401
10
6.9122363199889048
20
-1.5631757866740337
0
LWPOLYLINE
5
118
100
AcDbEntity
8
0
100
AcDbPolyline
90
4
70
1
43
0.0
10
6.9122363199889048
20
-0.7631757866740374
10
6.9122363199889048
20
-1.0631757866740355
10
7.7622363199888866
20
-1.0631757866740355
10
7.7622363199888866
20
-0.7631757866740374
0
LWPOLYLINE
5
119
100
AcDbEntity
8
0
100
AcDbPolyline
90
4
70
1
43
0.0
10
6.9122363199889048
20
-0.26317578667403918
10
6.9122363199889048
20
-0.56317578667403723
10
7.7622363199888866
20
-0.56317578667403723
10
7.7622363199888866
20
-0.26317578667403918
0
LWPOLYLINE
5
120
100
AcDbEntity
8
0
100
AcDbPolyline
90
4
70
1
43
0.0
10
6.6872363199888873
20
-2.9631757866740438
10
6.6872363199888873
20
-0.36317578667403705
10
5.0872363199888859
20
-0.36317578667403705
10
5.0872363199888859
20
-2.9631757866740438
0
LWPOLYLINE
5
121
100
AcDbEntity
8
0
100
AcDbPolyline
90
4
70
1
43
0.0
10
-3.6922846800111042
20
-15.306351786674037
10
-0.14228468001111327
20
-15.306351786674037
10
-0.14228468001111327
20
-11.806351786674036
10
-3.6922846800111042
20
-11.806351786674036
0
LWPOLYLINE
5
122
100
AcDbEntity
8
0
100
AcDbPolyline
90
4
70
1
43
0.0
10
-9.092284680011101
20
-15.306351786674037
10
-9.092284680011101
20
-11.806351786674036
10
-12.642284680011095
20
-11.806351786674036
10
-12.642284680011095
20
-15.306351786674037
0
LWPOLYLINE
5
123
100
AcDbEntity
8
0
100
AcDbPolyline
90
4
70
1
43
0.0
10
-29.449763680011106
20
10.761824213325966
10
-30.389763680011107
20
10.761824213325966
10
-30.389763680011107
20
10.031824213325962
10
-29.449763680011106
20
10.031824213325962
0
LWPOLYLINE
5
124
100
AcDbEntity
8
0
100
AcDbPolyline
90
4
70
1
43
0.0
10
-30.389763680011107
20
9.341824213325971
10
-30.389763680011107
20
8.6118242133259635
10
-29.449763680011106
20
8.6118242133259635
10
-29.449763680011106
20
9.341824213325971
0
LWPOLYLINE
5
125
100
AcDbEntity
8
0
100
AcDbPolyline
90
4
70
1
43
0.0
10
4.6577153199888865
20
-4.0813517866740279
10
4.6577153199888865
20
-5.0313517866740343
10
5.4577153199888873
20
-5.0313517866740343
10
5.4577153199888873
20
-4.0813517866740279
0
LWPOLYLINE
5
126
100
AcDbEntity
8
0
100
AcDbPolyline
90
4
70
1
43
0.0
10
7.0577153199889064
20
-4.0813517866740279
10
6.2577153199889057
20
-4.0813517866740279
10
6.2577153199889057
20
-5.0313517866740343
10
7.0577153199889064
20
-5.0313517866740343
0
LWPOLYLINE
5
127
100
AcDbEntity
8
0
100
AcDbPolyline
90
4
70
1
43
0.0
10
0.86023631998890515
20
2.7968242133259613
10
-0.33976368001109147
20
2.7968242133259613
10
-0.33976368001109147
20
0.97682421332596192
10
0.86023631998890515
20
0.97682421332596192
0
LWPOLYLINE
5
128
100
AcDbEntity
8
0
100
AcDbPolyline
90
4
70
1
43
0.0
10
2.5802363199888845
20
2.7968242133259613
10
2.5802363199888845
20
0.97682421332596192
10
3.7802363199888944
20
0.97682421332596192
10
3.7802363199888944
20
2.7968242133259613
0
LWPOLYLINE
5
129
100
AcDbEntity
8
0
100
AcDbPolyline
90
4
70
1
43
0.0
10
2.5802363199889022
20
-2.888175786674041
10
2.5802363199889022
20
-3.8381757866740429
10
3.3802363199888941
20
-3.8381757866740429
10
3.3802363199888941
20
-2.888175786674041
0
LWPOLYLINE
5
130
100
AcDbEntity
8
0
100
AcDbPolyline
90
4
70
1
43
0.0
10
1.7802363199889015
20
-2.888175786674041
10
0.9802363199889097
20
-2.888175786674041
10
0.9802363199889097
20
-3.8381757866740429
10
1.7802363199889015
20
-3.8381757866740429
0
LWPOLYLINE
5
131
100
AcDbEntity
8
0
100
AcDbPolyline
90
4
70
1
43
0.0
10
8.3777153199888854
20
-10.716351786674036
10
8.3777153199888854
20
-8.8963517866740354
10
7.1777153199888843
20
-8.8963517866740354
10
7.1777153199888843
20
-10.716351786674036
0
LWPOLYLINE
5
132
100
AcDbEntity
8
0
100
AcDbPolyline
90
4
70
1
43
0.0
10
5.4577153199888961
20
-10.716351786674036
10
5.4577153199888961
20
-8.8963517866740354
10
4.2577153199888951
20
-8.8963517866740354
10
4.2577153199888951
20
-10.716351786674036
0
LWPOLYLINE
5
133
100
AcDbEntity
8
0
100
AcDbPolyline
90
4
70
1
43
0.0
10
-25.809763680011105
20
-9.0731757866740352
10
-25.809763680011105
20
-7.8531757866740364
10
-28.529763680011104
20
-7.8531757866740364
10
-28.529763680011104
20
-9.0731757866740352
0
LWPOLYLINE
5
134
100
AcDbEntity
8
0
100
AcDbPolyline
90
4
70
1
43
0.0
10
-28.529763680011104
20
-5.1531757866740469
10
-28.529763680011104
20
-6.3731757866740457
10
-25.809763680011105
20
-6.3731757866740457
10
-25.809763680011105
20
-5.1531757866740469
0
LWPOLYLINE
5
135
100
AcDbEntity
8
0
100
AcDbPolyline
90
4
70
1
43
0.0
10
-30.90976368001111
20
12.27182421332596
10
-30.90976368001111
20
13.061824213325956
10
-31.929763680011106
20
13.061824213325956
10
-31.929763680011106
20
12.27182421332596
0
LWPOLYLINE
5
136
100
AcDbEntity
8
0
100
AcDbPolyline
90
4
70
1
43
0.0
10
-31.929763680011106
20
13.711824213325965
10
-30.90976368001111
20
13.711824213325965
10
-30.90976368001111
20
14.501824213325962
10
-31.929763680011106
20
14.501824213325962
0
LWPOLYLINE
5
137
100
AcDbEntity
8
0
100
AcDbPolyline
90
4
70
1
43
0.0
10
-7.1172846800111067
20
-3.1563517866740343
10
-6.1672846800111047
20
-3.1563517866740343
10
-6.1672846800111047
20
-2.3563517866740424
10
-7.1172846800111067
20
-2.3563517866740424
0
LWPOLYLINE
5
138
100
AcDbEntity
8
0
100
AcDbPolyline
90
4
70
1
43
0.0
10
-6.1672846800111047
20
-4.7563517866740401
10
-6.1672846800111047
20
-3.9563517866740439
10
-7.1172846800111067
20
-3.9563517866740439
10
-7.1172846800111067
20
-4.7563517866740401
0
LWPOLYLINE
5
139
100
AcDbEntity
8
0
100
AcDbPolyline
90
4
70
1
43
0.0
10
-29.737763680011096
20
-2.4131757866740422
10
-28.537763680011096
20
-2.4131757866740422
10
-28.537763680011096
20
-1.8131757866740372
10
-29.737763680011096
20
-1.8131757866740372
0
LWPOLYLINE
5
140
100
AcDbEntity
8
0
100
AcDbPolyline
90
4
70
1
43
0.0
10
-29.737763680011096
20
-3.3631757866740397
10
-28.537763680011096
20
-3.3631757866740397
10
-28.537763680011096
20
-2.7631757866740392
10
-29.737763680011096
20
-2.7631757866740392
0
LWPOLYLINE
5
141
100
AcDbEntity
8
0
100
AcDbPolyline
90
4
70
1
43
0.0
10
-28.537763680011096
20
-3.7131757866740456
10
-29.737763680011096
20
-3.7131757866740456
10
-29.737763680011096
20
-4.3131757866740461
10
-28.537763680011096
20
-4.3131757866740461
0
LWPOLYLINE
5
142
100
AcDbEntity
8
0
100
AcDbPolyline
90
4
70
1
43
0.0
10
-27.237763680011096
20
-4.3131757866740461
10
-26.037763680011096
20
-4.3131757866740461
10
-26.037763680011096
20
-3.7131757866740456
10
-27.237763680011096
20
-3.7131757866740456
0
LWPOLYLINE
5
143
100
AcDbEntity
8
0
100
AcDbPolyline
90
4
70
1
43
0.0
10
-27.237763680011096
20
-2.7631757866740392
10
-27.237763680011096
20
-3.3631757866740397
10
-26.037763680011096
20
-3.3631757866740397
10
-26.037763680011096
20
-2.7631757866740392
0
LWPOLYLINE
5
144
100
AcDbEntity
8
0
100
AcDbPolyline
90
4
70
1
43
0.0
10
-27.237763680011096
20
-1.8131757866740372
10
-27.237763680011096
20
-2.4131757866740422
10
-26.037763680011096
20
-2.4131757866740422
10
-26.037763680011096
20
-1.8131757866740372
0
LWPOLYLINE
5
145
100
AcDbEntity
8
0
100
AcDbPolyline
90
4
70
1
43
0.0
10
1.6577153199888883
20
-12.206351786674041
10
0.55771531998889401
20
-12.206351786674041
10
0.55771531998889401
20
-14.206351786674041
10
1.6577153199888883
20
-14.206351786674041
0
LWPOLYLINE
5
146
100
AcDbEntity
8
0
100
AcDbPolyline
90
4
70
1
43
0.0
10
0.60771531998889294
20
-10.906351786674035
10
0.60771531998889294
20
-11.706351786674034
10
1.6077153199888983
20
-11.706351786674034
10
1.6077153199888983
20
-10.906351786674035
0
LWPOLYLINE
5
147
100
AcDbEntity
8
0
100
AcDbPolyline
90
4
70
1
43
0.0
10
-28.119763680011118
20
14.836824213325963
10
-28.119763680011118
20
14.436824213325954
10
-27.319763680011118
20
14.436824213325954
10
-27.319763680011118
20
14.836824213325963
0
LWPOLYLINE
5
148
100
AcDbEntity
8
0
100
AcDbPolyline
90
4
70
1
43
0.0
10
-28.119763680011118
20
14.036824213325971
10
-28.119763680011118
20
13.636824213325962
10
-27.319763680011118
20
13.636824213325962
10
-27.319763680011118
20
14.036824213325971
0
LWPOLYLINE
5
149
100
AcDbEntity
8
0
100
AcDbPolyline
90
4
70
1
43
0.0
10
-28.119763680011118
20
12.836824213325961
10
-27.319763680011118
20
12.836824213325961
10
-27.319763680011118
20
13.236824213325971
10
-28.119763680011118
20
13.236824213325971
0
LWPOLYLINE
5
150
100
AcDbEntity
8
0
100
AcDbPolyline
90
4
70
1
43
0.0
10
-28.119763680011118
20
12.036824213325952
10
-27.319763680011118
20
12.036824213325952
10
-27.319763680011118
20
12.436824213325956
10
-28.119763680011118
20
12.436824213325956
0
LWPOLYLINE
5
151
100
AcDbEntity
8
0
100
AcDbPolyline
90
4
70
1
43
0.0
10
-28.119763680011118
20
11.63682421332596
10
-28.119763680011118
20
11.23682421332596
10
-27.319763680011118
20
11.23682421332596
10
-27.319763680011118
20
11.63682421332596
0
LWPOLYLINE
5
152
100
AcDbEntity
8
0
100
AcDbPolyline
90
4
70
1
43
0.0
10
-27.319763680011118
20
10.836824213325965
10
-28.119763680011118
20
10.836824213325965
10
-28.119763680011118
20
10.436824213325959
10
-27.319763680011118
20
10.436824213325959
0
LWPOLYLINE
5
153
100
AcDbEntity
8
0
100
AcDbPolyline
90
4
70
1
43
0.0
10
-27.319763680011118
20
9.6368242133259585
10
-27.319763680011118
20
10.036824213325971
10
-28.119763680011118
20
10.036824213325971
10
-28.119763680011118
20
9.6368242133259585
0
LWPOLYLINE
5
154
100
AcDbEntity
8
0
100
AcDbPolyline
90
4
70
1
43
0.0
10
-27.319763680011118
20
8.8368242133259614
10
-27.319763680011118
20
9.236824213325967
10
-28.119763680011118
20
9.236824213325967
10
-28.119763680011118
20
8.8368242133259614
0
LWPOLYLINE
5
155
100
AcDbEntity
8
0
100
AcDbPolyline
90
4
70
1
43
0.0
10
-28.119763680011118
20
8.4368242133259574
10
-28.119763680011118
20
8.0368242133259535
10
-27.319763680011118
20
8.0368242133259535
10
-27.319763680011118
20
8.4368242133259574
0
LWPOLYLINE
5
156
100
AcDbEntity
8
0
100
AcDbPolyline
90
4
70
1
43
0.0
10
-27.319763680011118
20
7.6368242133259612
10
-28.119763680011118
20
7.6368242133259612
10
-28.119763680011118
20
7.2368242133259564
10
-27.319763680011118
20
7.2368242133259564
0
LWPOLYLINE
5
157
100
AcDbEntity
8
0
100
AcDbPolyline
90
4
70
1
43
0.0
10
-27.319763680011118
20
6.8368242133259649
10
-28.119763680011118
20
6.8368242133259649
10
-28.119763680011118
20
6.4368242133259557
10
-27.319763680011118
20
6.4368242133259557
0
LWPOLYLINE
5
158
100
AcDbEntity
8
0
100
AcDbPolyline
90
4
70
1
43
0.0
10
-26.819763680011093
20
5.3368242133259614
10
-26.419763680011098
20
5.3368242133259614
10
-26.419763680011098
20
6.1368242133259532
10
-26.819763680011093
20
6.1368242133259532
0
LWPOLYLINE
5
159
100
AcDbEntity
8
0
100
AcDbPolyline
90
4
70
1
43
0.0
10
-25.619763680011111
20
5.3368242133259614
10
-25.619763680011111
20
6.1368242133259532
10
-26.01976368001111
20
6.1368242133259532
10
-26.01976368001111
20
5.3368242133259614
0
LWPOLYLINE
5
160
100
AcDbEntity
8
0
100
AcDbPolyline
90
4
70
1
43
0.0
10
-25.219763680011098
20
6.1368242133259532
10
-25.219763680011098
20
5.3368242133259614
10
-24.8197636800111
20
5.3368242133259614
10
-24.8197636800111
20
6.1368242133259532
0
LWPOLYLINE
5
161
100
AcDbEntity
8
0
100
AcDbPolyline
90
4
70
1
43
0.0
10
-24.419763680011116
20
5.3368242133259614
10
-24.019763680011117
20
5.3368242133259614
10
-24.019763680011117
20
6.1368242133259532
10
-24.419763680011116
20
6.1368242133259532
0
LWPOLYLINE
5
162
100
AcDbEntity
8
0
100
AcDbPolyline
90
4
70
1
43
0.0
10
-23.619763680011108
20
6.1368242133259532
10
-23.619763680011108
20
5.3368242133259614
10
-23.219763680011106
20
5.3368242133259614
10
-23.219763680011106
20
6.1368242133259532
0
LWPOLYLINE
5
163
100
AcDbEntity
8
0
100
AcDbPolyline
90
4
70
1
43
0.0
10
-22.819763680011093
20
5.3368242133259614
10
-22.419763680011098
20
5.3368242133259614
10
-22.419763680011098
20
6.1368242133259532
10
-22.819763680011093
20
6.1368242133259532
0
LWPOLYLINE
5
164
100
AcDbEntity
8
0
100
AcDbPolyline
90
4
70
1
43
0.0
10
-21.619763680011115
20
6.1368242133259532
10
-22.01976368001111
20
6.1368242133259532
10
-22.01976368001111
20
5.3368242133259614
10
-21.619763680011115
20
5.3368242133259614
0
LWPOLYLINE
5
165
100
AcDbEntity
8
0
100
AcDbPolyline
90
4
70
1
43
0.0
10
-20.8197636800111
20
6.1368242133259532
10
-21.219763680011098
20
6.1368242133259532
10
-21.219763680011098
20
5.3368242133259614
10
-20.8197636800111
20
5.3368242133259614
0
LWPOLYLINE
5
166
100
AcDbEntity
8
0
100
AcDbPolyline
90
4
70
1
43
0.0
10
-20.419763680011116
20
6.1368242133259532
10
-20.419763680011116
20
5.3368242133259614
10
-20.019763680011117
20
5.3368242133259614
10
-20.019763680011117
20
6.1368242133259532
0
LWPOLYLINE
5
167
100
AcDbEntity
8
0
100
AcDbPolyline
90
4
70
1
43
0.0
10
-19.219763680011109
20
6.1368242133259532
10
-19.619763680011104
20
6.1368242133259532
10
-19.619763680011104
20
5.3368242133259614
10
-19.219763680011109
20
5.3368242133259614
0
LWPOLYLINE
5
168
100
AcDbEntity
8
0
100
AcDbPolyline
90
4
70
1
43
0.0
10
-18.419763680011094
20
5.3368242133259614
10
-18.419763680011094
20
6.1368242133259532
10
-18.8197636800111
20
6.1368242133259532
10
-18.8197636800111
20
5.3368242133259614
0
LWPOLYLINE
5
169
100
AcDbEntity
8
0
100
AcDbPolyline
90
4
70
1
43
0.0
10
-17.619763680011111
20
6.1368242133259532
10
-18.01976368001111
20
6.1368242133259532
10
-18.01976368001111
20
5.3368242133259614
10
-17.619763680011111
20
5.3368242133259614
0
LWPOLYLINE
5
170
100
AcDbEntity
8
0
100
AcDbPolyline
90
4
70
1
43
0.0
10
-16.8197636800111
20
5.3368242133259614
10
-16.8197636800111
20
6.1368242133259532
10
-17.219763680011098
20
6.1368242133259532
10
-17.219763680011098
20
5.3368242133259614
0
LWPOLYLINE
5
171
100
AcDbEntity
8
0
100
AcDbPolyline
90
4
70
1
43
0.0
10
-15.519763680011106
20
6.8368242133259649
10
-16.319763680011103
20
6.8368242133259649
10
-16.319763680011103
20
6.4368242133259557
10
-15.519763680011106
20
6.4368242133259557
0
LWPOLYLINE
5
172
100
AcDbEntity
8
0
100
AcDbPolyline
90
4
70
1
43
0.0
10
-15.519763680011106
20
7.2368242133259564
10
-15.519763680011106
20
7.6368242133259612
10
-16.319763680011103
20
7.6368242133259612
10
-16.319763680011103
20
7.2368242133259564
0
LWPOLYLINE
5
173
100
AcDbEntity
8
0
100
AcDbPolyline
90
4
70
1
43
0.0
10
-16.319763680011103
20
8.4368242133259574
10
-16.319763680011103
20
8.0368242133259535
10
-15.519763680011106
20
8.0368242133259535
10
-15.519763680011106
20
8.4368242133259574
0
LWPOLYLINE
5
174
100
AcDbEntity
8
0
100
AcDbPolyline
90
4
70
1
43
0.0
10
-16.319763680011103
20
8.8368242133259614
10
-15.519763680011106
20
8.8368242133259614
10
-15.519763680011106
20
9.236824213325967
10
-16.319763680011103
20
9.236824213325967
0
LWPOLYLINE
5
175
100
AcDbEntity
8
0
100
AcDbPolyline
90
4
70
1
43
0.0
10
-16.319763680011103
20
10.036824213325971
10
-16.319763680011103
20
9.6368242133259585
10
-15.519763680011106
20
9.6368242133259585
10
-15.519763680011106
20
10.036824213325971
0
LWPOLYLINE
5
176
100
AcDbEntity
8
0
100
AcDbPolyline
90
4
70
1
43
0.0
10
-16.319763680011103
20
10.836824213325965
10
-16.319763680011103
20
10.436824213325959
10
-15.519763680011106
20
10.436824213325959
10
-15.519763680011106
20
10.836824213325965
0
LWPOLYLINE
5
177
100
AcDbEntity
8
0
100
AcDbPolyline
90
4
70
1
43
0.0
10
-15.519763680011106
20
11.63682421332596
10
-16.319763680011103
20
11.63682421332596
10
-16.319763680011103
20
11.23682421332596
10
-15.519763680011106
20
11.23682421332596
0
LWPOLYLINE
5
178
100
AcDbEntity
8
0
100
AcDbPolyline
90
4
70
1
43
0.0
10
-16.319763680011103
20
12.436824213325956
10
-16.319763680011103
20
12.036824213325952
10
-15.519763680011106
20
12.036824213325952
10
-15.519763680011106
20
12.436824213325956
0
LWPOLYLINE
5
179
100
AcDbEntity
8
0
100
AcDbPolyline
90
4
70
1
43
0.0
10
-15.519763680011106
20
13.236824213325971
10
-16.319763680011103
20
13.236824213325971
10
-16.319763680011103
20
12.836824213325961
10
-15.519763680011106
20
12.836824213325961
0
LWPOLYLINE
5
180
100
AcDbEntity
8
0
100
AcDbPolyline
90
4
70
1
43
0.0
10
-16.319763680011103
20
13.636824213325962
10
-15.519763680011106
20
13.636824213325962
10
-15.519763680011106
20
14.036824213325971
10
-16.319763680011103
20
14.036824213325971
0
LWPOLYLINE
5
181
100
AcDbEntity
8
0
100
AcDbPolyline
90
4
70
1
43
0.0
10
-16.319763680011103
20
14.436824213325954
10
-15.519763680011106
20
14.436824213325954
10
-15.519763680011106
20
14.836824213325963
10
-16.319763680011103
20
14.836824213325963
0
LWPOLYLINE
5
182
100
AcDbEntity
8
0
100
AcDbPolyline
90
4
70
1
43
0.0
10
-16.8197636800111
20
15.936824213325957
10
-17.219763680011098
20
15.936824213325957
10
-17.219763680011098
20
15.136824213325957
10
-16.8197636800111
20
15.136824213325957
0
LWPOLYLINE
5
183
100
AcDbEntity
8
0
100
AcDbPolyline
90
4
70
1
43
0.0
10
-18.01976368001111
20
15.936824213325957
10
-18.01976368001111
20
15.136824213325957
10
-17.619763680011111
20
15.136824213325957
10
-17.619763680011111
20
15.936824213325957
0
LWPOLYLINE
5
184
100
AcDbEntity
8
0
100
AcDbPolyline
90
4
70
1
43
0.0
10
-18.419763680011094
20
15.936824213325957
10
-18.8197636800111
20
15.936824213325957
10
-18.8197636800111
20
15.136824213325957
10
-18.419763680011094
20
15.136824213325957
0
LWPOLYLINE
5
185
100
AcDbEntity
8
0
100
AcDbPolyline
90
4
70
1
43
0.0
10
-19.619763680011104
20
15.936824213325957
10
-19.619763680011104
20
15.136824213325957
10
-19.219763680011109
20
15.136824213325957
10
-19.219763680011109
20
15.936824213325957
0
LWPOLYLINE
5
186
100
AcDbEntity
8
0
100
AcDbPolyline
90
4
70
1
43
0.0
10
-20.419763680011116
20
15.136824213325957
10
-20.019763680011117
20
15.136824213325957
10
-20.019763680011117
20
15.936824213325957
10
-20.419763680011116
20
15.936824213325957
0
LWPOLYLINE
5
187
100
AcDbEntity
8
0
100
AcDbPolyline
90
4
70
1
43
0.0
10
-21.219763680011098
20
15.936824213325957
10
-21.219763680011098
20
15.136824213325957
10
-20.8197636800111
20
15.136824213325957
10
-20.8197636800111
20
15.936824213325957
0
LWPOLYLINE
5
188
100
AcDbEntity
8
0
100
AcDbPolyline
90
4
70
1
43
0.0
10
-21.619763680011115
20
15.136824213325957
10
-21.619763680011115
20
15.936824213325957
10
-22.01976368001111
20
15.936824213325957
10
-22.01976368001111
20
15.136824213325957
0
LWPOLYLINE
5
189
100
AcDbEntity
8
0
100
AcDbPolyline
90
4
70
1
43
0.0
10
-22.419763680011098
20
15.136824213325957
10
-22.419763680011098
20
15.936824213325957
10
-22.819763680011093
20
15.936824213325957
10
-22.819763680011093
20
15.136824213325957
0
LWPOLYLINE
5
190
100
AcDbEntity
8
0
100
AcDbPolyline
90
4
70
1
43
0.0
10
-23.219763680011106
20
15.136824213325957
10
-23.219763680011106
20
15.936824213325957
10
-23.619763680011108
20
15.936824213325957
10
-23.619763680011108
20
15.136824213325957
0
LWPOLYLINE
5
191
100
AcDbEntity
8
0
100
AcDbPolyline
90
4
70
1
43
0.0
10
-24.019763680011117
20
15.136824213325957
10
-24.019763680011117
20
15.936824213325957
10
-24.419763680011116
20
15.936824213325957
10
-24.419763680011116
20
15.136824213325957
0
LWPOLYLINE
5
192
100
AcDbEntity
8
0
100
AcDbPolyline
90
4
70
1
43
0.0
10
-24.8197636800111
20
15.936824213325957
10
-25.219763680011098
20
15.936824213325957
10
-25.219763680011098
20
15.136824213325957
10
-24.8197636800111
20
15.136824213325957
0
LWPOLYLINE
5
193
100
AcDbEntity
8
0
100
AcDbPolyline
90
4
70
1
43
0.0
10
-26.01976368001111
20
15.936824213325957
10
-26.01976368001111
20
15.136824213325957
10
-25.619763680011111
20
15.136824213325957
10
-25.619763680011111
20
15.936824213325957
0
LWPOLYLINE
5
194
100
AcDbEntity
8
0
100
AcDbPolyline
90
4
70
1
43
0.0
10
-26.819763680011093
20
15.136824213325957
10
-26.419763680011098
20
15.136824213325957
10
-26.419763680011098
20
15.936824213325957
10
-26.819763680011093
20
15.936824213325957
0
LWPOLYLINE
5
195
100
AcDbEntity
8
0
100
AcDbPolyline
90
4
70
1
43
0.0
10
-21.094763680011106
20
9.9118242133259571
10
-21.094763680011106
20
11.361824213325962
10
-22.544763680011112
20
11.361824213325962
10
-22.544763680011112
20
9.9118242133259571
0
LWPOLYLINE
5
196
100
AcDbEntity
8
0
100
AcDbPolyline
90
4
70
1
43
0.0
10
-16.219763680011098
20
15.936824213325957
10
-16.219763680011098
20
15.236824213325963
10
-15.519763680011094
20
15.236824213325963
10
-15.519763680011094
20
15.936824213325957
0
LWPOLYLINE
5
197
100
AcDbEntity
8
0
100
AcDbPolyline
90
4
70
1
43
0.0
10
-15.519763680011094
20
6.0368242133259598
10
-16.219763680011098
20
6.0368242133259598
10
-16.219763680011098
20
5.3368242133259614
10
-15.519763680011094
20
5.3368242133259614
0
LWPOLYLINE
5
198
100
AcDbEntity
8
0
100
AcDbPolyline
90
4
70
1
43
0.0
10
-27.419763680011098
20
6.0368242133259598
10
-28.119763680011101
20
6.0368242133259598
10
-28.119763680011101
20
5.3368242133259614
10
-27.419763680011098
20
5.3368242133259614
0
LWPOLYLINE
5
199
100
AcDbEntity
8
0
100
AcDbPolyline
90
4
70
1
43
0.0
10
-28.119763680011101
20
15.936824213325957
10
-28.119763680011101
20
15.236824213325963
10
-27.419763680011098
20
15.236824213325963
10
-27.419763680011098
20
15.936824213325957
0
LWPOLYLINE
5
200
100
AcDbEntity
8
0
100
AcDbPolyline
90
4
70
1
43
0.0
10
-24.519763680011106
20
11.886824213325955
10
-23.0697636800111
20
11.886824213325955
10
-23.0697636800111
20
13.336824213325965
10
-24.519763680011106
20
13.336824213325965
0
LWPOLYLINE
5
201
100
AcDbEntity
8
0
100
AcDbPolyline
90
4
70
1
43
0.0
10
-23.0697636800111
20
9.9118242133259571
10
-23.0697636800111
20
11.361824213325962
10
-24.519763680011106
20
11.361824213325962
10
-24.519763680011106
20
9.9118242133259571
0
LWPOLYLINE
5
202
100
AcDbEntity
8
0
100
AcDbPolyline
90
4
70
1
43
0.0
10
-23.0697636800111
20
9.3868242133259692
10
-24.519763680011106
20
9.3868242133259692
10
-24.519763680011106
20
7.9368242133259637
10
-23.0697636800111
20
7.9368242133259637
0
LWPOLYLINE
5
203
100
AcDbEntity
8
0
100
AcDbPolyline
90
4
70
1
43
0.0
10
-22.544763680011112
20
9.3868242133259692
10
-22.544763680011112
20
7.9368242133259637
10
-21.094763680011106
20
7.9368242133259637
10
-21.094763680011106
20
9.3868242133259692
0
LWPOLYLINE
5
204
100
AcDbEntity
8
0
100
AcDbPolyline
90
4
70
1
43
0.0
10
-19.119763680011118
20
9.3868242133259692
10
-20.569763680011121
20
9.3868242133259692
10
-20.569763680011121
20
7.9368242133259637
10
-19.119763680011118
20
7.9368242133259637
0
LWPOLYLINE
5
205
100
AcDbEntity
8
0
100
AcDbPolyline
90
4
70
1
43
0.0
10
-20.569763680011121
20
9.9118242133259571
10
-19.119763680011118
20
9.9118242133259571
10
-19.119763680011118
20
11.361824213325962
10
-20.569763680011121
20
11.361824213325962
0
LWPOLYLINE
5
206
100
AcDbEntity
8
0
100
AcDbPolyline
90
4
70
1
43
0.0
10
-20.569763680011121
20
11.886824213325955
10
-19.119763680011118
20
11.886824213325955
10
-19.119763680011118
20
13.336824213325965
10
-20.569763680011121
20
13.336824213325965
0
LWPOLYLINE
5
207
100
AcDbEntity
8
0
100
AcDbPolyline
90
4
70
1
43
0.0
10
-21.094763680011106
20
13.336824213325965
10
-22.544763680011112
20
13.336824213325965
10
-22.544763680011112
20
11.886824213325955
10
-21.094763680011106
20
11.886824213325955
0
LWPOLYLINE
5
208
100
AcDbEntity
8
0
100
AcDbPolyline
90
4
70
1
43
0.0
10
19.505236319988892
20
-0.71317578667404291
10
18.455236319988906
20
-0.71317578667404291
10
18.455236319988906
20
-2.5131757866740401
10
19.505236319988892
20
-2.5131757866740401
0
LWPOLYLINE
5
209
100
AcDbEntity
8
0
100
AcDbPolyline
90
4
70
1
43
0.0
10
16.405236319988905
20
-0.71317578667404291
10
15.35523631998891
20
-0.71317578667404291
10
15.35523631998891
20
-2.5131757866740401
10
16.405236319988905
20
-2.5131757866740401
0
LWPOLYLINE
5
210
100
AcDbEntity
8
0
100
AcDbPolyline
90
4
70
1
43
0.0
10
-31.169763680011108
20
8.4118242133259571
10
-31.169763680011108
20
9.3618242133259599
10
-32.169763680011108
20
9.3618242133259599
10
-32.169763680011108
20
8.4118242133259571
0
LWPOLYLINE
5
211
100
AcDbEntity
8
0
100
AcDbPolyline
90
4
70
1
43
0.0
10
-32.169763680011108
20
10.961824213325961
10
-32.169763680011108
20
10.011824213325955
10
-31.169763680011108
20
10.011824213325955
10
-31.169763680011108
20
10.961824213325961
0
LWPOLYLINE
5
212
100
AcDbEntity
8
0
100
AcDbPolyline
90
4
70
1
43
0.0
10
5.6827153199888869
20
-16.006351786674035
10
5.6827153199888869
20
-18.106351786674036
10
10.032715319988892
20
-18.106351786674036
10
10.032715319988892
20
-16.006351786674035
0
LWPOLYLINE
5
213
100
AcDbEntity
8
0
100
AcDbPolyline
90
4
70
1
43
0.0
10
20.232715319988888
20
-18.106351786674036
10
20.232715319988888
20
-16.006351786674035
10
15.882715319988892
20
-16.006351786674035
10
15.882715319988892
20
-18.106351786674036
0
LWPOLYLINE
5
214
100
AcDbEntity
8
0
100
AcDbPolyline
90
4
70
1
43
0.0
10
-1.1122846800111041
20
-5.7313517866740371
10
-1.1122846800111041
20
-6.4613517866740411
10
-0.17228468001110553
20
-6.4613517866740411
10
-0.17228468001110553
20
-5.7313517866740371
0
LWPOLYLINE
5
215
100
AcDbEntity
8
0
100
AcDbPolyline
90
4
70
1
43
0.0
10
-1.1122846800111041
20
-7.8813517866740401
10
-0.17228468001110553
20
-7.8813517866740401
10
-0.17228468001110553
20
-7.1513517866740406
10
-1.1122846800111041
20
-7.1513517866740406
0
LWPOLYLINE
5
216
100
AcDbEntity
8
0
100
AcDbPolyline
90
4
70
1
43
0.0
10
-24.199763680011106
20
-7.458175786674035
10
-25.139763680011107
20
-7.458175786674035
10
-25.139763680011107
20
-8.1881757866740319
10
-24.199763680011106
20
-8.1881757866740319
0
LWPOLYLINE
5
217
100
AcDbEntity
8
0
100
AcDbPolyline
90
4
70
1
43
0.0
10
-24.199763680011106
20
-6.0381757866740493
10
-25.139763680011107
20
-6.0381757866740493
10
-25.139763680011107
20
-6.7681757866740444
10
-24.199763680011106
20
-6.7681757866740444
0
LWPOLYLINE
5
218
100
AcDbEntity
8
0
100
AcDbPolyline
90
4
70
1
43
0.0
10
7.5902363199888878
20
9.7468242133259508
10
7.5902363199888878
20
10.946824213325961
10
5.7702363199888929
20
10.946824213325961
10
5.7702363199888929
20
9.7468242133259508
0
LWPOLYLINE
5
219
100
AcDbEntity
8
0
100
AcDbPolyline
90
4
70
1
43
0.0
10
5.7702363199888929
20
6.826824213325966
10
7.5902363199888878
20
6.826824213325966
10
7.5902363199888878
20
8.0268242133259662
10
5.7702363199888929
20
8.0268242133259662
0
LWPOLYLINE
5
220
100
AcDbEntity
8
0
100
AcDbPolyline
90
4
70
1
43
0.0
10
-25.090763680011104
20
-9.8611757866740408
10
-25.090763680011104
20
-11.681175786674041
10
-23.890763680011101
20
-11.681175786674041
10
-23.890763680011101
20
-9.8611757866740408
0
LWPOLYLINE
5
221
100
AcDbEntity
8
0
100
AcDbPolyline
90
4
70
1
43
0.0
10
-23.890763680011101
20
-14.601175786674045
10
-23.890763680011101
20
-12.781175786674046
10
-25.090763680011104
20
-12.781175786674046
10
-25.090763680011104
20
-14.601175786674045
0
LWPOLYLINE
5
222
100
AcDbEntity
8
0
100
AcDbPolyline
90
4
70
1
43
0.0
10
-28.0207636800111
20
-11.846175786674035
10
-28.0207636800111
20
-11.116175786674036
10
-28.960763680011105
20
-11.116175786674036
10
-28.960763680011105
20
-11.846175786674035
0
LWPOLYLINE
5
223
100
AcDbEntity
8
0
100
AcDbPolyline
90
4
70
1
43
0.0
10
-28.0207636800111
20
-12.536175786674036
10
-28.960763680011105
20
-12.536175786674036
10
-28.960763680011105
20
-13.266175786674035
10
-28.0207636800111
20
-13.266175786674035
0
LWPOLYLINE
5
224
100
AcDbEntity
8
0
100
AcDbPolyline
90
4
70
1
43
0.0
10
2.2052363199888969
20
0.13182421332595951
10
1.3952363199888929
20
0.13182421332595951
10
1.3952363199888929
20
-0.85817578667404248
10
2.2052363199888969
20
-0.85817578667404248
0
LWPOLYLINE
5
225
100
AcDbEntity
8
0
100
AcDbPolyline
90
4
70
1
43
0.0
10
3.5852363199888959
20
0.13182421332595951
10
2.7752363199888919
20
0.13182421332595951
10
2.7752363199888919
20
-0.85817578667404248
10
3.5852363199888959
20
-0.85817578667404248
0
LWPOLYLINE
5
226
100
AcDbEntity
8
0
100
AcDbPolyline
90
4
70
1
43
0.0
10
-25.344763680011102
20
-3.8631757866740424
10
-23.194763680011103
20
-3.8631757866740424
10
-23.194763680011103
20
-0.36317578667404149
10
-25.344763680011102
20
-0.36317578667404149
0
LWPOLYLINE
5
227
100
AcDbEntity
8
0
100
AcDbPolyline
90
4
70
1
43
0.0
10
-18.844763680011106
20
-0.36317578667404149
10
-20.994763680011104
20
-0.36317578667404149
10
-20.994763680011104
20
-3.8631757866740424
10
-18.844763680011106
20
-3.8631757866740424
0
LWPOLYLINE
5
228
100
AcDbEntity
8
0
100
AcDbPolyline
90
4
70
1
43
0.0
10
-18.432263680011104
20
2.4743242133259713
10
-18.907263680011109
20
2.4743242133259713
10
-18.907263680011109
20
1.9743242133259686
10
-18.432263680011104
20
1.9743242133259686
0
LWPOLYLINE
5
229
100
AcDbEntity
8
0
100
AcDbPolyline
90
4
70
1
43
0.0
10
-18.907263680011109
20
3.7993242133259564
10
-18.432263680011104
20
3.7993242133259564
10
-18.432263680011104
20
4.2993242133259546
10
-18.907263680011109
20
4.2993242133259546
0
LWPOLYLINE
5
230
100
AcDbEntity
8
0
100
AcDbPolyline
90
4
70
1
43
0.0
10
-32.744763680011104
20
-3.9131757866740413
10
-32.744763680011104
20
-4.8131757866740399
10
-32.094763680011106
20
-4.8131757866740399
10
-32.094763680011106
20
-3.9131757866740413
0
LWPOLYLINE
5
231
100
AcDbEntity
8
0
100
AcDbPolyline
90
4
70
1
43
0.0
10
-31.294763680011105
20
-4.8131757866740399
10
-30.644763680011103
20
-4.8131757866740399
10
-30.644763680011103
20
-3.9131757866740413
10
-31.294763680011105
20
-3.9131757866740413
0
LWPOLYLINE
5
232
100
AcDbEntity
8
0
100
AcDbPolyline
90
4
70
1
43
0.0
10
-23.944763680011107
20
3.4868242133259608
10
-23.944763680011107
20
4.2868242133259571
10
-24.894763680011103
20
4.2868242133259571
10
-24.894763680011103
20
3.4868242133259608
0
LWPOLYLINE
5
233
100
AcDbEntity
8
0
100
AcDbPolyline
90
4
70
1
43
0.0
10
-23.944763680011107
20
2.6868242133259645
10
-24.894763680011103
20
2.6868242133259645
10
-24.894763680011103
20
1.8868242133259727
10
-23.944763680011107
20
1.8868242133259727
0
LWPOLYLINE
5
234
100
AcDbEntity
8
0
100
AcDbPolyline
90
4
70
1
43
0.0
10
9.7302363199889097
20
-1.3881757866740374
10
9.7302363199889097
20
-2.3381757866740394
10
10.53023631998891
20
-2.3381757866740394
10
10.53023631998891
20
-1.3881757866740374
0
LWPOLYLINE
5
235
100
AcDbEntity
8
0
100
AcDbPolyline
90
4
70
1
43
0.0
10
11.330236319988902
20
-2.3381757866740394
10
12.130236319988894
20
-2.3381757866740394
10
12.130236319988894
20
-1.3881757866740374
10
11.330236319988902
20
-1.3881757866740374
0
LWPOLYLINE
5
236
100
AcDbEntity
8
0
100
AcDbPolyline
90
4
70
1
43
0.0
10
-27.290763680011089
20
-14.666175786674046
10
-27.290763680011089
20
-13.716175786674045
10
-28.090763680011097
20
-13.716175786674045
10
-28.090763680011097
20
-14.666175786674046
0
LWPOLYLINE
5
237
100
AcDbEntity
8
0
100
AcDbPolyline
90
4
70
1
43
0.0
10
-28.890763680011116
20
-14.666175786674046
10
-28.890763680011116
20
-13.716175786674045
10
-29.690763680011116
20
-13.716175786674045
10
-29.690763680011116
20
-14.666175786674046
0
LWPOLYLINE
5
238
100
AcDbEntity
8
0
100
AcDbPolyline
90
4
70
1
43
0.0
10
-10.417284680011116
20
-5.4063517866740352
10
-11.467284680011115
20
-5.4063517866740352
10
-11.467284680011115
20
-7.2063517866740323
10
-10.417284680011116
20
-7.2063517866740323
0
LWPOLYLINE
5
239
100
AcDbEntity
8
0
100
AcDbPolyline
90
4
70
1
43
0.0
10
-8.3672846800110978
20
-5.4063517866740352
10
-8.3672846800110978
20
-7.2063517866740323
10
-7.3172846800110936
20
-7.2063517866740323
10
-7.3172846800110936
20
-5.4063517866740352
0
LWPOLYLINE
5
240
100
AcDbEntity
8
0
100
AcDbPolyline
90
4
70
1
43
0.0
10
-5.1122846800111033
20
-3.2113517866740438
10
-4.1722846800111046
20
-3.2113517866740438
10
-4.1722846800111046
20
-2.4813517866740398
10
-5.1122846800111033
20
-2.4813517866740398
0
LWPOLYLINE
5
241
100
AcDbEntity
8
0
100
AcDbPolyline
90
4
70
1
43
0.0
10
-4.1722846800111046
20
-4.6313517866740428
10
-4.1722846800111046
20
-3.9013517866740388
10
-5.1122846800111033
20
-3.9013517866740388
10
-5.1122846800111033
20
-4.6313517866740428
0
LWPOLYLINE
5
242
100
AcDbEntity
8
0
100
AcDbPolyline
90
4
70
1
43
0.0
10
-30.244763680011104
20
-18.391175786674047
10
-31.064763680011108
20
-18.391175786674047
10
-31.064763680011108
20
-18.801175786674044
10
-30.244763680011104
20
-18.801175786674044
0
LWPOLYLINE
5
243
100
AcDbEntity
8
0
100
AcDbPolyline
90
4
70
1
43
0.0
10
-31.064763680011108
20
-17.121175786674034
10
-31.064763680011108
20
-17.531175786674034
10
-30.244763680011104
20
-17.531175786674034
10
-30.244763680011104
20
-17.121175786674034
0
LWPOLYLINE
5
244
100
AcDbEntity
8
0
100
AcDbPolyline
90
4
70
1
43
0.0
10
-31.064763680011108
20
-16.261175786674038
10
-30.244763680011104
20
-16.261175786674038
10
-30.244763680011104
20
-15.851175786674039
10
-31.064763680011108
20
-15.851175786674039
0
LWPOLYLINE
5
245
100
AcDbEntity
8
0
100
AcDbPolyline
90
4
70
1
43
0.0
10
-31.064763680011108
20
-14.581175786674043
10
-31.064763680011108
20
-14.991175786674042
10
-30.244763680011104
20
-14.991175786674042
10
-30.244763680011104
20
-14.581175786674043
0
LWPOLYLINE
5
246
100
AcDbEntity
8
0
100
AcDbPolyline
90
4
70
1
43
0.0
10
-32.355763680011108
20
-14.660675786674046
10
-35.985763680011111
20
-14.660675786674046
10
-35.985763680011111
20
-18.721675786674044
10
-32.355763680011108
20
-18.721675786674044
0
LWPOLYLINE
5
247
100
AcDbEntity
8
0
100
AcDbPolyline
90
4
70
1
43
0.0
10
-36.495763680011109
20
-19.191175786674041
10
-35.985763680011104
20
-19.191175786674041
10
-35.985763680011104
20
-14.191175786674046
10
-36.495763680011109
20
-14.191175786674046
0
LWPOLYLINE
5
248
100
AcDbEntity
8
0
100
AcDbPolyline
90
4
70
1
43
0.0
10
-33.674763680011111
20
-18.721675786674048
10
-33.674763680011111
20
-19.316675786674047
10
-33.064763680011112
20
-19.316675786674047
10
-33.064763680011112
20
-18.721675786674048
0
LWPOLYLINE
5
249
100
AcDbEntity
8
0
100
AcDbPolyline
90
4
70
1
43
0.0
10
-33.064763680011112
20
-14.065675786674042
10
-33.674763680011111
20
-14.065675786674042
10
-33.674763680011111
20
-14.660675786674041
10
-33.064763680011112
20
-14.660675786674041
0
LWPOLYLINE
5
250
100
AcDbEntity
8
0
100
AcDbPolyline
90
4
70
1
43
0.0
10
-27.2357636800111
20
-11.136175786674038
10
-27.2357636800111
20
-11.946175786674036
10
-26.245763680011109
20
-11.946175786674036
10
-26.245763680011109
20
-11.136175786674038
0
LWPOLYLINE
5
251
100
AcDbEntity
8
0
100
AcDbPolyline
90
4
70
1
43
0.0
10
-26.245763680011109
20
-12.516175786674049
10
-27.2357636800111
20
-12.516175786674049
10
-27.2357636800111
20
-13.326175786674046
10
-26.245763680011109
20
-13.326175786674046
0
LWPOLYLINE
5
252
100
AcDbEntity
8
0
100
AcDbPolyline
90
4
70
1
43
0.0
10
-2.4922846800110943
20
-5.5813517866740314
10
-2.4922846800110943
20
-6.5313517866740378
10
-1.6922846800110936
20
-6.5313517866740378
10
-1.6922846800110936
20
-5.5813517866740314
0
LWPOLYLINE
5
253
100
AcDbEntity
8
0
100
AcDbPolyline
90
4
70
1
43
0.0
10
-3.2922846800111127
20
-5.5813517866740314
10
-4.0922846800111135
20
-5.5813517866740314
10
-4.0922846800111135
20
-6.5313517866740378
10
-3.2922846800111127
20
-6.5313517866740378
0
LWPOLYLINE
5
254
100
AcDbEntity
8
0
100
AcDbPolyline
90
4
70
1
43
0.0
10
-30.619763680011115
20
-5.4131757866740404
10
-31.269763680011113
20
-5.4131757866740404
10
-31.269763680011113
20
-6.313175786674039
10
-30.619763680011115
20
-6.313175786674039
0
LWPOLYLINE
5
255
100
AcDbEntity
8
0
100
AcDbPolyline
90
4
70
1
43
0.0
10
-32.719763680011098
20
-5.4131757866740404
10
-32.719763680011098
20
-6.313175786674039
10
-32.0697636800111
20
-6.313175786674039
10
-32.0697636800111
20
-5.4131757866740404
0
LWPOLYLINE
5
256
100
AcDbEntity
8
0
100
AcDbPolyline
90
4
70
1
43
0.0
10
2.3552363199888848
20
8.0868242133259649
10
2.3552363199888848
20
10.186824213325956
10
-1.9947636800111068
20
10.186824213325956
10
-1.9947636800111068
20
8.0868242133259649
0
LWPOLYLINE
5
257
100
AcDbEntity
8
0
100
AcDbPolyline
90
4
70
1
43
0.0
10
-7.844763680011102
20
8.0868242133259649
10
-7.844763680011102
20
10.186824213325956
10
-12.194763680011098
20
10.186824213325956
10
-12.194763680011098
20
8.0868242133259649
0
LWPOLYLINE
5
258
100
AcDbEntity
8
0
100
AcDbPolyline
90
4
70
1
43
0.0
10
8.1377153199888941
20
-1.4013517866740388
10
8.1377153199888941
20
-2.1313517866740384
10
9.0777153199888971
20
-2.1313517866740384
10
9.0777153199888971
20
-1.4013517866740388
0
LWPOLYLINE
5
259
100
AcDbEntity
8
0
100
AcDbPolyline
90
4
70
1
43
0.0
10
8.1377153199888941
20
0.018648213325960228
10
8.1377153199888941
20
-0.71135178667404375
10
9.0777153199888971
20
-0.71135178667404375
10
9.0777153199888971
20
0.018648213325960228
0
LWPOLYLINE
5
260
100
AcDbEntity
8
0
100
AcDbPolyline
90
4
70
1
43
0.0
10
-33.432263680011104
20
11.049324213325962
10
-33.907263680011106
20
11.049324213325962
10
-33.907263680011106
20
10.549324213325963
10
-33.432263680011104
20
10.549324213325963
0
LWPOLYLINE
5
261
100
AcDbEntity
8
0
100
AcDbPolyline
90
4
70
1
43
0.0
10
-33.432263680011104
20
9.2243242133259749
10
-33.907263680011106
20
9.2243242133259749
10
-33.907263680011106
20
8.7243242133259713
10
-33.432263680011104
20
8.7243242133259713
0
LWPOLYLINE
5
262
100
AcDbEntity
8
0
100
AcDbPolyline
90
4
70
1
43
0.0
10
-18.790763680011104
20
-9.1411757866740366
10
-18.790763680011104
20
-13.041175786674035
10
-16.690763680011102
20
-13.041175786674035
10
-16.690763680011102
20
-9.1411757866740366
0
LWPOLYLINE
5
263
100
AcDbEntity
8
0
100
AcDbPolyline
90
4
70
1
43
0.0
10
-18.790763680011104
20
-15.841175786674039
10
-18.790763680011104
20
-19.741175786674038
10
-16.690763680011102
20
-19.741175786674038
10
-16.690763680011102
20
-15.841175786674039
0
LWPOLYLINE
5
264
100
AcDbEntity
8
0
100
AcDbPolyline
90
4
70
1
43
0.0
10
-16.509763680011105
20
-3.7531757866740501
10
-16.509763680011105
20
-2.5531757866740445
10
-18.329763680011105
20
-2.5531757866740445
10
-18.329763680011105
20
-3.7531757866740501
0
LWPOLYLINE
5
265
100
AcDbEntity
8
0
100
AcDbPolyline
90
4
70
1
43
0.0
10
-18.329763680011105
20
-6.6731757866740349
10
-16.509763680011105
20
-6.6731757866740349
10
-16.509763680011105
20
-5.4731757866740338
10
-18.329763680011105
20
-5.4731757866740338
0
LWPOLYLINE
5
266
100
AcDbEntity
8
0
100
AcDbPolyline
90
4
70
1
43
0.0
10
-30.440763680011106
20
-10.116175786674038
10
-30.440763680011106
20
-9.4661757866740377
10
-31.540763680011104
20
-9.4661757866740377
10
-31.540763680011104
20
-10.116175786674038
0
LWPOLYLINE
5
267
100
AcDbEntity
8
0
100
AcDbPolyline
90
4
70
1
43
0.0
10
-30.440763680011106
20
-13.266175786674035
10
-31.540763680011104
20
-13.266175786674035
10
-31.540763680011104
20
-13.916175786674037
10
-30.440763680011106
20
-13.916175786674037
0
LWPOLYLINE
5
268
100
AcDbEntity
8
0
100
AcDbPolyline
90
4
70
1
43
0.0
10
-0.16728468001110386
20
-4.7563517866740401
10
-0.16728468001110386
20
-3.9563517866740439
10
-1.1172846800111058
20
-3.9563517866740439
10
-1.1172846800111058
20
-4.7563517866740401
0
LWPOLYLINE
5
269
100
AcDbEntity
8
0
100
AcDbPolyline
90
4
70
1
43
0.0
10
-0.16728468001110386
20
-2.3563517866740424
10
-1.1172846800111058
20
-2.3563517866740424
10
-1.1172846800111058
20
-3.1563517866740343
10
-0.16728468001110386
20
-3.1563517866740343
0
LWPOLYLINE
5
270
100
AcDbEntity
8
0
100
AcDbPolyline
90
4
70
1
43
0.0
10
13.150236319988888
20
-4.7081757866740359
10
12.210236319988903
20
-4.7081757866740359
10
12.210236319988903
20
-5.438175786674031
10
13.150236319988888
20
-5.438175786674031
0
LWPOLYLINE
5
271
100
AcDbEntity
8
0
100
AcDbPolyline
90
4
70
1
43
0.0
10
12.210236319988903
20
-3.2881757866740502
10
12.210236319988903
20
-4.0181757866740453
10
13.150236319988888
20
-4.0181757866740453
10
13.150236319988888
20
-3.2881757866740502
0
LWPOLYLINE
5
272
100
AcDbEntity
8
0
100
AcDbPolyline
90
4
70
1
43
0.0
10
-34.279763680011108
20
11.736824213325963
10
-33.059763680011109
20
11.736824213325963
10
-33.059763680011109
20
12.936824213325959
10
-34.279763680011108
20
12.936824213325959
0
LWPOLYLINE
5
273
100
AcDbEntity
8
0
100
AcDbPolyline
90
4
70
1
43
0.0
10
-34.279763680011108
20
14.836824213325963
10
-33.059763680011109
20
14.836824213325963
10
-33.059763680011109
20
16.036824213325957
10
-34.279763680011108
20
16.036824213325957
0
LWPOLYLINE
5
274
100
AcDbEntity
8
0
100
AcDbPolyline
90
4
70
1
43
0.0
10
-2.1672846800111056
20
-3.1563517866740343
10
-2.1672846800111056
20
-2.3563517866740424
10
-3.1172846800111076
20
-2.3563517866740424
10
-3.1172846800111076
20
-3.1563517866740343
0
LWPOLYLINE
5
275
100
AcDbEntity
8
0
100
AcDbPolyline
90
4
70
1
43
0.0
10
-2.1672846800111056
20
-3.9563517866740439
10
-3.1172846800111076
20
-3.9563517866740439
10
-3.1172846800111076
20
-4.7563517866740401
10
-2.1672846800111056
20
-4.7563517866740401
0
LWPOLYLINE
5
276
100
AcDbEntity
8
0
100
AcDbPolyline
90
4
70
1
43
0.0
10
4.0257153199888851
20
-7.656351786674036
10
4.0257153199888851
20
-7.3563517866740424
10
3.1757153199888943
20
-7.3563517866740424
10
3.1757153199888943
20
-7.656351786674036
0
LWPOLYLINE
5
277
100
AcDbEntity
8
0
100
AcDbPolyline
90
4
70
1
43
0.0
10
4.0257153199888851
20
-7.1563517866740352
10
4.0257153199888851
20
-6.8563517866740415
10
3.1757153199888943
20
-6.8563517866740415
10
3.1757153199888943
20
-7.1563517866740352
0
LWPOLYLINE
5
278
100
AcDbEntity
8
0
100
AcDbPolyline
90
4
70
1
43
0.0
10
4.0257153199888851
20
-6.3563517866740415
10
3.1757153199888943
20
-6.3563517866740415
10
3.1757153199888943
20
-6.6563517866740352
10
4.0257153199888851
20
-6.6563517866740352
0
LWPOLYLINE
5
279
100
AcDbEntity
8
0
100
AcDbPolyline
90
4
70
1
43
0.0
10
3.1757153199888943
20
-5.8563517866740433
10
3.1757153199888943
20
-6.1563517866740369
10
4.0257153199888851
20
-6.1563517866740369
10
4.0257153199888851
20
-5.8563517866740433
0
LWPOLYLINE
5
280
100
AcDbEntity
8
0
100
AcDbPolyline
90
4
70
1
43
0.0
10
4.0257153199888851
20
-5.6563517866740343
10
4.0257153199888851
20
-5.3563517866740407
10
3.1757153199888943
20
-5.3563517866740407
10
3.1757153199888943
20
-5.6563517866740343
0
LWPOLYLINE
5
281
100
AcDbEntity
8
0
100
AcDbPolyline
90
4
70
1
43
0.0
10
4.0257153199888851
20
-4.8563517866740424
10
3.1757153199888943
20
-4.8563517866740424
10
3.1757153199888943
20
-5.156351786674036
10
4.0257153199888851
20
-5.156351786674036
0
LWPOLYLINE
5
282
100
AcDbEntity
8
0
100
AcDbPolyline
90
4
70
1
43
0.0
10
1.1257153199888847
20
-5.156351786674036
10
1.1257153199888847
20
-4.8563517866740424
10
0.2757153199888851
20
-4.8563517866740424
10
0.2757153199888851
20
-5.156351786674036
0
LWPOLYLINE
5
283
100
AcDbEntity
8
0
100
AcDbPolyline
90
4
70
1
43
0.0
10
0.2757153199888851
20
-5.3563517866740407
10
0.2757153199888851
20
-5.6563517866740343
10
1.1257153199888847
20
-5.6563517866740343
10
1.1257153199888847
20
-5.3563517866740407
0
LWPOLYLINE
5
284
100
AcDbEntity
8
0
100
AcDbPolyline
90
4
70
1
43
0.0
10
0.2757153199888851
20
-5.8563517866740433
10
0.2757153199888851
20
-6.1563517866740369
10
1.1257153199888847
20
-6.1563517866740369
10
1.1257153199888847
20
-5.8563517866740433
0
LWPOLYLINE
5
285
100
AcDbEntity
8
0
100
AcDbPolyline
90
4
70
1
43
0.0
10
1.1257153199888847
20
-6.3563517866740415
10
0.2757153199888851
20
-6.3563517866740415
10
0.2757153199888851
20
-6.6563517866740352
10
1.1257153199888847
20
-6.6563517866740352
0
LWPOLYLINE
5
286
100
AcDbEntity
8
0
100
AcDbPolyline
90
4
70
1
43
0.0
10
0.2757153199888851
20
-7.1563517866740352
10
1.1257153199888847
20
-7.1563517866740352
10
1.1257153199888847
20
-6.8563517866740415
10
0.2757153199888851
20
-6.8563517866740415
0
LWPOLYLINE
5
287
100
AcDbEntity
8
0
100
AcDbPolyline
90
4
70
1
43
0.0
10
1.1257153199888847
20
-7.3563517866740424
10
0.2757153199888851
20
-7.3563517866740424
10
0.2757153199888851
20
-7.656351786674036
10
1.1257153199888847
20
-7.656351786674036
0
LWPOLYLINE
5
288
100
AcDbEntity
8
0
100
AcDbPolyline
90
4
70
1
43
0.0
10
1.3507153199889022
20
-7.5563517866740426
10
2.9507153199888947
20
-7.5563517866740426
10
2.9507153199888947
20
-4.9563517866740359
10
1.3507153199889022
20
-4.9563517866740359
0
LWPOLYLINE
5
289
100
AcDbEntity
8
0
100
AcDbPolyline
90
4
70
1
43
0.0
10
-29.89476368001111
20
-18.463175786674043
10
-27.744763680011111
20
-18.463175786674043
10
-27.744763680011111
20
-16.263175786674044
10
-29.89476368001111
20
-16.263175786674044
0
LWPOLYLINE
5
290
100
AcDbEntity
8
0
100
AcDbPolyline
90
4
70
1
43
0.0
10
-23.344763680011109
20
-16.263175786674044
10
-25.494763680011108
20
-16.263175786674044
10
-25.494763680011108
20
-18.463175786674043
10
-23.344763680011109
20
-18.463175786674043
0
LWPOLYLINE
5
291
100
AcDbEntity
8
0
100
AcDbPolyline
90
4
70
1
43
0.0
10
10.205236319988886
20
-4.763175786674041
10
10.205236319988886
20
-5.5631757866740372
10
11.155236319988902
20
-5.5631757866740372
10
11.155236319988902
20
-4.763175786674041
0
LWPOLYLINE
5
292
100
AcDbEntity
8
0
100
AcDbPolyline
90
4
70
1
43
0.0
10
10.205236319988886
20
-3.1631757866740395
10
10.205236319988886
20
-3.9631757866740402
10
11.155236319988902
20
-3.9631757866740402
10
11.155236319988902
20
-3.1631757866740395
0
LWPOLYLINE
5
293
100
AcDbEntity
8
0
100
AcDbPolyline
90
4
70
1
43
0.0
10
8.1802363199888983
20
7.3868242133259621
10
8.1802363199888983
20
3.8868242133259612
10
11.730236319988894
20
3.8868242133259612
10
11.730236319988894
20
7.3868242133259621
0
LWPOLYLINE
5
294
100
AcDbEntity
8
0
100
AcDbPolyline
90
4
70
1
43
0.0
10
20.680236319988879
20
7.3868242133259621
10
17.130236319988885
20
7.3868242133259621
10
17.130236319988885
20
3.8868242133259612
10
20.680236319988879
20
3.8868242133259612
0
LWPOLYLINE
5
295
100
AcDbEntity
8
0
100
AcDbPolyline
90
4
70
1
43
0.0
10
-28.954763680011091
20
-0.83317578667403858
10
-28.224763680011094
20
-0.83317578667403858
10
-28.224763680011094
20
0.10682421332596004
10
-28.954763680011091
20
0.10682421332596004
0
LWPOLYLINE
5
296
100
AcDbEntity
8
0
100
AcDbPolyline
90
4
70
1
43
0.0
10
-27.534763680011103
20
0.10682421332596004
10
-27.534763680011103
20
-0.83317578667403858
10
-26.804763680011106
20
-0.83317578667403858
10
-26.804763680011106
20
0.10682421332596004
0
LWPOLYLINE
5
297
100
AcDbEntity
8
0
100
AcDbPolyline
90
4
70
1
43
0.0
10
8.2052363199888934
20
-3.9631757866740402
10
9.1552363199888998
20
-3.9631757866740402
10
9.1552363199888998
20
-3.1631757866740395
10
8.2052363199888934
20
-3.1631757866740395
0
LWPOLYLINE
5
298
100
AcDbEntity
8
0
100
AcDbPolyline
90
4
70
1
43
0.0
10
9.1552363199888998
20
-4.763175786674041
10
8.2052363199888934
20
-4.763175786674041
10
8.2052363199888934
20
-5.5631757866740372
10
9.1552363199888998
20
-5.5631757866740372
0
LWPOLYLINE
5
299
100
AcDbEntity
8
0
100
AcDbPolyline
90
4
70
1
43
0.0
10
15.155236319988896
20
-5.5631757866740372
10
15.155236319988896
20
-4.763175786674041
10
14.20523631998889
20
-4.763175786674041
10
14.20523631998889
20
-5.5631757866740372
0
LWPOLYLINE
5
300
100
AcDbEntity
8
0
100
AcDbPolyline
90
4
70
1
43
0.0
10
15.155236319988896
20
-3.1631757866740395
10
14.20523631998889
20
-3.1631757866740395
10
14.20523631998889
20
-3.9631757866740402
10
15.155236319988896
20
-3.9631757866740402
0
LWPOLYLINE
5
301
100
AcDbEntity
8
0
100
AcDbPolyline
90
4
70
1
43
0.0
10
6.3802363199888923
20
6.2868242133259722
10
6.3802363199888923
20
4.2868242133259704
10
7.4802363199888866
20
4.2868242133259704
10
7.4802363199888866
20
6.2868242133259722
0
LWPOLYLINE
5
302
100
AcDbEntity
8
0
100
AcDbPolyline
90
4
70
1
43
0.0
10
7.4302363199888966
20
3.7868242133259589
10
6.4302363199889001
20
3.7868242133259589
10
6.4302363199889001
20
2.9868242133259626
10
7.4302363199888966
20
2.9868242133259626
0
LWPOLYLINE
5
303
100
AcDbEntity
8
0
100
AcDbPolyline
90
4
70
1
43
0.0
10
6.6427153199888966
20
-7.0613517866740327
10
5.8327153199888926
20
-7.0613517866740327
10
5.8327153199888926
20
-8.0513517866740347
10
6.6427153199888966
20
-8.0513517866740347
0
LWPOLYLINE
5
304
100
AcDbEntity
8
0
100
AcDbPolyline
90
4
70
1
43
0.0
10
5.2627153199888976
20
-8.0513517866740347
10
5.2627153199888976
20
-7.0613517866740327
10
4.4527153199888936
20
-7.0613517866740327
10
4.4527153199888936
20
-8.0513517866740347
0
LINE
5
305
100
AcDbEntity
8
0
100
AcDbLine
10
-39.919763680011108
20
17.386824213325962
30
0
11
-39.919763680011108
21
17.386824213325962
31
0
0
LWPOLYLINE
5
306
100
AcDbEntity
8
0
100
AcDbPolyline
90
8
70
1
43
0.0
10
33.705236319988899
20
-34.613175786674041
10
-45.294763680011116
20
-34.613175786674041
42
-0.41421356237309592
10
-48.294763680011101
20
-31.613175786674041
10
-48.294763680011101
20
27.386824213325962
42
-0.41421356237309809
10
-45.294763680011101
20
30.386824213325959
10
33.705236319988899
20
30.386824213325959
42
-0.41421356237309725
10
36.705236319988892
20
27.386824213325962
10
36.705236319988892
20
-31.613175786674041
42
-0.41421356237309592
0
SPLINE
5
307
100
AcDbEntity
8
0
100
AcDbSpline
70
0
71
2
72
6
73
3
74
0
42
0.000000001
43
0.0000000001
44
0.0000000001
40
0
40
0
40
0
40
1
40
1
40
1
10
15.721380118020814
20
-32.298117043383193
30
0
10
15.721380118020814
20
-32.448827387697769
30
0
10
15.714276957997125
20
-32.511520447142196
30
0
0
SPLINE
5
308
100
AcDbEntity
8
0
100
AcDbSpline
70
0
71
2
72
6
73
3
74
0
42
0.000000001
43
0.0000000001
44
0.0000000001
40
0
40
0
40
0
40
1
40
1
40
1
10
15.714276957997125
20
-32.511520447142196
30
0
10
15.707173797973436
20
-32.574213506586624
30
0
10
15.669805038460535
20
-32.62609733820684
30
0
0
SPLINE
5
309
100
AcDbEntity
8
0
100
AcDbSpline
70
0
71
2
72
6
73
3
74
0
42
0.000000001
43
0.0000000001
44
0.0000000001
40
0
40
0
40
0
40
1
40
1
40
1
10
15.669805038460535
20
-32.62609733820684
30
0
10
15.632436278947633
20
-32.677981244332862
30
0
10
15.568816739805978
20
-32.705776156790328
30
0
0
SPLINE
5
310
100
AcDbEntity
8
0
100
AcDbSpline
70
0
71
2
72
6
73
3
74
0
42
0.000000001
43
0.0000000001
44
0.0000000001
40
0
40
0
40
0
40
1
40
1
40
1
10
15.568816739805978
20
-32.705776156790328
30
0
10
15.505197275170129
20
-32.733571143753601
30
0
10
15.420577082523149
20
-32.733571143753601
30
0
0
SPLINE
5
311
100
AcDbEntity
8
0
100
AcDbSpline
70
0
71
2
72
6
73
3
74
0
42
0.000000001
43
0.0000000001
44
0.0000000001
40
0
40
0
40
0
40
1
40
1
40
1
10
15.420577082523149
20
-32.733571143753601
30
0
10
15.340280610808176
20
-32.733571143753601
30
0
10
15.276352245100778
20
-32.707320364124847
30
0
0
SPLINE
5
312
100
AcDbEntity
8
0
100
AcDbSpline
70
0
71
2
72
6
73
3
74
0
42
0.000000001
43
0.0000000001
44
0.0000000001
40
0
40
0
40
0
40
1
40
1
40
1
10
15.276352245100778
20
-32.707320364124847
30
0
10
15.212423898019832
20
-32.681069584496093
30
0
10
15.173510987051767
20
-32.628568025238586
30
0
0
SPLINE
5
313
100
AcDbEntity
8
0
100
AcDbSpline
70
0
71
2
72
6
73
3
74
0
42
0.000000001
43
0.0000000001
44
0.0000000001
40
0
40
0
40
0
40
1
40
1
40
1
10
15.173510987051767
20
-32.628568025238586
30
0
10
15.134598066770476
20
-32.576066465981079
30
0
10
15.127186084837657
20
-32.514299960739685
30
0
0
SPLINE
5
314
100
AcDbEntity
8
0
100
AcDbSpline
70
0
71
2
72
6
73
3
74
0
42
0.000000001
43
0.0000000001
44
0.0000000001
40
0
40
0
40
0
40
1
40
1
40
1
10
15.127186084837657
20
-32.514299960739685
30
0
10
15.119774102904838
20
-32.452533380992485
30
0
10
15.119774102904838
20
-32.298117043383193
30
0
0
LINE
5
315
100
AcDbEntity
8
0
100
AcDbLine
10
15.119774102904838
20
-32.298117043383193
30
0
11
15.119774102904838
21
-32.12702384770639
31
0
0
SPLINE
5
316
100
AcDbEntity
8
0
100
AcDbSpline
70
0
71
2
72
6
73
3
74
0
42
0.000000001
43
0.0000000001
44
0.0000000001
40
0
40
0
40
0
40
1
40
1
40
1
10
15.119774102904838
20
-32.12702384770639
30
0
10
15.119774102904838
20
-31.976313503391815
30
0
10
15.126877253615302
20
-31.913620518453193
30
0
0
SPLINE
5
317
100
AcDbEntity
8
0
100
AcDbSpline
70
0
71
2
72
6
73
3
74
0
42
0.000000001
43
0.0000000001
44
0.0000000001
40
0
40
0
40
0
40
1
40
1
40
1
10
15.126877253615302
20
-31.913620518453193
30
0
10
15.133980404325765
20
-31.850927459008766
30
0
10
15.171349154525441
20
-31.799043552882743
30
0
0
SPLINE
5
318
100
AcDbEntity
8
0
100
AcDbSpline
70
0
71
2
72
6
73
3
74
0
42
0.000000001
43
0.0000000001
44
0.0000000001
40
0
40
0
40
0
40
1
40
1
40
1
10
15.171349154525441
20
-31.799043552882743
30
0
10
15.208717904725116
20
-31.747159721262527
30
0
10
15.27233742524032
20
-31.719364734299255
30
0
0
SPLINE
5
319
100
AcDbEntity
8
0
100
AcDbSpline
70
0
71
2
72
6
73
3
74
0
42
0.000000001
43
0.0000000001
44
0.0000000001
40
0
40
0
40
0
40
1
40
1
40
1
10
15.27233742524032
20
-31.719364734299255
30
0
10
15.335956945755523
20
-31.691569821841789
30
0
10
15.420577082523149
20
-31.691569821841789
30
0
0
SPLINE
5
320
100
AcDbEntity
8
0
100
AcDbSpline
70
0
71
2
72
6
73
3
74
0
42
0.000000001
43
0.0000000001
44
0.0000000001
40
0
40
0
40
0
40
1
40
1
40
1
10
15.420577082523149
20
-31.691569821841789
30
0
10
15.500873554238122
20
-31.691569821841789
30
0
10
15.56480191994552
20
-31.717820601470542
30
0
0
SPLINE
5
321
100
AcDbEntity
8
0
100
AcDbSpline
70
0
71
2
72
6
73
3
74
0
42
0.000000001
43
0.0000000001
44
0.0000000001
40
0
40
0
40
0
40
1
40
1
40
1
10
15.56480191994552
20
-31.717820601470542
30
0
10
15.628730285652917
20
-31.744071381099296
30
0
10
15.667643177994531
20
-31.796572940356803
30
0
0
SPLINE
5
322
100
AcDbEntity
8
0
100
AcDbSpline
70
0
71
2
72
6
73
3
74
0
42
0.000000001
43
0.0000000001
44
0.0000000001
40
0
40
0
40
0
40
1
40
1
40
1
10
15.667643177994531
20
-31.796572940356803
30
0
10
15.706556144841951
20
-31.849074425108505
30
0
10
15.713968131431383
20
-31.910841004855705
30
0
0
SPLINE
5
323
100
AcDbEntity
8
0
100
AcDbSpline
70
0
71
2
72
6
73
3
74
0
42
0.000000001
43
0.0000000001
44
0.0000000001
40
0
40
0
40
0
40
1
40
1
40
1
10
15.713968131431383
20
-31.910841004855705
30
0
10
15.721380118020814
20
-31.972607510097099
30
0
10
15.721380118020814
20
-32.12702384770639
30
0
0
LINE
5
324
100
AcDbEntity
8
0
100
AcDbLine
10
15.721380118020814
20
-32.12702384770639
30
0
11
15.721380118020814
21
-32.298117043383193
31
0
0
SPLINE
5
325
100
AcDbEntity
8
0
100
AcDbSpline
70
0
71
2
72
6
73
3
74
0
42
0.000000001
43
0.0000000001
44
0.0000000001
40
0
40
0
40
0
40
1
40
1
40
1
10
15.461343008765024
20
-31.969519169933868
30
0
10
15.461343008765024
20
-31.899723024971557
30
0
10
15.453622195609849
20
-31.88026657880075
30
0
0
SPLINE
5
326
100
AcDbEntity
8
0
100
AcDbSpline
70
0
71
2
72
6
73
3
74
0
42
0.000000001
43
0.0000000001
44
0.0000000001
40
0
40
0
40
0
40
1
40
1
40
1
10
15.453622195609849
20
-31.88026657880075
30
0
10
15.445901382454675
20
-31.860810132629943
30
0
10
15.421812426039022
20
-31.860810132629943
30
0
0
SPLINE
5
327
100
AcDbEntity
8
0
100
AcDbSpline
70
0
71
2
72
6
73
3
74
0
42
0.000000001
43
0.0000000001
44
0.0000000001
40
0
40
0
40
0
40
1
40
1
40
1
10
15.421812426039022
20
-31.860810132629943
30
0
10
15.401429462918085
20
-31.860810132629943
30
0
10
15.390620309599679
20
-31.876560585506034
30
0
0
SPLINE
5
328
100
AcDbEntity
8
0
100
AcDbSpline
70
0
71
2
72
6
73
3
74
0
42
0.000000001
43
0.0000000001
44
0.0000000001
40
0
40
0
40
0
40
1
40
1
40
1
10
15.390620309599679
20
-31.876560585506034
30
0
10
15.379811193534177
20
-31.892311038382125
30
0
10
15.379811193534177
20
-31.969519169933868
30
0
0
LINE
5
329
100
AcDbEntity
8
0
100
AcDbLine
10
15.379811193534177
20
-31.969519169933868
30
0
11
15.379811193534177
21
-32.436474101550651
31
0
0
SPLINE
5
330
100
AcDbEntity
8
0
100
AcDbSpline
70
0
71
2
72
6
73
3
74
0
42
0.000000001
43
0.0000000001
44
0.0000000001
40
0
40
0
40
0
40
1
40
1
40
1
10
15.379811193534177
20
-32.436474101550651
30
0
10
15.379811193534177
20
-32.523564906723571
30
0
10
15.386914334931415
20
-32.543947907097412
30
0
0
SPLINE
5
331
100
AcDbEntity
8
0
100
AcDbSpline
70
0
71
2
72
6
73
3
74
0
42
0.000000001
43
0.0000000001
44
0.0000000001
40
0
40
0
40
0
40
1
40
1
40
1
10
15.386914334931415
20
-32.543947907097412
30
0
10
15.394017476328653
20
-32.564330832965446
30
0
10
15.419959429391664
20
-32.564330832965446
30
0
0
SPLINE
5
332
100
AcDbEntity
8
0
100
AcDbSpline
70
0
71
2
72
6
73
3
74
0
42
0.000000001
43
0.0000000001
44
0.0000000001
40
0
40
0
40
0
40
1
40
1
40
1
10
15.419959429391664
20
-32.564330832965446
30
0
10
15.44651903558616
20
-32.564330832965446
30
0
10
15.453931022175592
20
-32.540859492428375
30
0
0
SPLINE
5
333
100
AcDbEntity
8
0
100
AcDbSpline
70
0
71
2
72
6
73
3
74
0
42
0.000000001
43
0.0000000001
44
0.0000000001
40
0
40
0
40
0
40
1
40
1
40
1
10
15.453931022175592
20
-32.540859492428375
30
0
10
15.461343008765024
20
-32.517388226397109
30
0
10
15.461343008765024
20
-32.429062114961219
30
0
0
LINE
5
334
100
AcDbEntity
8
0
100
AcDbLine
10
15.461343008765024
20
-32.429062114961219
30
0
11
15.461343008765024
21
-31.969519169933868
31
0
0
LINE
5
335
100
AcDbEntity
8
0
100
AcDbLine
10
16.064801964649003
20
-31.89292869151361
30
0
11
16.060478318222803
21
-31.965349899537635
31
0
0
SPLINE
5
336
100
AcDbEntity
8
0
100
AcDbSpline
70
0
71
2
72
6
73
3
74
0
42
0.000000001
43
0.0000000001
44
0.0000000001
40
0
40
0
40
0
40
1
40
1
40
1
10
16.060478318222803
20
-31.965349899537635
30
0
10
16.093832257875246
20
-31.921418519623352
30
0
10
16.133980530985635
20
-31.899761618979049
30
0
0
SPLINE
5
337
100
AcDbEntity
8
0
100
AcDbSpline
70
0
71
2
72
6
73
3
74
0
42
0.000000001
43
0.0000000001
44
0.0000000001
40
0
40
0
40
0
40
1
40
1
40
1
10
16.133980530985635
20
-31.899761618979049
30
0
10
16.174128729590219
20
-31.878104718334747
30
0
10
16.221688914784234
20
-31.878104718334747
30
0
0
SPLINE
5
338
100
AcDbEntity
8
0
100
AcDbSpline
70
0
71
2
72
6
73
3
74
0
42
0.000000001
43
0.0000000001
44
0.0000000001
40
0
40
0
40
0
40
1
40
1
40
1
10
16.221688914784234
20
-31.878104718334747
30
0
10
16.279749501236719
20
-31.878104718334747
30
0
10
16.322059560307306
20
-31.909296797521186
30
0
0
SPLINE
5
339
100
AcDbEntity
8
0
100
AcDbSpline
70
0
71
2
72
6
73
3
74
0
42
0.000000001
43
0.0000000001
44
0.0000000001
40
0
40
0
40
0
40
1
40
1
40
1
10
16.322059560307306
20
-31.909296797521186
30
0
10
16.364369619377893
20
-31.940488876707626
30
0
10
16.374870020636362
20
-31.981254802949501
30
0
0
SPLINE
5
340
100
AcDbEntity
8
0
100
AcDbSpline
70
0
71
2
72
6
73
3
74
0
42
0.000000001
43
0.0000000001
44
0.0000000001
40
0
40
0
40
0
40
1
40
1
40
1
10
16.374870020636362
20
-31.981254802949501
30
0
10
16.385370272883218
20
-32.022020729191375
30
0
10
16.385370272883218
20
-32.119611861116958
30
0
0
LINE
5
341
100
AcDbEntity
8
0
100
AcDbLine
10
16.385370272883218
20
-32.119611861116958
30
0
11
16.385370272883218
21
-32.464886741645408
31
0
0
SPLINE
5
342
100
AcDbEntity
8
0
100
AcDbSpline
70
0
71
2
72
6
73
3
74
0
42
0.000000001
43
0.0000000001
44
0.0000000001
40
0
40
0
40
0
40
1
40
1
40
1
10
16.385370272883218
20
-32.464886741645408
30
0
10
16.385370272883218
20
-32.576684119112564
30
0
10
16.372090358027261
20
-32.623935552246643
30
0
0
SPLINE
5
343
100
AcDbEntity
8
0
100
AcDbSpline
70
0
71
2
72
6
73
3
74
0
42
0.000000001
43
0.0000000001
44
0.0000000001
40
0
40
0
40
0
40
1
40
1
40
1
10
16.372090358027261
20
-32.623935552246643
30
0
10
16.358810592182916
20
-32.671186910874916
30
0
10
16.317735913881105
20
-32.69929072440393
30
0
0
SPLINE
5
344
100
AcDbEntity
8
0
100
AcDbSpline
70
0
71
2
72
6
73
3
74
0
42
0.000000001
43
0.0000000001
44
0.0000000001
40
0
40
0
40
0
40
1
40
1
40
1
10
16.317735913881105
20
-32.69929072440393
30
0
10
16.276661161073488
20
-32.727394463427139
30
0
10
16.21860064912681
20
-32.727394463427139
30
0
0
SPLINE
5
345
100
AcDbEntity
8
0
100
AcDbSpline
70
0
71
2
72
6
73
3
74
0
42
0.000000001
43
0.0000000001
44
0.0000000001
40
0
40
0
40
0
40
1
40
1
40
1
10
16.21860064912681
20
-32.727394463427139
30
0
10
16.172275770195764
20
-32.727394463427139
30
0
10
16.132745150216859
20
-32.705737562782836
30
0
0
SPLINE
5
346
100
AcDbEntity
8
0
100
AcDbSpline
70
0
71
2
72
6
73
3
74
0
42
0.000000001
43
0.0000000001
44
0.0000000001
40
0
40
0
40
0
40
1
40
1
40
1
10
16.132745150216859
20
-32.705737562782836
30
0
10
16.093214530237955
20
-32.684080662138534
30
0
10
16.060478318222803
20
-32.64138458848722
30
0
0
LINE
5
347
100
AcDbEntity
8
0
100
AcDbLine
10
16.060478318222803
20
-32.64138458848722
30
0
11
16.060478318222803
21
-32.829309167273117
31
0
0
LINE
5
348
100
AcDbEntity
8
0
100
AcDbLine
10
16.060478318222803
20
-32.829309167273117
30
0
11
15.810941535719675
21
-32.829309167273117
31
0
0
LINE
5
349
100
AcDbEntity
8
0
100
AcDbLine
10
15.810941535719675
20
-32.829309167273117
30
0
11
15.810941535719675
21
-31.89292869151361
31
0
0
LINE
5
350
100
AcDbEntity
8
0
100
AcDbLine
10
15.810941535719675
20
-31.89292869151361
30
0
11
16.064801964649003
21
-31.89292869151361
31
0
0
SPLINE
5
351
100
AcDbEntity
8
0
100
AcDbSpline
70
0
71
2
72
6
73
3
74
0
42
0.000000001
43
0.0000000001
44
0.0000000001
40
0
40
0
40
0
40
1
40
1
40
1
10
16.13583349038009
20
-32.131347494132591
30
0
10
16.13583349038009
20
-32.055374668843818
30
0
10
16.130274463185113
20
-32.039315314896179
30
0
0
SPLINE
5
352
100
AcDbEntity
8
0
100
AcDbSpline
70
0
71
2
72
6
73
3
74
0
42
0.000000001
43
0.0000000001
44
0.0000000001
40
0
40
0
40
0
40
1
40
1
40
1
10
16.130274463185113
20
-32.039315314896179
30
0
10
16.124715510495943
20
-32.023256035454345
30
0
10
16.099391210564416
20
-32.023256035454345
30
0
0
SPLINE
5
353
100
AcDbEntity
8
0
100
AcDbSpline
70
0
71
2
72
6
73
3
74
0
42
0.000000001
43
0.0000000001
44
0.0000000001
40
0
40
0
40
0
40
1
40
1
40
1
10
16.099391210564416
20
-32.023256035454345
30
0
10
16.074684638270181
20
-32.023256035454345
30
0
10
16.067581478246492
20
-32.041786001927925
30
0
0
SPLINE
5
354
100
AcDbEntity
8
0
100
AcDbSpline
70
0
71
2
72
6
73
3
74
0
42
0.000000001
43
0.0000000001
44
0.0000000001
40
0
40
0
40
0
40
1
40
1
40
1
10
16.067581478246492
20
-32.041786001927925
30
0
10
16.060478318222803
20
-32.060315968401504
30
0
10
16.060478318222803
20
-32.131347494132591
30
0
0
LINE
5
355
100
AcDbEntity
8
0
100
AcDbLine
10
16.060478318222803
20
-32.131347494132591
30
0
11
16.060478318222803
21
-32.471063347466064
31
0
0
SPLINE
5
356
100
AcDbEntity
8
0
100
AcDbSpline
70
0
71
2
72
6
73
3
74
0
42
0.000000001
43
0.0000000001
44
0.0000000001
40
0
40
0
40
0
40
1
40
1
40
1
10
16.060478318222803
20
-32.471063347466064
30
0
10
16.060478318222803
20
-32.545183213360382
30
0
10
16.067890304812234
20
-32.563713179833961
30
0
0
SPLINE
5
357
100
AcDbEntity
8
0
100
AcDbSpline
70
0
71
2
72
6
73
3
74
0
42
0.000000001
43
0.0000000001
44
0.0000000001
40
0
40
0
40
0
40
1
40
1
40
1
10
16.067890304812234
20
-32.563713179833961
30
0
10
16.075302291401666
20
-32.58224314630754
30
0
10
16.100008863695901
20
-32.58224314630754
30
0
0
SPLINE
5
358
100
AcDbEntity
8
0
100
AcDbSpline
70
0
71
2
72
6
73
3
74
0
42
0.000000001
43
0.0000000001
44
0.0000000001
40
0
40
0
40
0
40
1
40
1
40
1
10
16.100008863695901
20
-32.58224314630754
30
0
10
16.124097782858652
20
-32.58224314630754
30
0
10
16.129965636619371
20
-32.565257312662673
30
0
0
SPLINE
5
359
100
AcDbEntity
8
0
100
AcDbSpline
70
0
71
2
72
6
73
3
74
0
42
0.000000001
43
0.0000000001
44
0.0000000001
40
0
40
0
40
0
40
1
40
1
40
1
10
16.129965636619371
20
-32.565257312662673
30
0
10
16.13583349038009
20
-32.548271479017806
30
0
10
16.13583349038009
20
-32.482799054987503
30
0
0
LINE
5
360
100
AcDbEntity
8
0
100
AcDbLine
10
16.13583349038009
20
-32.482799054987503
30
0
11
16.13583349038009
21
-32.131347494132591
31
0
0
LINE
5
361
100
AcDbEntity
8
0
100
AcDbLine
10
17.03268356967811
20
-32.317264737494064
30
0
11
16.709644574412149
21
-32.317264737494064
31
0
0
LINE
5
362
100
AcDbEntity
8
0
100
AcDbLine
10
16.709644574412149
20
-32.317264737494064
30
0
11
16.709644574412149
21
-32.494534613497329
31
0
0
SPLINE
5
363
100
AcDbEntity
8
0
100
AcDbSpline
70
0
71
2
72
6
73
3
74
0
42
0.000000001
43
0.0000000001
44
0.0000000001
40
0
40
0
40
0
40
1
40
1
40
1
10
16.709644574412149
20
-32.494534613497329
30
0
10
16.709644574412149
20
-32.550124512918067
30
0
10
16.717674214133066
20
-32.566183792359901
30
0
0
SPLINE
5
364
100
AcDbEntity
8
0
100
AcDbSpline
70
0
71
2
72
6
73
3
74
0
42
0.000000001
43
0.0000000001
44
0.0000000001
40
0
40
0
40
0
40
1
40
1
40
1
10
16.717674214133066
20
-32.566183792359901
30
0
10
16.725703853853982
20
-32.58224314630754
30
0
10
16.748557466753763
20
-32.58224314630754
30
0
0
SPLINE
5
365
100
AcDbEntity
8
0
100
AcDbSpline
70
0
71
2
72
6
73
3
74
0
42
0.000000001
43
0.0000000001
44
0.0000000001
40
0
40
0
40
0
40
1
40
1
40
1
10
16.748557466753763
20
-32.58224314630754
30
0
10
16.77697010684852
20
-32.58224314630754
30
0
10
16.786543804892343
20
-32.560933666236473
30
0
0
SPLINE
5
366
100
AcDbEntity
8
0
100
AcDbSpline
70
0
71
2
72
6
73
3
74
0
42
0.000000001
43
0.0000000001
44
0.0000000001
40
0
40
0
40
0
40
1
40
1
40
1
10
16.786543804892343
20
-32.560933666236473
30
0
10
16.796117651947778
20
-32.539624186165405
30
0
10
16.796117651947778
20
-32.478475334055496
30
0
0
LINE
5
367
100
AcDbEntity
8
0
100
AcDbLine
10
16.796117651947778
20
-32.478475334055496
30
0
11
16.796117651947778
21
-32.370383949883056
31
0
0
LINE
5
368
100
AcDbEntity
8
0
100
AcDbLine
10
16.796117651947778
20
-32.370383949883056
30
0
11
17.03268356967811
21
-32.370383949883056
31
0
0
LINE
5
369
100
AcDbEntity
8
0
100
AcDbLine
10
17.03268356967811
20
-32.370383949883056
30
0
11
17.03268356967811
21
-32.43091514886148
31
0
0
SPLINE
5
370
100
AcDbEntity
8
0
100
AcDbSpline
70
0
71
2
72
6
73
3
74
0
42
0.000000001
43
0.0000000001
44
0.0000000001
40
0
40
0
40
0
40
1
40
1
40
1
10
17.03268356967811
20
-32.43091514886148
30
0
10
17.03268356967811
20
-32.506887974150253
30
0
10
17.023109722622674
20
-32.547653825886321
30
0
0
SPLINE
5
371
100
AcDbEntity
8
0
100
AcDbSpline
70
0
71
2
72
6
73
3
74
0
42
0.000000001
43
0.0000000001
44
0.0000000001
40
0
40
0
40
0
40
1
40
1
40
1
10
17.023109722622674
20
-32.547653825886321
30
0
10
17.013535875567239
20
-32.588419752128196
30
0
10
16.978328902014535
20
-32.634744631059242
30
0
0
SPLINE
5
372
100
AcDbEntity
8
0
100
AcDbSpline
70
0
71
2
72
6
73
3
74
0
42
0.000000001
43
0.0000000001
44
0.0000000001
40
0
40
0
40
0
40
1
40
1
40
1
10
16.978328902014535
20
-32.634744631059242
30
0
10
16.943122077473443
20
-32.681069584496093
30
0
10
16.889076310881418
20
-32.70423194945581
30
0
0
SPLINE
5
373
100
AcDbEntity
8
0
100
AcDbSpline
70
0
71
2
72
6
73
3
74
0
42
0.000000001
43
0.0000000001
44
0.0000000001
40
0
40
0
40
0
40
1
40
1
40
1
10
16.889076310881418
20
-32.70423194945581
30
0
10
16.835030693301004
20
-32.727394463427139
30
0
10
16.753498840817254
20
-32.727394463427139
30
0
0
SPLINE
5
374
100
AcDbEntity
8
0
100
AcDbSpline
70
0
71
2
72
6
73
3
74
0
42
0.000000001
43
0.0000000001
44
0.0000000001
40
0
40
0
40
0
40
1
40
1
40
1
10
16.753498840817254
20
-32.727394463427139
30
0
10
16.674437600859445
20
-32.727394463427139
30
0
10
16.613906401881021
20
-32.704540850527358
30
0
0
SPLINE
5
375
100
AcDbEntity
8
0
100
AcDbSpline
70
0
71
2
72
6
73
3
74
0
42
0.000000001
43
0.0000000001
44
0.0000000001
40
0
40
0
40
0
40
1
40
1
40
1
10
16.613906401881021
20
-32.704540850527358
30
0
10
16.553375202902597
20
-32.681687237627578
30
0
10
16.519712436684411
20
-32.641847791082931
30
0
0
SPLINE
5
376
100
AcDbEntity
8
0
100
AcDbSpline
70
0
71
2
72
6
73
3
74
0
42
0.000000001
43
0.0000000001
44
0.0000000001
40
0
40
0
40
0
40
1
40
1
40
1
10
16.519712436684411
20
-32.641847791082931
30
0
10
16.486049670466226
20
-32.60200841904409
30
0
10
16.473078805693429
20
-32.554139332778526
30
0
0
SPLINE
5
377
100
AcDbEntity
8
0
100
AcDbSpline
70
0
71
2
72
6
73
3
74
0
42
0.000000001
43
0.0000000001
44
0.0000000001
40
0
40
0
40
0
40
1
40
1
40
1
10
16.473078805693429
20
-32.554139332778526
30
0
10
16.460107791909021
20
-32.506270321018768
30
0
10
16.460107791909021
20
-32.414855869419647
30
0
0
LINE
5
378
100
AcDbEntity
8
0
100
AcDbLine
10
16.460107791909021
20
-32.414855869419647
30
0
11
16.460107791909021
21
-32.175819339163375
31
0
0
SPLINE
5
379
100
AcDbEntity
8
0
100
AcDbSpline
70
0
71
2
72
6
73
3
74
0
42
0.000000001
43
0.0000000001
44
0.0000000001
40
0
40
0
40
0
40
1
40
1
40
1
10
16.460107791909021
20
-32.175819339163375
30
0
10
16.460107791909021
20
-32.068345608122421
30
0
10
16.489138085135263
20
-32.006270276315284
30
0
0
SPLINE
5
380
100
AcDbEntity
8
0
100
AcDbSpline
70
0
71
2
72
6
73
3
74
0
42
0.000000001
43
0.0000000001
44
0.0000000001
40
0
40
0
40
0
40
1
40
1
40
1
10
16.489138085135263
20
-32.006270276315284
30
0
10
16.518168378361505
20
-31.944194870002342
30
0
10
16.584258455523294
20
-31.911149756915641
30
0
0
SPLINE
5
381
100
AcDbEntity
8
0
100
AcDbSpline
70
0
71
2
72
6
73
3
74
0
42
0.000000001
43
0.0000000001
44
0.0000000001
40
0
40
0
40
0
40
1
40
1
40
1
10
16.584258455523294
20
-31.911149756915641
30
0
10
16.650348681696695
20
-31.878104718334747
30
0
10
16.736204106100839
20
-31.878104718334747
30
0
0
SPLINE
5
382
100
AcDbEntity
8
0
100
AcDbSpline
70
0
71
2
72
6
73
3
74
0
42
0.000000001
43
0.0000000001
44
0.0000000001
40
0
40
0
40
0
40
1
40
1
40
1
10
16.736204106100839
20
-31.878104718334747
30
0
10
16.841207224615854
20
-31.878104718334747
30
0
10
16.909459311255258
20
-31.917944090373588
30
0
0
SPLINE
5
383
100
AcDbEntity
8
0
100
AcDbSpline
70
0
71
2
72
6
73
3
74
0
42
0.000000001
43
0.0000000001
44
0.0000000001
40
0
40
0
40
0
40
1
40
1
40
1
10
16.909459311255258
20
-31.917944090373588
30
0
10
16.97771124888305
20
-31.957783536918235
30
0
10
17.005197483786386
20
-32.023564862020088
30
0
0
SPLINE
5
384
100
AcDbEntity
8
0
100
AcDbSpline
70
0
71
2
72
6
73
3
74
0
42
0.000000001
43
0.0000000001
44
0.0000000001
40
0
40
0
40
0
40
1
40
1
40
1
10
17.005197483786386
20
-32.023564862020088
30
0
10
17.03268356967811
20
-32.089346261627746
30
0
10
17.03268356967811
20
-32.208555625684333
30
0
0
LINE
5
385
100
AcDbEntity
8
0
100
AcDbLine
10
17.03268356967811
20
-32.208555625684333
30
0
11
17.03268356967811
21
-32.317264737494064
31
0
0
LINE
5
386
100
AcDbEntity
8
0
100
AcDbLine
10
16.782529134043497
20
-32.183848978884292
30
0
11
16.782529134043497
21
-32.123935433037353
31
0
0
SPLINE
5
387
100
AcDbEntity
8
0
100
AcDbSpline
70
0
71
2
72
6
73
3
74
0
42
0.000000001
43
0.0000000001
44
0.0000000001
40
0
40
0
40
0
40
1
40
1
40
1
10
16.782529134043497
20
-32.123935433037353
30
0
10
16.782529134043497
20
-32.060315968401504
30
0
10
16.77573480058555
20
-32.041786001927925
30
0
0
SPLINE
5
388
100
AcDbEntity
8
0
100
AcDbSpline
70
0
71
2
72
6
73
3
74
0
42
0.000000001
43
0.0000000001
44
0.0000000001
40
0
40
0
40
0
40
1
40
1
40
1
10
16.77573480058555
20
-32.041786001927925
30
0
10
16.768940467127603
20
-32.023256035454345
30
0
10
16.747939813622278
20
-32.023256035454345
30
0
0
SPLINE
5
389
100
AcDbEntity
8
0
100
AcDbSpline
70
0
71
2
72
6
73
3
74
0
42
0.000000001
43
0.0000000001
44
0.0000000001
40
0
40
0
40
0
40
1
40
1
40
1
10
16.747939813622278
20
-32.023256035454345
30
0
10
16.721997935065072
20
-32.023256035454345
30
0
10
16.715821254738611
20
-32.039006488330436
30
0
0
SPLINE
5
390
100
AcDbEntity
8
0
100
AcDbSpline
70
0
71
2
72
6
73
3
74
0
42
0.000000001
43
0.0000000001
44
0.0000000001
40
0
40
0
40
0
40
1
40
1
40
1
10
16.715821254738611
20
-32.039006488330436
30
0
10
16.709644574412149
20
-32.054756941206527
30
0
10
16.709644574412149
20
-32.123935433037353
30
0
0
LINE
5
391
100
AcDbEntity
8
0
100
AcDbLine
10
16.709644574412149
20
-32.123935433037353
30
0
11
16.709644574412149
21
-32.183848978884292
31
0
0
LINE
5
392
100
AcDbEntity
8
0
100
AcDbLine
10
16.709644574412149
20
-32.183848978884292
30
0
11
16.782529134043497
21
-32.183848978884292
31
0
0
LINE
5
393
100
AcDbEntity
8
0
100
AcDbLine
10
17.36807562757377
20
-31.89292869151361
30
0
11
17.363752055653375
21
-31.968438239700866
31
0
0
SPLINE
5
394
100
AcDbEntity
8
0
100
AcDbSpline
70
0
71
2
72
6
73
3
74
0
42
0.000000001
43
0.0000000001
44
0.0000000001
40
0
40
0
40
0
40
1
40
1
40
1
10
17.363752055653375
20
-31.968438239700866
30
0
10
17.39092924047355
20
-31.923271479017806
30
0
10
17.430151033886712
20
-31.900688098676277
30
0
0
SPLINE
5
395
100
AcDbEntity
8
0
100
AcDbSpline
70
0
71
2
72
6
73
3
74
0
42
0.000000001
43
0.0000000001
44
0.0000000001
40
0
40
0
40
0
40
1
40
1
40
1
10
17.430151033886712
20
-31.900688098676277
30
0
10
17.469372827299875
20
-31.878104718334747
30
0
10
17.520639080294412
20
-31.878104718334747
30
0
0
SPLINE
5
396
100
AcDbEntity
8
0
100
AcDbSpline
70
0
71
2
72
6
73
3
74
0
42
0.000000001
43
0.0000000001
44
0.0000000001
40
0
40
0
40
0
40
1
40
1
40
1
10
17.520639080294412
20
-31.878104718334747
30
0
10
17.584876198061746
20
-31.878104718334747
30
0
10
17.625642198809427
20
-31.908370317823959
30
0
0
SPLINE
5
397
100
AcDbEntity
8
0
100
AcDbSpline
70
0
71
2
72
6
73
3
74
0
42
0.000000001
43
0.0000000001
44
0.0000000001
40
0
40
0
40
0
40
1
40
1
40
1
10
17.625642198809427
20
-31.908370317823959
30
0
10
17.666407901533884
20
-31.938635917313171
30
0
10
17.678143758066934
20
-31.984651969678474
30
0
0
SPLINE
5
398
100
AcDbEntity
8
0
100
AcDbSpline
70
0
71
2
72
6
73
3
74
0
42
0.000000001
43
0.0000000001
44
0.0000000001
40
0
40
0
40
0
40
1
40
1
40
1
10
17.678143758066934
20
-31.984651969678474
30
0
10
17.689879316576761
20
-32.030668022043777
30
0
10
17.689879316576761
20
-32.138141753084732
30
0
0
LINE
5
399
100
AcDbEntity
8
0
100
AcDbLine
10
17.689879316576761
20
-32.138141753084732
30
0
11
17.689879316576761
21
-32.712570490248275
31
0
0
LINE
5
400
100
AcDbEntity
8
0
100
AcDbLine
10
17.689879316576761
20
-32.712570490248275
30
0
11
17.440342534073633
21
-32.712570490248275
31
0
0
LINE
5
401
100
AcDbEntity
8
0
100
AcDbLine
10
17.440342534073633
20
-32.712570490248275
30
0
11
17.440342534073633
21
-32.144936086542678
31
0
0
SPLINE
5
402
100
AcDbEntity
8
0
100
AcDbSpline
70
0
71
2
72
6
73
3
74
0
42
0.000000001
43
0.0000000001
44
0.0000000001
40
0
40
0
40
0
40
1
40
1
40
1
10
17.440342534073633
20
-32.144936086542678
30
0
10
17.440342534073633
20
-32.060315968401504
30
0
10
17.434783506878656
20
-32.041786001927925
30
0
0
SPLINE
5
403
100
AcDbEntity
8
0
100
AcDbSpline
70
0
71
2
72
6
73
3
74
0
42
0.000000001
43
0.0000000001
44
0.0000000001
40
0
40
0
40
0
40
1
40
1
40
1
10
17.434783506878656
20
-32.041786001927925
30
0
10
17.429224628695291
20
-32.023256035454345
30
0
10
17.403900254257959
20
-32.023256035454345
30
0
0
SPLINE
5
404
100
AcDbEntity
8
0
100
AcDbSpline
70
0
71
2
72
6
73
3
74
0
42
0.000000001
43
0.0000000001
44
0.0000000001
40
0
40
0
40
0
40
1
40
1
40
1
10
17.403900254257959
20
-32.023256035454345
30
0
10
17.377340722569269
20
-32.023256035454345
30
0
10
17.370546389111322
20
-32.044565515525413
30
0
0
SPLINE
5
405
100
AcDbEntity
8
0
100
AcDbSpline
70
0
71
2
72
6
73
3
74
0
42
0.000000001
43
0.0000000001
44
0.0000000001
40
0
40
0
40
0
40
1
40
1
40
1
10
17.370546389111322
20
-32.044565515525413
30
0
10
17.363752055653375
20
-32.065874921090675
30
0
10
17.363752055653375
20
-32.158524753458572
30
0
0
LINE
5
406
100
AcDbEntity
8
0
100
AcDbLine
10
17.363752055653375
20
-32.158524753458572
30
0
11
17.363752055653375
21
-32.712570490248275
31
0
0
LINE
5
407
100
AcDbEntity
8
0
100
AcDbLine
10
17.363752055653375
20
-32.712570490248275
30
0
11
17.114215273150247
21
-32.712570490248275
31
0
0
LINE
5
408
100
AcDbEntity
8
0
100
AcDbLine
10
17.114215273150247
20
-32.712570490248275
30
0
11
17.114215273150247
21
-31.89292869151361
31
0
0
LINE
5
409
100
AcDbEntity
8
0
100
AcDbLine
10
17.114215273150247
20
-31.89292869151361
30
0
11
17.36807562757377
21
-31.89292869151361
31
0
0
LINE
5
410
100
AcDbEntity
8
0
100
AcDbLine
10
18.624407130965036
20
-31.712570400841308
30
0
11
18.492072302588266
21
-32.712570490248275
31
0
0
LINE
5
411
100
AcDbEntity
8
0
100
AcDbLine
10
18.492072302588266
20
-32.712570490248275
30
0
11
18.097075599917215
21
-32.712570490248275
31
0
0
LINE
5
412
100
AcDbEntity
8
0
100
AcDbLine
10
18.097075599917215
20
-32.712570490248275
30
0
11
17.946828383692544
21
-31.712570400841308
31
0
0
LINE
5
413
100
AcDbEntity
8
0
100
AcDbLine
10
17.946828383692544
20
-31.712570400841308
30
0
11
18.221071738489908
21
-31.712570400841308
31
0
0
SPLINE
5
414
100
AcDbEntity
8
0
100
AcDbSpline
70
0
71
2
72
6
73
3
74
0
42
0.000000001
43
0.0000000001
44
0.0000000001
40
0
40
0
40
0
40
1
40
1
40
1
10
18.221071738489908
20
-31.712570400841308
30
0
10
18.26888300825004
20
-32.125759484179092
30
0
10
18.289323825129312
20
-32.41176745475061
30
0
0
SPLINE
5
415
100
AcDbEntity
8
0
100
AcDbSpline
70
0
71
2
72
6
73
3
74
0
42
0.000000001
43
0.0000000001
44
0.0000000001
40
0
40
0
40
0
40
1
40
1
40
1
10
18.289323825129312
20
-32.41176745475061
30
0
10
18.3094752614582
20
-32.122709812529159
30
0
10
18.332106847056192
20
-31.898526238210273
30
0
0
LINE
5
416
100
AcDbEntity
8
0
100
AcDbLine
10
18.332106847056192
20
-31.898526238210273
30
0
11
18.350163776167673
21
-31.712570400841308
31
0
0
LINE
5
417
100
AcDbEntity
8
0
100
AcDbLine
10
18.350163776167673
20
-31.712570400841308
30
0
11
18.624407130965036
21
-31.712570400841308
31
0
0
LINE
5
418
100
AcDbEntity
8
0
100
AcDbLine
10
19.226012605913919
20
-32.317264737494064
30
0
11
18.902973610647958
21
-32.317264737494064
31
0
0
LINE
5
419
100
AcDbEntity
8
0
100
AcDbLine
10
18.902973610647958
20
-32.317264737494064
30
0
11
18.902973610647958
21
-32.494534613497329
31
0
0
SPLINE
5
420
100
AcDbEntity
8
0
100
AcDbSpline
70
0
71
2
72
6
73
3
74
0
42
0.000000001
43
0.0000000001
44
0.0000000001
40
0
40
0
40
0
40
1
40
1
40
1
10
18.902973610647958
20
-32.494534613497329
30
0
10
18.902973610647958
20
-32.550124512918067
30
0
10
18.911003548392099
20
-32.566183792359901
30
0
0
SPLINE
5
421
100
AcDbEntity
8
0
100
AcDbSpline
70
0
71
2
72
6
73
3
74
0
42
0.000000001
43
0.0000000001
44
0.0000000001
40
0
40
0
40
0
40
1
40
1
40
1
10
18.911003548392099
20
-32.566183792359901
30
0
10
18.919033188113016
20
-32.58224314630754
30
0
10
18.941886801012796
20
-32.58224314630754
30
0
0
SPLINE
5
422
100
AcDbEntity
8
0
100
AcDbSpline
70
0
71
2
72
6
73
3
74
0
42
0.000000001
43
0.0000000001
44
0.0000000001
40
0
40
0
40
0
40
1
40
1
40
1
10
18.941886801012796
20
-32.58224314630754
30
0
10
18.970299143084329
20
-32.58224314630754
30
0
10
18.979873139151376
20
-32.560933666236473
30
0
0
SPLINE
5
423
100
AcDbEntity
8
0
100
AcDbSpline
70
0
71
2
72
6
73
3
74
0
42
0.000000001
43
0.0000000001
44
0.0000000001
40
0
40
0
40
0
40
1
40
1
40
1
10
18.979873139151376
20
-32.560933666236473
30
0
10
18.989446837195199
20
-32.539624186165405
30
0
10
18.989446837195199
20
-32.478475334055496
30
0
0
LINE
5
424
100
AcDbEntity
8
0
100
AcDbLine
10
18.989446837195199
20
-32.478475334055496
30
0
11
18.989446837195199
21
-32.370383949883056
31
0
0
LINE
5
425
100
AcDbEntity
8
0
100
AcDbLine
10
18.989446837195199
20
-32.370383949883056
30
0
11
19.226012605913919
21
-32.370383949883056
31
0
0
LINE
5
426
100
AcDbEntity
8
0
100
AcDbLine
10
19.226012605913919
20
-32.370383949883056
30
0
11
19.226012605913919
21
-32.43091514886148
31
0
0
SPLINE
5
427
100
AcDbEntity
8
0
100
AcDbSpline
70
0
71
2
72
6
73
3
74
0
42
0.000000001
43
0.0000000001
44
0.0000000001
40
0
40
0
40
0
40
1
40
1
40
1
10
19.226012605913919
20
-32.43091514886148
30
0
10
19.226012605913919
20
-32.506887974150253
30
0
10
19.216438907870096
20
-32.547653825886321
30
0
0
SPLINE
5
428
100
AcDbEntity
8
0
100
AcDbSpline
70
0
71
2
72
6
73
3
74
0
42
0.000000001
43
0.0000000001
44
0.0000000001
40
0
40
0
40
0
40
1
40
1
40
1
10
19.216438907870096
20
-32.547653825886321
30
0
10
19.206864911803049
20
-32.588419752128196
30
0
10
19.171658236273569
20
-32.634744631059242
30
0
0
SPLINE
5
429
100
AcDbEntity
8
0
100
AcDbSpline
70
0
71
2
72
6
73
3
74
0
42
0.000000001
43
0.0000000001
44
0.0000000001
40
0
40
0
40
0
40
1
40
1
40
1
10
19.171658236273569
20
-32.634744631059242
30
0
10
19.136451262720865
20
-32.681069584496093
30
0
10
19.082405645140451
20
-32.70423194945581
30
0
0
SPLINE
5
430
100
AcDbEntity
8
0
100
AcDbSpline
70
0
71
2
72
6
73
3
74
0
42
0.000000001
43
0.0000000001
44
0.0000000001
40
0
40
0
40
0
40
1
40
1
40
1
10
19.082405645140451
20
-32.70423194945581
30
0
10
19.028359729536813
20
-32.727394463427139
30
0
10
18.946828026064676
20
-32.727394463427139
30
0
0
SPLINE
5
431
100
AcDbEntity
8
0
100
AcDbSpline
70
0
71
2
72
6
73
3
74
0
42
0.000000001
43
0.0000000001
44
0.0000000001
40
0
40
0
40
0
40
1
40
1
40
1
10
18.946828026064676
20
-32.727394463427139
30
0
10
18.867766935118478
20
-32.727394463427139
30
0
10
18.807235736140054
20
-32.704540850527358
30
0
0
SPLINE
5
432
100
AcDbEntity
8
0
100
AcDbSpline
70
0
71
2
72
6
73
3
74
0
42
0.000000001
43
0.0000000001
44
0.0000000001
40
0
40
0
40
0
40
1
40
1
40
1
10
18.807235736140054
20
-32.704540850527358
30
0
10
18.74670453716163
20
-32.681687237627578
30
0
10
18.713041621931833
20
-32.641847791082931
30
0
0
SPLINE
5
433
100
AcDbEntity
8
0
100
AcDbSpline
70
0
71
2
72
6
73
3
74
0
42
0.000000001
43
0.0000000001
44
0.0000000001
40
0
40
0
40
0
40
1
40
1
40
1
10
18.713041621931833
20
-32.641847791082931
30
0
10
18.679379004725259
20
-32.60200841904409
30
0
10
18.666407841929239
20
-32.554139332778526
30
0
0
SPLINE
5
434
100
AcDbEntity
8
0
100
AcDbSpline
70
0
71
2
72
6
73
3
74
0
42
0.000000001
43
0.0000000001
44
0.0000000001
40
0
40
0
40
0
40
1
40
1
40
1
10
18.666407841929239
20
-32.554139332778526
30
0
10
18.653436977156442
20
-32.506270321018768
30
0
10
18.653436977156442
20
-32.414855869419647
30
0
0
LINE
5
435
100
AcDbEntity
8
0
100
AcDbLine
10
18.653436977156442
20
-32.414855869419647
30
0
11
18.653436977156442
21
-32.175819339163375
31
0
0
SPLINE
5
436
100
AcDbEntity
8
0
100
AcDbSpline
70
0
71
2
72
6
73
3
74
0
42
0.000000001
43
0.0000000001
44
0.0000000001
40
0
40
0
40
0
40
1
40
1
40
1
10
18.653436977156442
20
-32.175819339163375
30
0
10
18.653436977156442
20
-32.068345608122421
30
0
10
18.682467121371072
20
-32.006270276315284
30
0
0
SPLINE
5
437
100
AcDbEntity
8
0
100
AcDbSpline
70
0
71
2
72
6
73
3
74
0
42
0.000000001
43
0.0000000001
44
0.0000000001
40
0
40
0
40
0
40
1
40
1
40
1
10
18.682467121371072
20
-32.006270276315284
30
0
10
18.711497563608926
20
-31.944194870002342
30
0
10
18.777587789782327
20
-31.911149756915641
30
0
0
SPLINE
5
438
100
AcDbEntity
8
0
100
AcDbSpline
70
0
71
2
72
6
73
3
74
0
42
0.000000001
43
0.0000000001
44
0.0000000001
40
0
40
0
40
0
40
1
40
1
40
1
10
18.777587789782327
20
-31.911149756915641
30
0
10
18.843678015955728
20
-31.878104718334747
30
0
10
18.929533440359872
20
-31.878104718334747
30
0
0
SPLINE
5
439
100
AcDbEntity
8
0
100
AcDbSpline
70
0
71
2
72
6
73
3
74
0
42
0.000000001
43
0.0000000001
44
0.0000000001
40
0
40
0
40
0
40
1
40
1
40
1
10
18.929533440359872
20
-31.878104718334747
30
0
10
19.034536558874887
20
-31.878104718334747
30
0
10
19.102788347491067
20
-31.917944090373588
30
0
0
SPLINE
5
440
100
AcDbEntity
8
0
100
AcDbSpline
70
0
71
2
72
6
73
3
74
0
42
0.000000001
43
0.0000000001
44
0.0000000001
40
0
40
0
40
0
40
1
40
1
40
1
10
19.102788347491067
20
-31.917944090373588
30
0
10
19.171040434130472
20
-31.957783536918235
30
0
10
19.198526520022195
20
-32.023564862020088
30
0
0
SPLINE
5
441
100
AcDbEntity
8
0
100
AcDbSpline
70
0
71
2
72
6
73
3
74
0
42
0.000000001
43
0.0000000001
44
0.0000000001
40
0
40
0
40
0
40
1
40
1
40
1
10
19.198526520022195
20
-32.023564862020088
30
0
10
19.226012605913919
20
-32.089346261627746
30
0
10
19.226012605913919
20
-32.208555625684333
30
0
0
LINE
5
442
100
AcDbEntity
8
0
100
AcDbLine
10
19.226012605913919
20
-32.208555625684333
30
0
11
19.226012605913919
21
-32.317264737494064
31
0
0
LINE
5
443
100
AcDbEntity
8
0
100
AcDbLine
10
18.975858170279306
20
-32.183848978884292
30
0
11
18.975858170279306
21
-32.123935433037353
31
0
0
SPLINE
5
444
100
AcDbEntity
8
0
100
AcDbSpline
70
0
71
2
72
6
73
3
74
0
42
0.000000001
43
0.0000000001
44
0.0000000001
40
0
40
0
40
0
40
1
40
1
40
1
10
18.975858170279306
20
-32.123935433037353
30
0
10
18.975858170279306
20
-32.060315968401504
30
0
10
18.969063836821359
20
-32.041786001927925
30
0
0
SPLINE
5
445
100
AcDbEntity
8
0
100
AcDbSpline
70
0
71
2
72
6
73
3
74
0
42
0.000000001
43
0.0000000001
44
0.0000000001
40
0
40
0
40
0
40
1
40
1
40
1
10
18.969063836821359
20
-32.041786001927925
30
0
10
18.962269503363412
20
-32.023256035454345
30
0
10
18.941268998869699
20
-32.023256035454345
30
0
0
SPLINE
5
446
100
AcDbEntity
8
0
100
AcDbSpline
70
0
71
2
72
6
73
3
74
0
42
0.000000001
43
0.0000000001
44
0.0000000001
40
0
40
0
40
0
40
1
40
1
40
1
10
18.941268998869699
20
-32.023256035454345
30
0
10
18.915326971300882
20
-32.023256035454345
30
0
10
18.909150439986032
20
-32.039006488330436
30
0
0
SPLINE
5
447
100
AcDbEntity
8
0
100
AcDbSpline
70
0
71
2
72
6
73
3
74
0
42
0.000000001
43
0.0000000001
44
0.0000000001
40
0
40
0
40
0
40
1
40
1
40
1
10
18.909150439986032
20
-32.039006488330436
30
0
10
18.902973610647958
20
-32.054756941206527
30
0
10
18.902973610647958
20
-32.123935433037353
30
0
0
LINE
5
448
100
AcDbEntity
8
0
100
AcDbLine
10
18.902973610647958
20
-32.123935433037353
30
0
11
18.902973610647958
21
-32.183848978884292
31
0
0
LINE
5
449
100
AcDbEntity
8
0
100
AcDbLine
10
18.902973610647958
20
-32.183848978884292
30
0
11
18.975858170279306
21
-32.183848978884292
31
0
0
LINE
5
450
100
AcDbEntity
8
0
100
AcDbLine
10
19.57066990781669
20
-31.783601926572395
30
0
11
19.57066990781669
21
-31.91269396425016
31
0
0
LINE
5
451
100
AcDbEntity
8
0
100
AcDbLine
10
19.57066990781669
20
-31.91269396425016
30
0
11
19.637995440253061
21
-31.91269396425016
31
0
0
LINE
5
452
100
AcDbEntity
8
0
100
AcDbLine
10
19.637995440253061
20
-31.91269396425016
30
0
11
19.637995440253061
21
-32.04240365505941
31
0
0
LINE
5
453
100
AcDbEntity
8
0
100
AcDbLine
10
19.637995440253061
20
-32.04240365505941
30
0
11
19.57066990781669
21
-32.04240365505941
31
0
0
LINE
5
454
100
AcDbEntity
8
0
100
AcDbLine
10
19.57066990781669
20
-32.04240365505941
30
0
11
19.57066990781669
21
-32.480946021087242
31
0
0
SPLINE
5
455
100
AcDbEntity
8
0
100
AcDbSpline
70
0
71
2
72
6
73
3
74
0
42
0.000000001
43
0.0000000001
44
0.0000000001
40
0
40
0
40
0
40
1
40
1
40
1
10
19.57066990781669
20
-32.480946021087242
30
0
10
19.57066990781669
20
-32.5618601459337
30
0
10
19.579008299597543
20
-32.571125166423393
30
0
0
SPLINE
5
456
100
AcDbEntity
8
0
100
AcDbSpline
70
0
71
2
72
6
73
3
74
0
42
0.000000001
43
0.0000000001
44
0.0000000001
40
0
40
0
40
0
40
1
40
1
40
1
10
19.579008299597543
20
-32.571125166423393
30
0
10
19.58734698940162
20
-32.580390112407279
30
0
10
19.648495692499917
20
-32.580390112407279
30
0
0
LINE
5
457
100
AcDbEntity
8
0
100
AcDbLine
10
19.648495692499917
20
-32.580390112407279
30
0
11
19.648495692499917
21
-32.712570490248275
31
0
0
LINE
5
458
100
AcDbEntity
8
0
100
AcDbLine
10
19.648495692499917
20
-32.712570490248275
30
0
11
19.54781629491691
21
-32.712570490248275
31
0
0
SPLINE
5
459
100
AcDbEntity
8
0
100
AcDbSpline
70
0
71
2
72
6
73
3
74
0
42
0.000000001
43
0.0000000001
44
0.0000000001
40
0
40
0
40
0
40
1
40
1
40
1
10
19.54781629491691
20
-32.712570490248275
30
0
10
19.462578374632638
20
-32.712570490248275
30
0
10
19.426136094816965
20
-32.705467404730392
30
0
0
SPLINE
5
460
100
AcDbEntity
8
0
100
AcDbSpline
70
0
71
2
72
6
73
3
74
0
42
0.000000001
43
0.0000000001
44
0.0000000001
40
0
40
0
40
0
40
1
40
1
40
1
10
19.426136094816965
20
-32.705467404730392
30
0
10
19.389694113024515
20
-32.698364170200897
30
0
10
19.361898977049631
20
-32.672731043703628
30
0
0
SPLINE
5
461
100
AcDbEntity
8
0
100
AcDbSpline
70
0
71
2
72
6
73
3
74
0
42
0.000000001
43
0.0000000001
44
0.0000000001
40
0
40
0
40
0
40
1
40
1
40
1
10
19.361898977049631
20
-32.672731043703628
30
0
10
19.33410413909797
20
-32.647097991712165
30
0
10
19.327309805640024
20
-32.614052878625465
30
0
0
SPLINE
5
462
100
AcDbEntity
8
0
100
AcDbSpline
70
0
71
2
72
6
73
3
74
0
42
0.000000001
43
0.0000000001
44
0.0000000001
40
0
40
0
40
0
40
1
40
1
40
1
10
19.327309805640024
20
-32.614052878625465
30
0
10
19.320515472182077
20
-32.581007765538764
30
0
10
19.320515472182077
20
-32.458710061318946
30
0
0
LINE
5
463
100
AcDbEntity
8
0
100
AcDbLine
10
19.320515472182077
20
-32.458710061318946
30
0
11
19.320515472182077
21
-32.04240365505941
31
0
0
LINE
5
464
100
AcDbEntity
8
0
100
AcDbLine
10
19.320515472182077
20
-32.04240365505941
30
0
11
19.2667786066616
21
-32.04240365505941
31
0
0
LINE
5
465
100
AcDbEntity
8
0
100
AcDbLine
10
19.2667786066616
20
-32.04240365505941
30
0
11
19.2667786066616
21
-31.91269396425016
31
0
0
LINE
5
466
100
AcDbEntity
8
0
100
AcDbLine
10
19.2667786066616
20
-31.91269396425016
30
0
11
19.320515472182077
21
-31.91269396425016
31
0
0
LINE
5
467
100
AcDbEntity
8
0
100
AcDbLine
10
19.320515472182077
20
-31.91269396425016
30
0
11
19.320515472182077
21
-31.783601926572395
31
0
0
LINE
5
468
100
AcDbEntity
8
0
100
AcDbLine
10
19.320515472182077
20
-31.783601926572395
30
0
11
19.57066990781669
21
-31.783601926572395
31
0
0
LINE
5
469
100
AcDbEntity
8
0
100
AcDbLine
10
19.956093210467142
20
-31.783601926572395
30
0
11
19.956093210467142
21
-31.91269396425016
31
0
0
LINE
5
470
100
AcDbEntity
8
0
100
AcDbLine
10
19.956093210467142
20
-31.91269396425016
30
0
11
20.023418742903512
21
-31.91269396425016
31
0
0
LINE
5
471
100
AcDbEntity
8
0
100
AcDbLine
10
20.023418742903512
20
-31.91269396425016
30
0
11
20.023418742903512
21
-32.04240365505941
31
0
0
LINE
5
472
100
AcDbEntity
8
0
100
AcDbLine
10
20.023418742903512
20
-32.04240365505941
30
0
11
19.956093210467142
21
-32.04240365505941
31
0
0
LINE
5
473
100
AcDbEntity
8
0
100
AcDbLine
10
19.956093210467142
20
-32.04240365505941
30
0
11
19.956093210467142
21
-32.480946021087242
31
0
0
SPLINE
5
474
100
AcDbEntity
8
0
100
AcDbSpline
70
0
71
2
72
6
73
3
74
0
42
0.000000001
43
0.0000000001
44
0.0000000001
40
0
40
0
40
0
40
1
40
1
40
1
10
19.956093210467142
20
-32.480946021087242
30
0
10
19.956093210467142
20
-32.5618601459337
30
0
10
19.964431602247995
20
-32.571125166423393
30
0
0
SPLINE
5
475
100
AcDbEntity
8
0
100
AcDbSpline
70
0
71
2
72
6
73
3
74
0
42
0.000000001
43
0.0000000001
44
0.0000000001
40
0
40
0
40
0
40
1
40
1
40
1
10
19.964431602247995
20
-32.571125166423393
30
0
10
19.972770292052072
20
-32.580390112407279
30
0
10
20.033918995150369
20
-32.580390112407279
30
0
0
LINE
5
476
100
AcDbEntity
8
0
100
AcDbLine
10
20.033918995150369
20
-32.580390112407279
30
0
11
20.033918995150369
21
-32.712570490248275
31
0
0
LINE
5
477
100
AcDbEntity
8
0
100
AcDbLine
10
20.033918995150369
20
-32.712570490248275
30
0
11
19.933239597567361
21
-32.712570490248275
31
0
0
SPLINE
5
478
100
AcDbEntity
8
0
100
AcDbSpline
70
0
71
2
72
6
73
3
74
0
42
0.000000001
43
0.0000000001
44
0.0000000001
40
0
40
0
40
0
40
1
40
1
40
1
10
19.933239597567361
20
-32.712570490248275
30
0
10
19.84800167728309
20
-32.712570490248275
30
0
10
19.811559397467416
20
-32.705467404730392
30
0
0
SPLINE
5
479
100
AcDbEntity
8
0
100
AcDbSpline
70
0
71
2
72
6
73
3
74
0
42
0.000000001
43
0.0000000001
44
0.0000000001
40
0
40
0
40
0
40
1
40
1
40
1
10
19.811559397467416
20
-32.705467404730392
30
0
10
19.775117415674966
20
-32.698364170200897
30
0
10
19.747322279700082
20
-32.672731043703628
30
0
0
SPLINE
5
480
100
AcDbEntity
8
0
100
AcDbSpline
70
0
71
2
72
6
73
3
74
0
42
0.000000001
43
0.0000000001
44
0.0000000001
40
0
40
0
40
0
40
1
40
1
40
1
10
19.747322279700082
20
-32.672731043703628
30
0
10
19.719527441748422
20
-32.647097991712165
30
0
10
19.712733108290475
20
-32.614052878625465
30
0
0
SPLINE
5
481
100
AcDbEntity
8
0
100
AcDbSpline
70
0
71
2
72
6
73
3
74
0
42
0.000000001
43
0.0000000001
44
0.0000000001
40
0
40
0
40
0
40
1
40
1
40
1
10
19.712733108290475
20
-32.614052878625465
30
0
10
19.705938774832529
20
-32.581007765538764
30
0
10
19.705938774832529
20
-32.458710061318946
30
0
0
LINE
5
482
100
AcDbEntity
8
0
100
AcDbLine
10
19.705938774832529
20
-32.458710061318946
30
0
11
19.705938774832529
21
-32.04240365505941
31
0
0
LINE
5
483
100
AcDbEntity
8
0
100
AcDbLine
10
19.705938774832529
20
-32.04240365505941
30
0
11
19.652201909312051
21
-32.04240365505941
31
0
0
LINE
5
484
100
AcDbEntity
8
0
100
AcDbLine
10
19.652201909312051
20
-32.04240365505941
30
0
11
19.652201909312051
21
-31.91269396425016
31
0
0
LINE
5
485
100
AcDbEntity
8
0
100
AcDbLine
10
19.652201909312051
20
-31.91269396425016
30
0
11
19.705938774832529
21
-31.91269396425016
31
0
0
LINE
5
486
100
AcDbEntity
8
0
100
AcDbLine
10
19.705938774832529
20
-31.91269396425016
30
0
11
19.705938774832529
21
-31.783601926572395
31
0
0
LINE
5
487
100
AcDbEntity
8
0
100
AcDbLine
10
19.705938774832529
20
-31.783601926572395
30
0
11
19.956093210467142
21
-31.783601926572395
31
0
0
LINE
5
488
100
AcDbEntity
8
0
100
AcDbLine
10
20.301367718466562
20
-32.210408659584594
30
0
11
20.067272860297006
21
-32.210408659584594
31
0
0
LINE
5
489
100
AcDbEntity
8
0
100
AcDbLine
10
20.067272860297006
20
-32.210408659584594
30
0
11
20.067272860297006
21
-32.155436413295341
31
0
0
SPLINE
5
490
100
AcDbEntity
8
0
100
AcDbSpline
70
0
71
2
72
6
73
3
74
0
42
0.000000001
43
0.0000000001
44
0.0000000001
40
0
40
0
40
0
40
1
40
1
40
1
10
20.067272860297006
20
-32.155436413295341
30
0
10
20.067272860297006
20
-32.060315968401504
30
0
10
20.089200217016977
20
-32.008740888841224
30
0
0
SPLINE
5
491
100
AcDbEntity
8
0
100
AcDbSpline
70
0
71
2
72
6
73
3
74
0
42
0.000000001
43
0.0000000001
44
0.0000000001
40
0
40
0
40
0
40
1
40
1
40
1
10
20.089200217016977
20
-32.008740888841224
30
0
10
20.1111269776905
20
-31.95716588378675
30
0
10
20.177217203863901
20
-31.917635263807846
30
0
0
SPLINE
5
492
100
AcDbEntity
8
0
100
AcDbSpline
70
0
71
2
72
6
73
3
74
0
42
0.000000001
43
0.0000000001
44
0.0000000001
40
0
40
0
40
0
40
1
40
1
40
1
10
20.177217203863901
20
-31.917635263807846
30
0
10
20.243307430037301
20
-31.878104718334747
30
0
10
20.348928052672189
20
-31.878104718334747
30
0
0
SPLINE
5
493
100
AcDbEntity
8
0
100
AcDbSpline
70
0
71
2
72
6
73
3
74
0
42
0.000000001
43
0.0000000001
44
0.0000000001
40
0
40
0
40
0
40
1
40
1
40
1
10
20.348928052672189
20
-31.878104718334747
30
0
10
20.475549775847238
20
-31.878104718334747
30
0
10
20.539786893614572
20
-31.92288546443708
30
0
0
SPLINE
5
494
100
AcDbEntity
8
0
100
AcDbSpline
70
0
71
2
72
6
73
3
74
0
42
0.000000001
43
0.0000000001
44
0.0000000001
40
0
40
0
40
0
40
1
40
1
40
1
10
20.539786893614572
20
-31.92288546443708
30
0
10
20.604024011381906
20
-31.967666136033607
30
0
10
20.616995174177926
20
-32.03282988250978
30
0
0
SPLINE
5
495
100
AcDbEntity
8
0
100
AcDbSpline
70
0
71
2
72
6
73
3
74
0
42
0.000000001
43
0.0000000001
44
0.0000000001
40
0
40
0
40
0
40
1
40
1
40
1
10
20.616995174177926
20
-32.03282988250978
30
0
10
20.629965740927499
20
-32.097993554480148
30
0
10
20.629965740927499
20
-32.30120545805223
30
0
0
LINE
5
496
100
AcDbEntity
8
0
100
AcDbLine
10
20.629965740927499
20
-32.30120545805223
30
0
11
20.629965740927499
21
-32.712570490248275
31
0
0
LINE
5
497
100
AcDbEntity
8
0
100
AcDbLine
10
20.629965740927499
20
-32.712570490248275
30
0
11
20.38722344089393
21
-32.712570490248275
31
0
0
LINE
5
498
100
AcDbEntity
8
0
100
AcDbLine
10
20.38722344089393
20
-32.712570490248275
30
0
11
20.38722344089393
21
-32.639531554586959
31
0
0
SPLINE
5
499
100
AcDbEntity
8
0
100
AcDbSpline
70
0
71
2
72
6
73
3
74
0
42
0.000000001
43
0.0000000001
44
0.0000000001
40
0
40
0
40
0
40
1
40
1
40
1
10
20.38722344089393
20
-32.639531554586959
30
0
10
20.36436982799415
20
-32.683463009007049
30
0
10
20.328236300238412
20
-32.705428661711288
30
0
0
SPLINE
5
500
100
AcDbEntity
8
0
100
AcDbSpline
70
0
71
2
72
6
73
3
74
0
42
0.000000001
43
0.0000000001
44
0.0000000001
40
0
40
0
40
0
40
1
40
1
40
1
10
20.328236300238412
20
-32.705428661711288
30
0
10
20.292102772482675
20
-32.727394463427139
30
0
10
20.242072421797555
20
-32.727394463427139
30
0
0
SPLINE
5
501
100
AcDbEntity
8
0
100
AcDbSpline
70
0
71
2
72
6
73
3
74
0
42
0.000000001
43
0.0000000001
44
0.0000000001
40
0
40
0
40
0
40
1
40
1
40
1
10
20.242072421797555
20
-32.727394463427139
30
0
10
20.176599699744028
20
-32.727394463427139
30
0
10
20.121936280020517
20
-32.690643431551528
30
0
0
SPLINE
5
502
100
AcDbEntity
8
0
100
AcDbSpline
70
0
71
2
72
6
73
3
74
0
42
0.000000001
43
0.0000000001
44
0.0000000001
40
0
40
0
40
0
40
1
40
1
40
1
10
20.121936280020517
20
-32.690643431551528
30
0
10
20.067272860297006
20
-32.653892250664306
30
0
10
20.067272860297006
20
-32.529741587050033
30
0
0
LINE
5
503
100
AcDbEntity
8
0
100
AcDbLine
10
20.067272860297006
20
-32.529741587050033
30
0
11
20.067272860297006
21
-32.462416054613662
31
0
0
SPLINE
5
504
100
AcDbEntity
8
0
100
AcDbSpline
70
0
71
2
72
6
73
3
74
0
42
0.000000001
43
0.0000000001
44
0.0000000001
40
0
40
0
40
0
40
1
40
1
40
1
10
20.067272860297006
20
-32.462416054613662
30
0
10
20.067272860297006
20
-32.370383949883056
30
0
10
20.09630330253486
20
-32.337030010230613
30
0
0
SPLINE
5
505
100
AcDbEntity
8
0
100
AcDbSpline
70
0
71
2
72
6
73
3
74
0
42
0.000000001
43
0.0000000001
44
0.0000000001
40
0
40
0
40
0
40
1
40
1
40
1
10
20.09630330253486
20
-32.337030010230613
30
0
10
20.125333148726266
20
-32.30367607057817
30
0
10
20.240219313391488
20
-32.25920415104158
30
0
0
SPLINE
5
506
100
AcDbEntity
8
0
100
AcDbSpline
70
0
71
2
72
6
73
3
74
0
42
0.000000001
43
0.0000000001
44
0.0000000001
40
0
40
0
40
0
40
1
40
1
40
1
10
20.240219313391488
20
-32.25920415104158
30
0
10
20.363134223707956
20
-32.211026312716079
30
0
10
20.371781665571969
20
-32.194349380142761
30
0
0
SPLINE
5
507
100
AcDbEntity
8
0
100
AcDbSpline
70
0
71
2
72
6
73
3
74
0
42
0.000000001
43
0.0000000001
44
0.0000000001
40
0
40
0
40
0
40
1
40
1
40
1
10
20.371781665571969
20
-32.194349380142761
30
0
10
20.380429107435983
20
-32.177672373063636
30
0
10
20.380429107435983
20
-32.126406194574905
30
0
0
SPLINE
5
508
100
AcDbEntity
8
0
100
AcDbSpline
70
0
71
2
72
6
73
3
74
0
42
0.000000001
43
0.0000000001
44
0.0000000001
40
0
40
0
40
0
40
1
40
1
40
1
10
20.380429107435983
20
-32.126406194574905
30
0
10
20.380429107435983
20
-32.062168927795959
30
0
10
20.37085540939216
20
-32.042712481625152
30
0
0
SPLINE
5
509
100
AcDbEntity
8
0
100
AcDbSpline
70
0
71
2
72
6
73
3
74
0
42
0.000000001
43
0.0000000001
44
0.0000000001
40
0
40
0
40
0
40
1
40
1
40
1
10
20.37085540939216
20
-32.042712481625152
30
0
10
20.361281711348337
20
-32.023256035454345
30
0
10
20.339045602568429
20
-32.023256035454345
30
0
0
SPLINE
5
510
100
AcDbEntity
8
0
100
AcDbSpline
70
0
71
2
72
6
73
3
74
0
42
0.000000001
43
0.0000000001
44
0.0000000001
40
0
40
0
40
0
40
1
40
1
40
1
10
20.339045602568429
20
-32.023256035454345
30
0
10
20.313721377142709
20
-32.023256035454345
30
0
10
20.307544547804635
20
-32.039624141461921
30
0
0
SPLINE
5
511
100
AcDbEntity
8
0
100
AcDbSpline
70
0
71
2
72
6
73
3
74
0
42
0.000000001
43
0.0000000001
44
0.0000000001
40
0
40
0
40
0
40
1
40
1
40
1
10
20.307544547804635
20
-32.039624141461921
30
0
10
20.301367718466562
20
-32.055992321975303
30
0
10
20.301367718466562
20
-32.124553160674644
30
0
0
LINE
5
512
100
AcDbEntity
8
0
100
AcDbLine
10
20.301367718466562
20
-32.124553160674644
30
0
11
20.301367718466562
21
-32.210408659584594
31
0
0
SPLINE
5
513
100
AcDbEntity
8
0
100
AcDbSpline
70
0
71
2
72
6
73
3
74
0
42
0.000000001
43
0.0000000001
44
0.0000000001
40
0
40
0
40
0
40
1
40
1
40
1
10
20.380429107435983
20
-32.322823690183235
30
0
10
20.320515710600656
20
-32.36667795658834
30
0
10
20.310942012556833
20
-32.396325828440261
30
0
0
SPLINE
5
514
100
AcDbEntity
8
0
100
AcDbSpline
70
0
71
2
72
6
73
3
74
0
42
0.000000001
43
0.0000000001
44
0.0000000001
40
0
40
0
40
0
40
1
40
1
40
1
10
20.310942012556833
20
-32.396325828440261
30
0
10
20.301367718466562
20
-32.425973774797988
30
0
10
20.301367718466562
20
-32.481563674218727
30
0
0
SPLINE
5
515
100
AcDbEntity
8
0
100
AcDbSpline
70
0
71
2
72
6
73
3
74
0
42
0.000000001
43
0.0000000001
44
0.0000000001
40
0
40
0
40
0
40
1
40
1
40
1
10
20.301367718466562
20
-32.481563674218727
30
0
10
20.301367718466562
20
-32.545183213360382
30
0
10
20.309706408270639
20
-32.563713179833961
30
0
0
SPLINE
5
516
100
AcDbEntity
8
0
100
AcDbSpline
70
0
71
2
72
6
73
3
74
0
42
0.000000001
43
0.0000000001
44
0.0000000001
40
0
40
0
40
0
40
1
40
1
40
1
10
20.309706408270639
20
-32.563713179833961
30
0
10
20.318045098074716
20
-32.58224314630754
30
0
10
20.342751819380563
20
-32.58224314630754
30
0
0
SPLINE
5
517
100
AcDbEntity
8
0
100
AcDbSpline
70
0
71
2
72
6
73
3
74
0
42
0.000000001
43
0.0000000001
44
0.0000000001
40
0
40
0
40
0
40
1
40
1
40
1
10
20.342751819380563
20
-32.58224314630754
30
0
10
20.366222936400217
20
-32.58224314630754
30
0
10
20.3733260219181
20
-32.567727999694419
30
0
0
SPLINE
5
518
100
AcDbEntity
8
0
100
AcDbSpline
70
0
71
2
72
6
73
3
74
0
42
0.000000001
43
0.0000000001
44
0.0000000001
40
0
40
0
40
0
40
1
40
1
40
1
10
20.3733260219181
20
-32.567727999694419
30
0
10
20.380429107435983
20
-32.553212853081298
30
0
10
20.380429107435983
20
-32.491446347839904
30
0
0
LINE
5
519
100
AcDbEntity
8
0
100
AcDbLine
10
20.380429107435983
20
-32.491446347839904
30
0
11
20.380429107435983
21
-32.322823690183235
31
0
0
LINE
5
520
100
AcDbEntity
8
0
100
AcDbLine
10
20.962269980200571
20
-31.89292869151361
30
0
11
20.957946259268564
21
-31.970908926732612
31
0
0
SPLINE
5
521
100
AcDbEntity
8
0
100
AcDbSpline
70
0
71
2
72
6
73
3
74
0
42
0.000000001
43
0.0000000001
44
0.0000000001
40
0
40
0
40
0
40
1
40
1
40
1
10
20.957946259268564
20
-31.970908926732612
30
0
10
20.986976701506418
20
-31.924506785280776
30
0
10
21.027124602087778
20
-31.901305751807762
30
0
0
SPLINE
5
522
100
AcDbEntity
8
0
100
AcDbSpline
70
0
71
2
72
6
73
3
74
0
42
0.000000001
43
0.0000000001
44
0.0000000001
40
0
40
0
40
0
40
1
40
1
40
1
10
21.027124602087778
20
-31.901305751807762
30
0
10
21.067273098715585
20
-31.878104718334747
30
0
10
21.118539053686899
20
-31.878104718334747
30
0
0
SPLINE
5
523
100
AcDbEntity
8
0
100
AcDbSpline
70
0
71
2
72
6
73
3
74
0
42
0.000000001
43
0.0000000001
44
0.0000000001
40
0
40
0
40
0
40
1
40
1
40
1
10
21.118539053686899
20
-31.878104718334747
30
0
10
21.218600947150033
20
-31.878104718334747
30
0
10
21.276043731459421
20
-31.970908926732612
30
0
0
SPLINE
5
524
100
AcDbEntity
8
0
100
AcDbSpline
70
0
71
2
72
6
73
3
74
0
42
0.000000001
43
0.0000000001
44
0.0000000001
40
0
40
0
40
0
40
1
40
1
40
1
10
21.276043731459421
20
-31.970908926732612
30
0
10
21.307544786223215
20
-31.924506785280776
30
0
10
21.347075182684701
20
-31.901305751807762
30
0
0
SPLINE
5
525
100
AcDbEntity
8
0
100
AcDbSpline
70
0
71
2
72
6
73
3
74
0
42
0.000000001
43
0.0000000001
44
0.0000000001
40
0
40
0
40
0
40
1
40
1
40
1
10
21.347075182684701
20
-31.901305751807762
30
0
10
21.386606175192636
20
-31.878104718334747
30
0
10
21.434784013518136
20
-31.878104718334747
30
0
0
SPLINE
5
526
100
AcDbEntity
8
0
100
AcDbSpline
70
0
71
2
72
6
73
3
74
0
42
0.000000001
43
0.0000000001
44
0.0000000001
40
0
40
0
40
0
40
1
40
1
40
1
10
21.434784013518136
20
-31.878104718334747
30
0
10
21.498403627165597
20
-31.878104718334747
30
0
10
21.540095884093088
20
-31.908987970955444
30
0
0
SPLINE
5
527
100
AcDbEntity
8
0
100
AcDbSpline
70
0
71
2
72
6
73
3
74
0
42
0.000000001
43
0.0000000001
44
0.0000000001
40
0
40
0
40
0
40
1
40
1
40
1
10
21.540095884093088
20
-31.908987970955444
30
0
10
21.581788141020578
20
-31.939871223576141
30
0
10
21.593523699530405
20
-31.984651969678474
30
0
0
SPLINE
5
528
100
AcDbEntity
8
0
100
AcDbSpline
70
0
71
2
72
6
73
3
74
0
42
0.000000001
43
0.0000000001
44
0.0000000001
40
0
40
0
40
0
40
1
40
1
40
1
10
21.593523699530405
20
-31.984651969678474
30
0
10
21.605259258040231
20
-32.029432715780807
30
0
10
21.605259258040231
20
-32.130112113363815
30
0
0
LINE
5
529
100
AcDbEntity
8
0
100
AcDbLine
10
21.605259258040231
20
-32.130112113363815
30
0
11
21.605259258040231
21
-32.712570490248275
31
0
0
LINE
5
530
100
AcDbEntity
8
0
100
AcDbLine
10
21.605259258040231
20
-32.712570490248268
30
0
11
21.363134462126535
21
-32.712570490248268
31
0
0
LINE
5
531
100
AcDbEntity
8
0
100
AcDbLine
10
21.363134462126535
20
-32.712570490248275
30
0
11
21.363134462126535
21
-32.178290026195121
31
0
0
SPLINE
5
532
100
AcDbEntity
8
0
100
AcDbSpline
70
0
71
2
72
6
73
3
74
0
42
0.000000001
43
0.0000000001
44
0.0000000001
40
0
40
0
40
0
40
1
40
1
40
1
10
21.363134462126535
20
-32.178290026195121
30
0
10
21.363134462126535
20
-32.073286907680107
30
0
10
21.356031376608652
20
-32.048271508820129
30
0
0
SPLINE
5
533
100
AcDbEntity
8
0
100
AcDbSpline
70
0
71
2
72
6
73
3
74
0
42
0.000000001
43
0.0000000001
44
0.0000000001
40
0
40
0
40
0
40
1
40
1
40
1
10
21.356031376608652
20
-32.048271508820129
30
0
10
21.348928291090768
20
-32.023256035454345
30
0
10
21.322986561545175
20
-32.023256035454345
30
0
0
SPLINE
5
534
100
AcDbEntity
8
0
100
AcDbSpline
70
0
71
2
72
6
73
3
74
0
42
0.000000001
43
0.0000000001
44
0.0000000001
40
0
40
0
40
0
40
1
40
1
40
1
10
21.322986561545175
20
-32.023256035454345
30
0
10
21.296426731833261
20
-32.023256035454345
30
0
10
21.288706142195505
20
-32.047962682254386
30
0
0
SPLINE
5
535
100
AcDbEntity
8
0
100
AcDbSpline
70
0
71
2
72
6
73
3
74
0
42
0.000000001
43
0.0000000001
44
0.0000000001
40
0
40
0
40
0
40
1
40
1
40
1
10
21.288706142195505
20
-32.047962682254386
30
0
10
21.280984956511301
20
-32.072669254548622
30
0
10
21.280984956511301
20
-32.178290026195121
30
0
0
LINE
5
536
100
AcDbEntity
8
0
100
AcDbLine
10
21.280984956511301
20
-32.178290026195121
30
0
11
21.280984956511301
21
-32.712570490248275
31
0
0
LINE
5
537
100
AcDbEntity
8
0
100
AcDbLine
10
21.280984956511301
20
-32.712570490248275
30
0
11
21.038860160597604
21
-32.712570490248275
31
0
0
LINE
5
538
100
AcDbEntity
8
0
100
AcDbLine
10
21.038860160597604
20
-32.712570490248275
30
0
11
21.038860160597604
21
-32.191878618605209
31
0
0
SPLINE
5
539
100
AcDbEntity
8
0
100
AcDbSpline
70
0
71
2
72
6
73
3
74
0
42
0.000000001
43
0.0000000001
44
0.0000000001
40
0
40
0
40
0
40
1
40
1
40
1
10
21.038860160597604
20
-32.191878618605209
30
0
10
21.038860160597604
20
-32.071433948285652
30
0
10
21.032992679365915
20
-32.047344954617095
30
0
0
SPLINE
5
540
100
AcDbEntity
8
0
100
AcDbSpline
70
0
71
2
72
6
73
3
74
0
42
0.000000001
43
0.0000000001
44
0.0000000001
40
0
40
0
40
0
40
1
40
1
40
1
10
21.032992679365915
20
-32.047344954617095
30
0
10
21.027124602087778
20
-32.023256035454345
30
0
10
21.000565368422311
20
-32.023256035454345
30
0
0
SPLINE
5
541
100
AcDbEntity
8
0
100
AcDbSpline
70
0
71
2
72
6
73
3
74
0
42
0.000000001
43
0.0000000001
44
0.0000000001
40
0
40
0
40
0
40
1
40
1
40
1
10
21.000565368422311
20
-32.023256035454345
30
0
10
20.983887988814157
20
-32.023256035454345
30
0
10
20.97215243030433
20
-32.035918148167205
30
0
0
SPLINE
5
542
100
AcDbEntity
8
0
100
AcDbSpline
70
0
71
2
72
6
73
3
74
0
42
0.000000001
43
0.0000000001
44
0.0000000001
40
0
40
0
40
0
40
1
40
1
40
1
10
20.97215243030433
20
-32.035918148167205
30
0
10
20.960416871794504
20
-32.048580335385871
30
0
10
20.959181863554758
20
-32.066801400787902
30
0
0
SPLINE
5
543
100
AcDbEntity
8
0
100
AcDbSpline
70
0
71
2
72
6
73
3
74
0
42
0.000000001
43
0.0000000001
44
0.0000000001
40
0
40
0
40
0
40
1
40
1
40
1
10
20.959181863554758
20
-32.066801400787902
30
0
10
20.957946259268564
20
-32.085022540695739
30
0
10
20.957946259268564
20
-32.144318433411193
30
0
0
LINE
5
544
100
AcDbEntity
8
0
100
AcDbLine
10
20.957946259268564
20
-32.144318433411193
30
0
11
20.957946259268564
21
-32.712570490248275
31
0
0
LINE
5
545
100
AcDbEntity
8
0
100
AcDbLine
10
20.957946259268564
20
-32.712570490248275
30
0
11
20.715821463354867
21
-32.712570490248275
31
0
0
LINE
5
546
100
AcDbEntity
8
0
100
AcDbLine
10
20.715821463354867
20
-32.712570490248275
30
0
11
20.715821463354867
21
-31.89292869151361
31
0
0
LINE
5
547
100
AcDbEntity
8
0
100
AcDbLine
10
20.715821463354867
20
-31.89292869151361
30
0
11
20.962269980200571
21
-31.89292869151361
31
0
0
LINE
5
548
100
AcDbEntity
8
0
100
AcDbLine
10
22.29889758277778
20
-31.712570400841305
30
0
11
22.29889758277778
21
-32.712570490248268
31
0
0
LINE
5
549
100
AcDbEntity
8
0
100
AcDbLine
10
22.29889758277778
20
-32.712570490248268
30
0
11
22.049360353239816
21
-32.712570490248268
31
0
0
LINE
5
550
100
AcDbEntity
8
0
100
AcDbLine
10
22.049360353239816
20
-32.712570490248268
30
0
11
22.049360353239816
21
-32.176436992294853
31
0
0
SPLINE
5
551
100
AcDbEntity
8
0
100
AcDbSpline
70
0
71
2
72
6
73
3
74
0
42
0.000000001
43
0.0000000001
44
0.0000000001
40
0
40
0
40
0
40
1
40
1
40
1
10
22.049360353239816
20
-32.176436992294853
30
0
10
22.049360353239816
20
-32.060315968401497
30
0
10
22.043801624068063
20
-32.036844702370232
30
0
0
SPLINE
5
552
100
AcDbEntity
8
0
100
AcDbSpline
70
0
71
2
72
6
73
3
74
0
42
0.000000001
43
0.0000000001
44
0.0000000001
40
0
40
0
40
0
40
1
40
1
40
1
10
22.043801624068063
20
-32.036844702370232
30
0
10
22.03824289489631
20
-32.01337336183316
30
0
10
22.013227421530527
20
-32.001328902251785
30
0
0
SPLINE
5
553
100
AcDbEntity
8
0
100
AcDbSpline
70
0
71
2
72
6
73
3
74
0
42
0.000000001
43
0.0000000001
44
0.0000000001
40
0
40
0
40
0
40
1
40
1
40
1
10
22.013227421530527
20
-32.001328902251785
30
0
10
21.988211948164743
20
-31.989284442670414
30
0
10
21.901738721617502
20
-31.989284442670414
30
0
0
LINE
5
554
100
AcDbEntity
8
0
100
AcDbLine
10
21.901738721617502
20
-31.989284442670414
30
0
11
21.877032000311655
21
-31.989284442670414
31
0
0
LINE
5
555
100
AcDbEntity
8
0
100
AcDbLine
10
21.877032000311655
20
-31.989284442670414
30
0
11
21.877032000311655
21
-31.872700141675541
31
0
0
SPLINE
5
556
100
AcDbEntity
8
0
100
AcDbSpline
70
0
71
2
72
6
73
3
74
0
42
0.000000001
43
0.0000000001
44
0.0000000001
40
0
40
0
40
0
40
1
40
1
40
1
10
21.877032000311655
20
-31.872700141675541
30
0
10
22.05800779510383
20
-31.833748580820629
30
0
10
22.151892859228891
20
-31.712570400841305
30
0
0
LINE
5
557
100
AcDbEntity
8
0
100
AcDbLine
10
22.151892859228891
20
-31.712570400841305
30
0
11
22.29889758277778
21
-31.712570400841305
31
0
0
LINE
5
558
100
AcDbEntity
8
0
100
AcDbLine
10
22.940651852377695
20
-31.712570400841305
30
0
11
22.940651852377695
21
-31.872545691139766
31
0
0
LINE
5
559
100
AcDbEntity
8
0
100
AcDbLine
10
22.940651852377695
20
-31.872545691139766
30
0
11
22.631201822050851
21
-31.872545691139766
31
0
0
LINE
5
560
100
AcDbEntity
8
0
100
AcDbLine
10
22.631201822050851
20
-31.872545691139766
30
0
11
22.631201822050851
21
-32.042403655059402
31
0
0
SPLINE
5
561
100
AcDbEntity
8
0
100
AcDbSpline
70
0
71
2
72
6
73
3
74
0
42
0.000000001
43
0.0000000001
44
0.0000000001
40
0
40
0
40
0
40
1
40
1
40
1
10
22.631201822050851
20
-32.042403655059402
30
0
10
22.689262110480112
20
-31.973842816360065
30
0
10
22.780676562079233
20
-31.973842816360065
30
0
0
SPLINE
5
562
100
AcDbEntity
8
0
100
AcDbSpline
70
0
71
2
72
6
73
3
74
0
42
0.000000001
43
0.0000000001
44
0.0000000001
40
0
40
0
40
0
40
1
40
1
40
1
10
22.780676562079233
20
-31.973842816360065
30
0
10
22.88382657218818
20
-31.973842816360065
30
0
10
22.936636883505624
20
-32.031594501740997
30
0
0
SPLINE
5
563
100
AcDbEntity
8
0
100
AcDbSpline
70
0
71
2
72
6
73
3
74
0
42
0.000000001
43
0.0000000001
44
0.0000000001
40
0
40
0
40
0
40
1
40
1
40
1
10
22.936636883505624
20
-32.031594501740997
30
0
10
22.989447194823068
20
-32.089346187121933
30
0
10
22.989447194823068
20
-32.253645198352402
30
0
0
LINE
5
564
100
AcDbEntity
8
0
100
AcDbLine
10
22.989447194823068
20
-32.253645198352402
30
0
11
22.989447194823068
21
-32.396325828440254
31
0
0
SPLINE
5
565
100
AcDbEntity
8
0
100
AcDbSpline
70
0
71
2
72
6
73
3
74
0
42
0.000000001
43
0.0000000001
44
0.0000000001
40
0
40
0
40
0
40
1
40
1
40
1
10
22.989447194823068
20
-32.396325828440254
30
0
10
22.989447194823068
20
-32.502564253218239
30
0
10
22.979255992659372
20
-32.552286298878258
30
0
0
SPLINE
5
566
100
AcDbEntity
8
0
100
AcDbSpline
70
0
71
2
72
6
73
3
74
0
42
0.000000001
43
0.0000000001
44
0.0000000001
40
0
40
0
40
0
40
1
40
1
40
1
10
22.979255992659372
20
-32.552286298878258
30
0
10
22.969064790495676
20
-32.602008419044083
30
0
10
22.935710627325815
20
-32.64431847811467
30
0
0
SPLINE
5
567
100
AcDbEntity
8
0
100
AcDbSpline
70
0
71
2
72
6
73
3
74
0
42
0.000000001
43
0.0000000001
44
0.0000000001
40
0
40
0
40
0
40
1
40
1
40
1
10
22.935710627325815
20
-32.64431847811467
30
0
10
22.902356464155954
20
-32.686628611691063
30
0
10
22.842751819380563
20
-32.709173323519295
30
0
0
SPLINE
5
568
100
AcDbEntity
8
0
100
AcDbSpline
70
0
71
2
72
6
73
3
74
0
42
0.000000001
43
0.0000000001
44
0.0000000001
40
0
40
0
40
0
40
1
40
1
40
1
10
22.842751819380563
20
-32.709173323519295
30
0
10
22.783147174605173
20
-32.731718184359138
30
0
10
22.697292048224252
20
-32.731718184359138
30
0
0
SPLINE
5
569
100
AcDbEntity
8
0
100
AcDbSpline
70
0
71
2
72
6
73
3
74
0
42
0.000000001
43
0.0000000001
44
0.0000000001
40
0
40
0
40
0
40
1
40
1
40
1
10
22.697292048224252
20
-32.731718184359138
30
0
10
22.600935775526803
20
-32.731718184359138
30
0
10
22.527433711775583
20
-32.698055418140953
30
0
0
SPLINE
5
570
100
AcDbEntity
8
0
100
AcDbSpline
70
0
71
2
72
6
73
3
74
0
42
0.000000001
43
0.0000000001
44
0.0000000001
40
0
40
0
40
0
40
1
40
1
40
1
10
22.527433711775583
20
-32.698055418140953
30
0
10
22.453931648024362
20
-32.664392577416962
30
0
10
22.423048693426889
20
-32.597684772617882
30
0
0
SPLINE
5
571
100
AcDbEntity
8
0
100
AcDbSpline
70
0
71
2
72
6
73
3
74
0
42
0.000000001
43
0.0000000001
44
0.0000000001
40
0
40
0
40
0
40
1
40
1
40
1
10
22.423048693426889
20
-32.597684772617882
30
0
10
22.392165142782968
20
-32.530976893312996
30
0
10
22.392165142782968
20
-32.391384528882568
30
0
0
LINE
5
572
100
AcDbEntity
8
0
100
AcDbLine
10
22.392165142782968
20
-32.391384528882568
30
0
11
22.392165142782968
21
-32.337030010230606
31
0
0
LINE
5
573
100
AcDbEntity
8
0
100
AcDbLine
10
22.392165142782968
20
-32.337030010230606
30
0
11
22.641701776274484
21
-32.337030010230606
31
0
0
LINE
5
574
100
AcDbEntity
8
0
100
AcDbLine
10
22.641701776274484
20
-32.337030010230606
30
0
11
22.641701776274484
21
-32.399414243109291
31
0
0
SPLINE
5
575
100
AcDbEntity
8
0
100
AcDbSpline
70
0
71
2
72
6
73
3
74
0
42
0.000000001
43
0.0000000001
44
0.0000000001
40
0
40
0
40
0
40
1
40
1
40
1
10
22.641701776274484
20
-32.399414243109291
30
0
10
22.641701776274484
20
-32.496387647397583
30
0
10
22.648496109732431
20
-32.537153573639458
30
0
0
SPLINE
5
576
100
AcDbEntity
8
0
100
AcDbSpline
70
0
71
2
72
6
73
3
74
0
42
0.000000001
43
0.0000000001
44
0.0000000001
40
0
40
0
40
0
40
1
40
1
40
1
10
22.648496109732431
20
-32.537153573639458
30
0
10
22.655290443190378
20
-32.577919425375526
30
0
10
22.695438939818185
20
-32.577919425375526
30
0
0
SPLINE
5
577
100
AcDbEntity
8
0
100
AcDbSpline
70
0
71
2
72
6
73
3
74
0
42
0.000000001
43
0.0000000001
44
0.0000000001
40
0
40
0
40
0
40
1
40
1
40
1
10
22.695438939818185
20
-32.577919425375526
30
0
10
22.713968831785959
20
-32.577919425375526
30
0
10
22.725395638235849
20
-32.566183792359894
30
0
0
SPLINE
5
578
100
AcDbEntity
8
0
100
AcDbSpline
70
0
71
2
72
6
73
3
74
0
42
0.000000001
43
0.0000000001
44
0.0000000001
40
0
40
0
40
0
40
1
40
1
40
1
10
22.725395638235849
20
-32.566183792359894
30
0
10
22.736822444685739
20
-32.554448159344261
30
0
10
22.737748700865549
20
-32.540859492428368
30
0
0
SPLINE
5
579
100
AcDbEntity
8
0
100
AcDbSpline
70
0
71
2
72
6
73
3
74
0
42
0.000000001
43
0.0000000001
44
0.0000000001
40
0
40
0
40
0
40
1
40
1
40
1
10
22.737748700865549
20
-32.540859492428368
30
0
10
22.738675553091806
20
-32.52727090001828
30
0
10
22.739910561331552
20
-32.422885509140556
30
0
0
LINE
5
580
100
AcDbEntity
8
0
100
AcDbLine
10
22.739910561331552
20
-32.422885509140556
30
0
11
22.739910561331552
21
-32.22461490512616
31
0
0
SPLINE
5
581
100
AcDbEntity
8
0
100
AcDbSpline
70
0
71
2
72
6
73
3
74
0
42
0.000000001
43
0.0000000001
44
0.0000000001
40
0
40
0
40
0
40
1
40
1
40
1
10
22.739910561331552
20
-32.22461490512616
30
0
10
22.739910561331552
20
-32.168407352573936
30
0
10
22.728175002821725
20
-32.148024426705902
30
0
0
SPLINE
5
582
100
AcDbEntity
8
0
100
AcDbSpline
70
0
71
2
72
6
73
3
74
0
42
0.000000001
43
0.0000000001
44
0.0000000001
40
0
40
0
40
0
40
1
40
1
40
1
10
22.728175002821725
20
-32.148024426705902
30
0
10
22.716439444311899
20
-32.127641500837868
30
0
10
22.689262110480112
20
-32.127641500837868
30
0
0
SPLINE
5
583
100
AcDbEntity
8
0
100
AcDbSpline
70
0
71
2
72
6
73
3
74
0
42
0.000000001
43
0.0000000001
44
0.0000000001
40
0
40
0
40
0
40
1
40
1
40
1
10
22.689262110480112
20
-32.127641500837868
30
0
10
22.671967822798532
20
-32.127641500837868
30
0
10
22.660231668242258
20
-32.138141753084724
30
0
0
SPLINE
5
584
100
AcDbEntity
8
0
100
AcDbSpline
70
0
71
2
72
6
73
3
74
0
42
0.000000001
43
0.0000000001
44
0.0000000001
40
0
40
0
40
0
40
1
40
1
40
1
10
22.660231668242258
20
-32.138141753084724
30
0
10
22.648496109732431
20
-32.148642079837387
30
0
10
22.645099241026681
20
-32.160686539418762
30
0
0
SPLINE
5
585
100
AcDbEntity
8
0
100
AcDbSpline
70
0
71
2
72
6
73
3
74
0
42
0.000000001
43
0.0000000001
44
0.0000000001
40
0
40
0
40
0
40
1
40
1
40
1
10
22.645099241026681
20
-32.160686539418762
30
0
10
22.641701776274484
20
-32.172731073505943
30
0
10
22.641701776274484
20
-32.216585265405243
30
0
0
LINE
5
586
100
AcDbEntity
8
0
100
AcDbLine
10
22.641701776274484
20
-32.216585265405243
30
0
11
22.394635755308908
21
-32.216585265405243
31
0
0
LINE
5
587
100
AcDbEntity
8
0
100
AcDbLine
10
22.394635755308908
20
-32.216585265405243
30
0
11
22.405136305578988
21
-31.712570400841305
31
0
0
LINE
5
588
100
AcDbEntity
8
0
100
AcDbLine
10
22.405136305578988
20
-31.712570400841305
30
0
11
22.940651852377695
21
-31.712570400841305
31
0
0
LINE
5
589
100
AcDbEntity
8
0
100
AcDbLine
10
23.689261752852243
20
-32.148024426705902
30
0
11
23.429224569090646
21
-32.148024426705902
31
0
0
LINE
5
590
100
AcDbEntity
8
0
100
AcDbLine
10
23.429224569090646
20
-32.148024426705902
30
0
11
23.429224569090646
21
-31.974219219691822
31
0
0
SPLINE
5
591
100
AcDbEntity
8
0
100
AcDbSpline
70
0
71
2
72
6
73
3
74
0
42
0.000000001
43
0.0000000001
44
0.0000000001
40
0
40
0
40
0
40
1
40
1
40
1
10
23.429224569090646
20
-31.974219219691822
30
0
10
23.429224569090646
20
-31.898410456187793
30
0
10
23.420886475333017
20
-31.879610257155964
30
0
0
SPLINE
5
592
100
AcDbEntity
8
0
100
AcDbSpline
70
0
71
2
72
6
73
3
74
0
42
0.000000001
43
0.0000000001
44
0.0000000001
40
0
40
0
40
0
40
1
40
1
40
1
10
23.420886475333017
20
-31.879610257155964
30
0
10
23.41254778552894
20
-31.86081013262994
30
0
10
23.384134847410959
20
-31.86081013262994
30
0
0
SPLINE
5
593
100
AcDbEntity
8
0
100
AcDbSpline
70
0
71
2
72
6
73
3
74
0
42
0.000000001
43
0.0000000001
44
0.0000000001
40
0
40
0
40
0
40
1
40
1
40
1
10
23.384134847410959
20
-31.86081013262994
30
0
10
23.352016288527292
20
-31.86081013262994
30
0
10
23.343369442709726
20
-31.88366374552972
30
0
0
SPLINE
5
594
100
AcDbEntity
8
0
100
AcDbSpline
70
0
71
2
72
6
73
3
74
0
42
0.000000001
43
0.0000000001
44
0.0000000001
40
0
40
0
40
0
40
1
40
1
40
1
10
23.343369442709726
20
-31.88366374552972
30
0
10
23.334722000845712
20
-31.9065173584295
30
0
10
23.334722000845712
20
-31.982490183718273
30
0
0
LINE
5
595
100
AcDbEntity
8
0
100
AcDbLine
10
23.334722000845712
20
-31.982490183718273
30
0
11
23.334722000845712
21
-32.446974428303307
31
0
0
SPLINE
5
596
100
AcDbEntity
8
0
100
AcDbSpline
70
0
71
2
72
6
73
3
74
0
42
0.000000001
43
0.0000000001
44
0.0000000001
40
0
40
0
40
0
40
1
40
1
40
1
10
23.334722000845712
20
-32.446974428303307
30
0
10
23.334722000845712
20
-32.519858913428848
30
0
10
23.343369442709726
20
-32.542094873197144
30
0
0
SPLINE
5
597
100
AcDbEntity
8
0
100
AcDbSpline
70
0
71
2
72
6
73
3
74
0
42
0.000000001
43
0.0000000001
44
0.0000000001
40
0
40
0
40
0
40
1
40
1
40
1
10
23.343369442709726
20
-32.542094873197144
30
0
10
23.352016288527292
20
-32.564330832965439
30
0
10
23.38228233505134
20
-32.564330832965439
30
0
0
SPLINE
5
598
100
AcDbEntity
8
0
100
AcDbSpline
70
0
71
2
72
6
73
3
74
0
42
0.000000001
43
0.0000000001
44
0.0000000001
40
0
40
0
40
0
40
1
40
1
40
1
10
23.38228233505134
20
-32.564330832965439
30
0
10
23.411312181242746
20
-32.564330832965439
30
0
10
23.420268375166696
20
-32.542041750557487
30
0
0
SPLINE
5
599
100
AcDbEntity
8
0
100
AcDbSpline
70
0
71
2
72
6
73
3
74
0
42
0.000000001
43
0.0000000001
44
0.0000000001
40
0
40
0
40
0
40
1
40
1
40
1
10
23.420268375166696
20
-32.542041750557487
30
0
10
23.429224569090646
20
-32.519752742655342
30
0
10
23.429224569090646
20
-32.437400581247871
30
0
0
LINE
5
600
100
AcDbEntity
8
0
100
AcDbLine
10
23.429224569090646
20
-32.437400581247871
30
0
11
23.429224569090646
21
-32.31170571029908
31
0
0
LINE
5
601
100
AcDbEntity
8
0
100
AcDbLine
10
23.429224569090646
20
-32.31170571029908
30
0
11
23.689261752852243
21
-32.31170571029908
31
0
0
LINE
5
602
100
AcDbEntity
8
0
100
AcDbLine
10
23.689261752852243
20
-32.31170571029908
30
0
11
23.689261752852243
21
-32.350676568157738
31
0
0
SPLINE
5
603
100
AcDbEntity
8
0
100
AcDbSpline
70
0
71
2
72
6
73
3
74
0
42
0.000000001
43
0.0000000001
44
0.0000000001
40
0
40
0
40
0
40
1
40
1
40
1
10
23.689261752852243
20
-32.350676568157738
30
0
10
23.689261752852243
20
-32.505932511694496
30
0
10
23.667334396132272
20
-32.570883842117851
30
0
0
SPLINE
5
604
100
AcDbEntity
8
0
100
AcDbSpline
70
0
71
2
72
6
73
3
74
0
42
0.000000001
43
0.0000000001
44
0.0000000001
40
0
40
0
40
0
40
1
40
1
40
1
10
23.667334396132272
20
-32.570883842117851
30
0
10
23.645407635458749
20
-32.635835247047012
30
0
10
23.570361215361398
20
-32.6847031581474
30
0
0
SPLINE
5
605
100
AcDbEntity
8
0
100
AcDbSpline
70
0
71
2
72
6
73
3
74
0
42
0.000000001
43
0.0000000001
44
0.0000000001
40
0
40
0
40
0
40
1
40
1
40
1
10
23.570361215361398
20
-32.6847031581474
30
0
10
23.495314795264047
20
-32.733571143753593
30
0
10
23.385370451697153
20
-32.733571143753593
30
0
0
SPLINE
5
606
100
AcDbEntity
8
0
100
AcDbSpline
70
0
71
2
72
6
73
3
74
0
42
0.000000001
43
0.0000000001
44
0.0000000001
40
0
40
0
40
0
40
1
40
1
40
1
10
23.385370451697153
20
-32.733571143753593
30
0
10
23.271102387198251
20
-32.733571143753593
30
0
10
23.196982819327157
20
-32.692187489874428
30
0
0
SPLINE
5
607
100
AcDbEntity
8
0
100
AcDbSpline
70
0
71
2
72
6
73
3
74
0
42
0.000000001
43
0.0000000001
44
0.0000000001
40
0
40
0
40
0
40
1
40
1
40
1
10
23.196982819327157
20
-32.692187489874428
30
0
10
23.122862655409616
20
-32.650803985006874
30
0
10
23.09877403427009
20
-32.577610598809784
30
0
0
SPLINE
5
608
100
AcDbEntity
8
0
100
AcDbSpline
70
0
71
2
72
6
73
3
74
0
42
0.000000001
43
0.0000000001
44
0.0000000001
40
0
40
0
40
0
40
1
40
1
40
1
10
23.09877403427009
20
-32.577610598809784
30
0
10
23.074684817084115
20
-32.5044172871185
30
0
10
23.074684817084115
20
-32.35741293609864
30
0
0
LINE
5
609
100
AcDbEntity
8
0
100
AcDbLine
10
23.074684817084115
20
-32.35741293609864
30
0
11
23.074684817084115
21
-32.065257342464989
31
0
0
SPLINE
5
610
100
AcDbEntity
8
0
100
AcDbSpline
70
0
71
2
72
6
73
3
74
0
42
0.000000001
43
0.0000000001
44
0.0000000001
40
0
40
0
40
0
40
1
40
1
40
1
10
23.074684817084115
20
-32.065257342464989
30
0
10
23.074684817084115
20
-31.957165883786747
30
0
10
23.082096654661935
20
-31.903120191700527
30
0
0
SPLINE
5
611
100
AcDbEntity
8
0
100
AcDbSpline
70
0
71
2
72
6
73
3
74
0
42
0.000000001
43
0.0000000001
44
0.0000000001
40
0
40
0
40
0
40
1
40
1
40
1
10
23.082096654661935
20
-31.903120191700527
30
0
10
23.089508492239755
20
-31.849074425108501
30
0
10
23.126260120161813
20
-31.79904355288274
30
0
0
SPLINE
5
612
100
AcDbEntity
8
0
100
AcDbSpline
70
0
71
2
72
6
73
3
74
0
42
0.000000001
43
0.0000000001
44
0.0000000001
40
0
40
0
40
0
40
1
40
1
40
1
10
23.126260120161813
20
-31.79904355288274
30
0
10
23.163011152037424
20
-31.749012680656978
30
0
10
23.228174525984567
20
-31.720291213996479
30
0
0
SPLINE
5
613
100
AcDbEntity
8
0
100
AcDbSpline
70
0
71
2
72
6
73
3
74
0
42
0.000000001
43
0.0000000001
44
0.0000000001
40
0
40
0
40
0
40
1
40
1
40
1
10
23.228174525984567
20
-31.720291213996479
30
0
10
23.293338495978158
20
-31.691569821841785
30
0
10
23.377958614119333
20
-31.691569821841785
30
0
0
SPLINE
5
614
100
AcDbEntity
8
0
100
AcDbSpline
70
0
71
2
72
6
73
3
74
0
42
0.000000001
43
0.0000000001
44
0.0000000001
40
0
40
0
40
0
40
1
40
1
40
1
10
23.377958614119333
20
-31.691569821841785
30
0
10
23.492844182738107
20
-31.691569821841785
30
0
10
23.567581850775522
20
-31.735983775861332
30
0
0
SPLINE
5
615
100
AcDbEntity
8
0
100
AcDbSpline
70
0
71
2
72
6
73
3
74
0
42
0.000000001
43
0.0000000001
44
0.0000000001
40
0
40
0
40
0
40
1
40
1
40
1
10
23.567581850775522
20
-31.735983775861332
30
0
10
23.642319518812936
20
-31.780397804386684
30
0
10
23.66579063583259
20
-31.846705140478679
30
0
0
SPLINE
5
616
100
AcDbEntity
8
0
100
AcDbSpline
70
0
71
2
72
6
73
3
74
0
42
0.000000001
43
0.0000000001
44
0.0000000001
40
0
40
0
40
0
40
1
40
1
40
1
10
23.66579063583259
20
-31.846705140478679
30
0
10
23.689261752852243
20
-31.913012476570675
30
0
10
23.689261752852243
20
-32.053029449589317
30
0
0
LINE
5
617
100
AcDbEntity
8
0
100
AcDbLine
10
23.689261752852243
20
-32.053029449589317
30
0
11
23.689261752852243
21
-32.148024426705902
31
0
0
LINE
5
618
100
AcDbEntity
8
0
100
AcDbLine
10
24.389694411047738
20
-32.148024426705902
30
0
11
24.129657227286142
21
-32.148024426705902
31
0
0
LINE
5
619
100
AcDbEntity
8
0
100
AcDbLine
10
24.129657227286142
20
-32.148024426705902
30
0
11
24.129657227286142
21
-31.974219219691822
31
0
0
SPLINE
5
620
100
AcDbEntity
8
0
100
AcDbSpline
70
0
71
2
72
6
73
3
74
0
42
0.000000001
43
0.0000000001
44
0.0000000001
40
0
40
0
40
0
40
1
40
1
40
1
10
24.129657227286142
20
-31.974219219691822
30
0
10
24.129657227286142
20
-31.898410456187793
30
0
10
24.121319133528512
20
-31.879610257155964
30
0
0
SPLINE
5
621
100
AcDbEntity
8
0
100
AcDbSpline
70
0
71
2
72
6
73
3
74
0
42
0.000000001
43
0.0000000001
44
0.0000000001
40
0
40
0
40
0
40
1
40
1
40
1
10
24.121319133528512
20
-31.879610257155964
30
0
10
24.112980443724435
20
-31.86081013262994
30
0
10
24.084567505606454
20
-31.86081013262994
30
0
0
SPLINE
5
622
100
AcDbEntity
8
0
100
AcDbSpline
70
0
71
2
72
6
73
3
74
0
42
0.000000001
43
0.0000000001
44
0.0000000001
40
0
40
0
40
0
40
1
40
1
40
1
10
24.084567505606454
20
-31.86081013262994
30
0
10
24.052448946722787
20
-31.86081013262994
30
0
10
24.043802100905221
20
-31.88366374552972
30
0
0
SPLINE
5
623
100
AcDbEntity
8
0
100
AcDbSpline
70
0
71
2
72
6
73
3
74
0
42
0.000000001
43
0.0000000001
44
0.0000000001
40
0
40
0
40
0
40
1
40
1
40
1
10
24.043802100905221
20
-31.88366374552972
30
0
10
24.035154659041208
20
-31.9065173584295
30
0
10
24.035154659041208
20
-31.982490183718273
30
0
0
LINE
5
624
100
AcDbEntity
8
0
100
AcDbLine
10
24.035154659041208
20
-31.982490183718273
30
0
11
24.035154659041208
21
-32.446974428303307
31
0
0
SPLINE
5
625
100
AcDbEntity
8
0
100
AcDbSpline
70
0
71
2
72
6
73
3
74
0
42
0.000000001
43
0.0000000001
44
0.0000000001
40
0
40
0
40
0
40
1
40
1
40
1
10
24.035154659041208
20
-32.446974428303307
30
0
10
24.035154659041208
20
-32.519858913428848
30
0
10
24.043802100905221
20
-32.542094873197144
30
0
0
SPLINE
5
626
100
AcDbEntity
8
0
100
AcDbSpline
70
0
71
2
72
6
73
3
74
0
42
0.000000001
43
0.0000000001
44
0.0000000001
40
0
40
0
40
0
40
1
40
1
40
1
10
24.043802100905221
20
-32.542094873197144
30
0
10
24.052448946722787
20
-32.564330832965439
30
0
10
24.082714993246835
20
-32.564330832965439
30
0
0
SPLINE
5
627
100
AcDbEntity
8
0
100
AcDbSpline
70
0
71
2
72
6
73
3
74
0
42
0.000000001
43
0.0000000001
44
0.0000000001
40
0
40
0
40
0
40
1
40
1
40
1
10
24.082714993246835
20
-32.564330832965439
30
0
10
24.111744839438241
20
-32.564330832965439
30
0
10
24.120701033362192
20
-32.542041750557487
30
0
0
SPLINE
5
628
100
AcDbEntity
8
0
100
AcDbSpline
70
0
71
2
72
6
73
3
74
0
42
0.000000001
43
0.0000000001
44
0.0000000001
40
0
40
0
40
0
40
1
40
1
40
1
10
24.120701033362192
20
-32.542041750557487
30
0
10
24.129657227286142
20
-32.519752742655342
30
0
10
24.129657227286142
20
-32.437400581247871
30
0
0
LINE
5
629
100
AcDbEntity
8
0
100
AcDbLine
10
24.129657227286142
20
-32.437400581247871
30
0
11
24.129657227286142
21
-32.31170571029908
31
0
0
LINE
5
630
100
AcDbEntity
8
0
100
AcDbLine
10
24.129657227286142
20
-32.31170571029908
30
0
11
24.389694411047738
21
-32.31170571029908
31
0
0
LINE
5
631
100
AcDbEntity
8
0
100
AcDbLine
10
24.389694411047738
20
-32.31170571029908
30
0
11
24.389694411047738
21
-32.350676568157738
31
0
0
SPLINE
5
632
100
AcDbEntity
8
0
100
AcDbSpline
70
0
71
2
72
6
73
3
74
0
42
0.000000001
43
0.0000000001
44
0.0000000001
40
0
40
0
40
0
40
1
40
1
40
1
10
24.389694411047738
20
-32.350676568157738
30
0
10
24.389694411047738
20
-32.505932511694496
30
0
10
24.367767054327768
20
-32.570883842117851
30
0
0
SPLINE
5
633
100
AcDbEntity
8
0
100
AcDbSpline
70
0
71
2
72
6
73
3
74
0
42
0.000000001
43
0.0000000001
44
0.0000000001
40
0
40
0
40
0
40
1
40
1
40
1
10
24.367767054327768
20
-32.570883842117851
30
0
10
24.345840293654245
20
-32.635835247047012
30
0
10
24.270793873556894
20
-32.6847031581474
30
0
0
SPLINE
5
634
100
AcDbEntity
8
0
100
AcDbSpline
70
0
71
2
72
6
73
3
74
0
42
0.000000001
43
0.0000000001
44
0.0000000001
40
0
40
0
40
0
40
1
40
1
40
1
10
24.270793873556894
20
-32.6847031581474
30
0
10
24.195747453459543
20
-32.733571143753593
30
0
10
24.085803109892648
20
-32.733571143753593
30
0
0
SPLINE
5
635
100
AcDbEntity
8
0
100
AcDbSpline
70
0
71
2
72
6
73
3
74
0
42
0.000000001
43
0.0000000001
44
0.0000000001
40
0
40
0
40
0
40
1
40
1
40
1
10
24.085803109892648
20
-32.733571143753593
30
0
10
23.971535045393747
20
-32.733571143753593
30
0
10
23.897415477522653
20
-32.692187489874428
30
0
0
SPLINE
5
636
100
AcDbEntity
8
0
100
AcDbSpline
70
0
71
2
72
6
73
3
74
0
42
0.000000001
43
0.0000000001
44
0.0000000001
40
0
40
0
40
0
40
1
40
1
40
1
10
23.897415477522653
20
-32.692187489874428
30
0
10
23.823295313605112
20
-32.650803985006874
30
0
10
23.799206692465585
20
-32.577610598809784
30
0
0
SPLINE
5
637
100
AcDbEntity
8
0
100
AcDbSpline
70
0
71
2
72
6
73
3
74
0
42
0.000000001
43
0.0000000001
44
0.0000000001
40
0
40
0
40
0
40
1
40
1
40
1
10
23.799206692465585
20
-32.577610598809784
30
0
10
23.775117475279611
20
-32.5044172871185
30
0
10
23.775117475279611
20
-32.35741293609864
30
0
0
LINE
5
638
100
AcDbEntity
8
0
100
AcDbLine
10
23.775117475279611
20
-32.35741293609864
30
0
11
23.775117475279611
21
-32.065257342464989
31
0
0
SPLINE
5
639
100
AcDbEntity
8
0
100
AcDbSpline
70
0
71
2
72
6
73
3
74
0
42
0.000000001
43
0.0000000001
44
0.0000000001
40
0
40
0
40
0
40
1
40
1
40
1
10
23.775117475279611
20
-32.065257342464989
30
0
10
23.775117475279611
20
-31.957165883786747
30
0
10
23.782529312857431
20
-31.903120191700527
30
0
0
SPLINE
5
640
100
AcDbEntity
8
0
100
AcDbSpline
70
0
71
2
72
6
73
3
74
0
42
0.000000001
43
0.0000000001
44
0.0000000001
40
0
40
0
40
0
40
1
40
1
40
1
10
23.782529312857431
20
-31.903120191700527
30
0
10
23.789941150435251
20
-31.849074425108501
30
0
10
23.826692778357309
20
-31.79904355288274
30
0
0
SPLINE
5
641
100
AcDbEntity
8
0
100
AcDbSpline
70
0
71
2
72
6
73
3
74
0
42
0.000000001
43
0.0000000001
44
0.0000000001
40
0
40
0
40
0
40
1
40
1
40
1
10
23.826692778357309
20
-31.79904355288274
30
0
10
23.863443810232919
20
-31.749012680656978
30
0
10
23.928607184180063
20
-31.720291213996479
30
0
0
SPLINE
5
642
100
AcDbEntity
8
0
100
AcDbSpline
70
0
71
2
72
6
73
3
74
0
42
0.000000001
43
0.0000000001
44
0.0000000001
40
0
40
0
40
0
40
1
40
1
40
1
10
23.928607184180063
20
-31.720291213996479
30
0
10
23.993771154173654
20
-31.691569821841785
30
0
10
24.078391272314828
20
-31.691569821841785
30
0
0
SPLINE
5
643
100
AcDbEntity
8
0
100
AcDbSpline
70
0
71
2
72
6
73
3
74
0
42
0.000000001
43
0.0000000001
44
0.0000000001
40
0
40
0
40
0
40
1
40
1
40
1
10
24.078391272314828
20
-31.691569821841785
30
0
10
24.193276840933603
20
-31.691569821841785
30
0
10
24.268014508971017
20
-31.735983775861332
30
0
0
SPLINE
5
644
100
AcDbEntity
8
0
100
AcDbSpline
70
0
71
2
72
6
73
3
74
0
42
0.000000001
43
0.0000000001
44
0.0000000001
40
0
40
0
40
0
40
1
40
1
40
1
10
24.268014508971017
20
-31.735983775861332
30
0
10
24.342751580961984
20
-31.780397804386684
30
0
10
24.366223294028085
20
-31.846705140478679
30
0
0
SPLINE
5
645
100
AcDbEntity
8
0
100
AcDbSpline
70
0
71
2
72
6
73
3
74
0
42
0.000000001
43
0.0000000001
44
0.0000000001
40
0
40
0
40
0
40
1
40
1
40
1
10
24.366223294028085
20
-31.846705140478679
30
0
10
24.389694411047738
20
-31.913012476570675
30
0
10
24.389694411047738
20
-32.053029449589317
30
0
0
LINE
5
646
100
AcDbEntity
8
0
100
AcDbLine
10
24.389694411047738
20
-32.053029449589317
30
0
11
24.389694411047738
21
-32.148024426705902
31
0
0
LINE
5
647
100
AcDbEntity
8
0
100
AcDbLine
10
25.006742555388254
20
-31.712570400841305
30
0
11
25.006742555388254
21
-31.912693964250156
31
0
0
LINE
5
648
100
AcDbEntity
8
0
100
AcDbLine
10
25.006742555388254
20
-31.912693964250156
30
0
11
24.852325994261545
21
-31.912693964250156
31
0
0
LINE
5
649
100
AcDbEntity
8
0
100
AcDbLine
10
24.852325994261545
20
-31.912693964250156
30
0
11
24.852325994261545
21
-32.712570490248268
31
0
0
LINE
5
650
100
AcDbEntity
8
0
100
AcDbLine
10
24.852325994261545
20
-32.712570490248268
30
0
11
24.592288810499948
21
-32.712570490248268
31
0
0
LINE
5
651
100
AcDbEntity
8
0
100
AcDbLine
10
24.592288810499948
20
-32.712570490248268
30
0
11
24.592288810499948
21
-31.912693964250156
31
0
0
LINE
5
652
100
AcDbEntity
8
0
100
AcDbLine
10
24.592288810499948
20
-31.912693964250156
30
0
11
24.43849034953956
21
-31.912693964250156
31
0
0
LINE
5
653
100
AcDbEntity
8
0
100
AcDbLine
10
24.43849034953956
20
-31.912693964250156
30
0
11
24.43849034953956
21
-31.712570400841305
31
0
0
LINE
5
654
100
AcDbEntity
8
0
100
AcDbLine
10
24.43849034953956
20
-31.712570400841305
30
0
11
25.006742555388254
21
-31.712570400841305
31
0
0
ENDSEC
0
SECTION
2
OBJECTS
0
DICTIONARY
5
C
100
AcDbDictionary
3
ACAD_GROUP
350
D
3
ACAD_MLINESTYLE
350
17
0
DICTIONARY
5
D
100
AcDbDictionary
0
DICTIONARY
5
1A
330
C
100
AcDbDictionary
0
DICTIONARY
5
17
100
AcDbDictionary
0
ENDSEC
0
EOF
